<?xml version="1.0" encoding="UTF-8" standalone="no"?>
<!DOCTYPE svg PUBLIC "-//W3C//DTD SVG 1.1//EN"
 "http://www.w3.org/Graphics/SVG/1.1/DTD/svg11.dtd">
<!-- Generated by graphviz version 2.43.0 (0)
 -->
<!-- Title: include/astaroth_utils.h Pages: 1 -->
<!--zoomable 104 -->

<svg id="main" version="1.1" xmlns="http://www.w3.org/2000/svg" xmlns:xlink="http://www.w3.org/1999/xlink" xml:space="preserve" onload="init(evt)">
<style type="text/css"><![CDATA[
.node, .edge {opacity: 0.7;}
.node.selected, .edge.selected {opacity: 1;}
.edge:hover path { stroke: red; }
.edge:hover polygon { stroke: red; fill: red; }
]]></style>

<defs>
  <circle id="rim" cx="0" cy="0" r="7"/>
  <circle id="rim2" cx="0" cy="0" r="3.5"/>
  <g id="zoomPlus">
    <use xlink:href="#rim" fill="#404040"><set attributeName="fill" to="#808080" begin="zoomplus.mouseover" end="zoomplus.mouseout"/></use>
    <path d="M-4,0h8M0,-4v8" fill="none" stroke="white" stroke-width="1.5" pointer-events="none"/>
  </g>
  <g id="zoomMin">
    <use xlink:href="#rim" fill="#404040"><set attributeName="fill" to="#808080" begin="zoomminus.mouseover" end="zoomminus.mouseout"/></use>
    <path d="M-4,0h8" fill="none" stroke="white" stroke-width="1.5" pointer-events="none"/>
  </g>
  <g id="arrowUp" transform="translate(30 24)">
    <use xlink:href="#rim"/>
    <path pointer-events="none" fill="none" stroke="white" stroke-width="1.5" d="M0,-3.0v7 M-2.5,-0.5L0,-3.0L2.5,-0.5"/>
  </g>
  <g id="arrowRight" transform="rotate(90) translate(36 -43)">
    <use xlink:href="#rim"/>
    <path pointer-events="none" fill="none" stroke="white" stroke-width="1.5" d="M0,-3.0v7 M-2.5,-0.5L0,-3.0L2.5,-0.5"/>
  </g>
  <g id="arrowDown" transform="rotate(180) translate(-30 -48)">
    <use xlink:href="#rim"/>
    <path pointer-events="none" fill="none" stroke="white" stroke-width="1.5" d="M0,-3.0v7 M-2.5,-0.5L0,-3.0L2.5,-0.5"/>
  </g>
  <g id="arrowLeft" transform="rotate(270) translate(-36 17)">
    <use xlink:href="#rim"/>
    <path pointer-events="none" fill="none" stroke="white" stroke-width="1.5" d="M0,-3.0v7 M-2.5,-0.5L0,-3.0L2.5,-0.5"/>
  </g>
  <g id="resetDef">
    <use xlink:href="#rim2" fill="#404040"><set attributeName="fill" to="#808080" begin="reset.mouseover" end="reset.mouseout"/></use>
  </g>
</defs>
<script type="application/ecmascript">
var viewWidth = 5855;
var viewHeight = 104;
var sectionId = 'dynsection-1';
</script>
<script type="application/ecmascript" xlink:href="svg.min.js"/>
<svg id="graph" class="graph">
<g id="viewport">
<title>include/astaroth_utils.h</title>
<!-- Node1 -->
<g id="Node000001" class="node">
<title>Node1</title>
<g id="a_Node000001"><a xlink:title="Functions for loading and updating AcMeshInfo.">
<polygon fill="#999999" stroke="#666666" points="2903.5,-96 2772.5,-96 2772.5,-77 2903.5,-77 2903.5,-96"/>
<text text-anchor="middle" x="2838" y="-84" font-family="Helvetica,sans-Serif" font-size="10.00">include/astaroth_utils.h</text>
</a>
</g>
</g>
<!-- Node2 -->
<g id="Node000002" class="node">
<title>Node2</title>
<g id="a_Node000002"><a xlink:href="config__loader_8cc.html" target="_top" xlink:title="Brief info.">
<polygon fill="white" stroke="#666666" points="136,-30 0,-30 0,-11 136,-11 136,-30"/>
<text text-anchor="middle" x="68" y="-18" font-family="Helvetica,sans-Serif" font-size="10.00">src/utils/config_loader.cc</text>
</a>
</g>
</g>
<!-- Node1&#45;&gt;Node2 -->
<g id="edge1_Node000001_Node000002" class="edge">
<title>Node1&#45;&gt;Node2</title>
<g id="a_edge1_Node000001_Node000002"><a xlink:title=" ">
<path fill="none" stroke="#63b8ff" d="M2762.12,-85.29C2352.11,-84.04 410.1,-76.27 145,-41 128.19,-38.76 109.75,-34.17 95.14,-30.01"/>
<polygon fill="#63b8ff" stroke="#63b8ff" points="2762.37,-88.79 2772.38,-85.32 2762.39,-81.79 2762.37,-88.79"/>
</a>
</g>
</g>
<!-- Node3 -->
<g id="Node000003" class="node">
<title>Node3</title>
<g id="a_Node000003"><a xlink:href="memory_8cc.html" target="_top" xlink:title=" ">
<polygon fill="white" stroke="#666666" points="265.5,-30 154.5,-30 154.5,-11 265.5,-11 265.5,-30"/>
<text text-anchor="middle" x="210" y="-18" font-family="Helvetica,sans-Serif" font-size="10.00">src/utils/memory.cc</text>
</a>
</g>
</g>
<!-- Node1&#45;&gt;Node3 -->
<g id="edge2_Node000001_Node000003" class="edge">
<title>Node1&#45;&gt;Node3</title>
<g id="a_edge2_Node000001_Node000003"><a xlink:title=" ">
<path fill="none" stroke="#63b8ff" d="M2762.22,-85.44C2364.28,-84.96 524.78,-80.58 274,-41 259.89,-38.77 244.56,-34.18 232.45,-30.02"/>
<polygon fill="#63b8ff" stroke="#63b8ff" points="2762.46,-88.94 2772.47,-85.45 2762.47,-81.94 2762.46,-88.94"/>
</a>
</g>
</g>
<!-- Node4 -->
<g id="Node000004" class="node">
<title>Node4</title>
<g id="a_Node000004"><a xlink:href="modelreduce_8cc.html" target="_top" xlink:title="Brief info.">
<polygon fill="white" stroke="#666666" points="418.5,-30 283.5,-30 283.5,-11 418.5,-11 418.5,-30"/>
<text text-anchor="middle" x="351" y="-18" font-family="Helvetica,sans-Serif" font-size="10.00">src/utils/modelreduce.cc</text>
</a>
</g>
</g>
<!-- Node1&#45;&gt;Node4 -->
<g id="edge3_Node000001_Node000004" class="edge">
<title>Node1&#45;&gt;Node4</title>
<g id="a_edge3_Node000001_Node000004"><a xlink:title=" ">
<path fill="none" stroke="#63b8ff" d="M2762.2,-85.14C2378.94,-83.15 663.56,-72.58 428,-41 411.33,-38.76 393.06,-34.23 378.5,-30.1"/>
<polygon fill="#63b8ff" stroke="#63b8ff" points="2762.33,-88.64 2772.34,-85.19 2762.36,-81.64 2762.33,-88.64"/>
</a>
</g>
</g>
<!-- Node5 -->
<g id="Node000005" class="node">
<title>Node5</title>
<g id="a_Node000005"><a xlink:href="modelsolver-legacy-do-not-modify_8c.html" target="_top" xlink:title=" ">
<polygon fill="white" stroke="#666666" points="569,-35.5 437,-35.5 437,-5.5 569,-5.5 569,-35.5"/>
<text text-anchor="start" x="445" y="-23.5" font-family="Helvetica,sans-Serif" font-size="10.00">src/utils/modelsolver</text>
<text text-anchor="middle" x="503" y="-12.5" font-family="Helvetica,sans-Serif" font-size="10.00">&#45;legacy&#45;do&#45;not&#45;modify.c</text>
</a>
</g>
</g>
<!-- Node1&#45;&gt;Node5 -->
<g id="edge4_Node000001_Node000005" class="edge">
<title>Node1&#45;&gt;Node5</title>
<g id="a_edge4_Node000001_Node000005"><a xlink:title=" ">
<path fill="none" stroke="#63b8ff" d="M2762.47,-85.07C2394.44,-82.81 797.9,-71.32 578,-41 568.94,-39.75 559.4,-37.79 550.27,-35.58"/>
<polygon fill="#63b8ff" stroke="#63b8ff" points="2762.46,-88.57 2772.48,-85.13 2762.5,-81.57 2762.46,-88.57"/>
</a>
</g>
</g>
<!-- Node6 -->
<g id="Node000006" class="node">
<title>Node6</title>
<g id="a_Node000006"><a xlink:href="modelsolver_8cc.html" target="_top" xlink:title="Brief info.">
<polygon fill="white" stroke="#666666" points="718.5,-30 587.5,-30 587.5,-11 718.5,-11 718.5,-30"/>
<text text-anchor="middle" x="653" y="-18" font-family="Helvetica,sans-Serif" font-size="10.00">src/utils/modelsolver.cc</text>
</a>
</g>
</g>
<!-- Node1&#45;&gt;Node6 -->
<g id="edge5_Node000001_Node000006" class="edge">
<title>Node1&#45;&gt;Node6</title>
<g id="a_edge5_Node000001_Node000006"><a xlink:title=" ">
<path fill="none" stroke="#63b8ff" d="M2762.38,-84.95C2409.39,-82.25 932.29,-69.32 728,-41 711.74,-38.75 693.95,-34.21 679.77,-30.08"/>
<polygon fill="#63b8ff" stroke="#63b8ff" points="2762.47,-88.45 2772.49,-85.03 2762.52,-81.45 2762.47,-88.45"/>
</a>
</g>
</g>
<!-- Node7 -->
<g id="Node000007" class="node">
<title>Node7</title>
<g id="a_Node000007"><a xlink:href="verification_8cc.html" target="_top" xlink:title=" ">
<polygon fill="white" stroke="#666666" points="863,-30 737,-30 737,-11 863,-11 863,-30"/>
<text text-anchor="middle" x="800" y="-18" font-family="Helvetica,sans-Serif" font-size="10.00">src/utils/verification.cc</text>
</a>
</g>
</g>
<!-- Node1&#45;&gt;Node7 -->
<g id="edge6_Node000001_Node000007" class="edge">
<title>Node1&#45;&gt;Node7</title>
<g id="a_edge6_Node000001_Node000007"><a xlink:title=" ">
<path fill="none" stroke="#63b8ff" d="M2762.08,-84.87C2423.67,-81.9 1061.16,-68.34 872,-41 856.36,-38.74 839.28,-34.2 825.68,-30.08"/>
<polygon fill="#63b8ff" stroke="#63b8ff" points="2762.23,-88.37 2772.26,-84.96 2762.29,-81.37 2762.23,-88.37"/>
</a>
</g>
</g>
<!-- Node8 -->
<g id="Node000008" class="node">
<title>Node8</title>
<g id="a_Node000008"><a xlink:href="1d-test_2main_8cc.html" target="_top" xlink:title=" ">
<polygon fill="white" stroke="#666666" points="995,-30 881,-30 881,-11 995,-11 995,-30"/>
<text text-anchor="middle" x="938" y="-18" font-family="Helvetica,sans-Serif" font-size="10.00">test/1d&#45;test/main.cc</text>
</a>
</g>
</g>
<!-- Node1&#45;&gt;Node8 -->
<g id="edge7_Node000001_Node000008" class="edge">
<title>Node1&#45;&gt;Node8</title>
<g id="a_edge7_Node000001_Node000008"><a xlink:title=" ">
<path fill="none" stroke="#63b8ff" d="M2762.17,-84.84C2438.25,-81.84 1179.23,-68.52 1004,-41 989.6,-38.74 973.94,-34.2 961.48,-30.08"/>
<polygon fill="#63b8ff" stroke="#63b8ff" points="2762.36,-88.34 2772.39,-84.93 2762.42,-81.34 2762.36,-88.34"/>
</a>
</g>
</g>
<!-- Node9 -->
<g id="Node000009" class="node">
<title>Node9</title>
<g id="a_Node000009"><a xlink:href="2d-test_2main_8cc.html" target="_top" xlink:title=" ">
<polygon fill="white" stroke="#666666" points="1127,-30 1013,-30 1013,-11 1127,-11 1127,-30"/>
<text text-anchor="middle" x="1070" y="-18" font-family="Helvetica,sans-Serif" font-size="10.00">test/2d&#45;test/main.cc</text>
</a>
</g>
</g>
<!-- Node1&#45;&gt;Node9 -->
<g id="edge8_Node000001_Node000009" class="edge">
<title>Node1&#45;&gt;Node9</title>
<g id="a_edge8_Node000001_Node000009"><a xlink:title=" ">
<path fill="none" stroke="#63b8ff" d="M2761.82,-84.68C2452.29,-81.18 1297.57,-66.53 1136,-41 1121.6,-38.73 1105.94,-34.19 1093.48,-30.07"/>
<polygon fill="#63b8ff" stroke="#63b8ff" points="2762,-88.18 2772.04,-84.79 2762.08,-81.18 2762,-88.18"/>
</a>
</g>
</g>
<!-- Node10 -->
<g id="Node000010" class="node">
<title>Node10</title>
<g id="a_Node000010"><a xlink:href="arr-test_2main_8cc.html" target="_top" xlink:title=" ">
<polygon fill="white" stroke="#666666" points="1261,-30 1145,-30 1145,-11 1261,-11 1261,-30"/>
<text text-anchor="middle" x="1203" y="-18" font-family="Helvetica,sans-Serif" font-size="10.00">test/arr&#45;test/main.cc</text>
</a>
</g>
</g>
<!-- Node1&#45;&gt;Node10 -->
<g id="edge9_Node000001_Node000010" class="edge">
<title>Node1&#45;&gt;Node10</title>
<g id="a_edge9_Node000001_Node000010"><a xlink:title=" ">
<path fill="none" stroke="#63b8ff" d="M2761.95,-85.9C2489.45,-86.94 1562.51,-86.94 1270,-41 1255.4,-38.71 1239.5,-34.17 1226.85,-30.05"/>
<polygon fill="#63b8ff" stroke="#63b8ff" points="2762.15,-89.4 2772.14,-85.86 2762.12,-82.4 2762.15,-89.4"/>
</a>
</g>
</g>
<!-- Node11 -->
<g id="Node000011" class="node">
<title>Node11</title>
<g id="a_Node000011"><a xlink:href="average-stencil_2main_8cc.html" target="_top" xlink:title=" ">
<polygon fill="white" stroke="#666666" points="1393,-35.5 1279,-35.5 1279,-5.5 1393,-5.5 1393,-35.5"/>
<text text-anchor="start" x="1287" y="-23.5" font-family="Helvetica,sans-Serif" font-size="10.00">test/average&#45;stencil</text>
<text text-anchor="middle" x="1336" y="-12.5" font-family="Helvetica,sans-Serif" font-size="10.00">/main.cc</text>
</a>
</g>
</g>
<!-- Node1&#45;&gt;Node11 -->
<g id="edge10_Node000001_Node000011" class="edge">
<title>Node1&#45;&gt;Node11</title>
<g id="a_edge10_Node000001_Node000011"><a xlink:title=" ">
<path fill="none" stroke="#63b8ff" d="M2761.96,-85.71C2504.6,-86.01 1667.53,-83.61 1402,-41 1393.98,-39.71 1385.56,-37.73 1377.52,-35.52"/>
<polygon fill="#63b8ff" stroke="#63b8ff" points="2762.33,-89.21 2772.33,-85.69 2762.32,-82.21 2762.33,-89.21"/>
</a>
</g>
</g>
<!-- Node12 -->
<g id="Node000012" class="node">
<title>Node12</title>
<g id="a_Node000012"><a xlink:href="bicgstab-test_2main_8cc.html" target="_top" xlink:title=" ">
<polygon fill="white" stroke="#666666" points="1513,-35.5 1411,-35.5 1411,-5.5 1513,-5.5 1513,-35.5"/>
<text text-anchor="start" x="1419" y="-23.5" font-family="Helvetica,sans-Serif" font-size="10.00">test/bicgstab&#45;test</text>
<text text-anchor="middle" x="1462" y="-12.5" font-family="Helvetica,sans-Serif" font-size="10.00">/main.cc</text>
</a>
</g>
</g>
<!-- Node1&#45;&gt;Node12 -->
<g id="edge11_Node000001_Node000012" class="edge">
<title>Node1&#45;&gt;Node12</title>
<g id="a_edge11_Node000001_Node000012"><a xlink:title=" ">
<path fill="none" stroke="#63b8ff" d="M2762.14,-85.72C2519.27,-85.99 1762.69,-83.31 1522,-41 1514.66,-39.71 1506.99,-37.73 1499.68,-35.52"/>
<polygon fill="#63b8ff" stroke="#63b8ff" points="2762.29,-89.22 2772.29,-85.71 2762.28,-82.22 2762.29,-89.22"/>
</a>
</g>
</g>
<!-- Node13 -->
<g id="Node000013" class="node">
<title>Node13</title>
<g id="a_Node000013"><a xlink:href="boundary-halo-exchange-test_2main_8cc.html" target="_top" xlink:title=" ">
<polygon fill="white" stroke="#666666" points="1662.5,-35.5 1531.5,-35.5 1531.5,-5.5 1662.5,-5.5 1662.5,-35.5"/>
<text text-anchor="start" x="1539.5" y="-23.5" font-family="Helvetica,sans-Serif" font-size="10.00">test/boundary&#45;halo</text>
<text text-anchor="middle" x="1597" y="-12.5" font-family="Helvetica,sans-Serif" font-size="10.00">&#45;exchange&#45;test/main.cc</text>
</a>
</g>
</g>
<!-- Node1&#45;&gt;Node13 -->
<g id="edge12_Node000001_Node000013" class="edge">
<title>Node1&#45;&gt;Node13</title>
<g id="a_edge12_Node000001_Node000013"><a xlink:title=" ">
<path fill="none" stroke="#63b8ff" d="M2762.13,-84.78C2538.21,-82.31 1882.57,-72.52 1671,-41 1662.2,-39.69 1652.93,-37.73 1644.05,-35.55"/>
<polygon fill="#63b8ff" stroke="#63b8ff" points="2762.11,-88.28 2772.15,-84.89 2762.19,-81.28 2762.11,-88.28"/>
</a>
</g>
</g>
<!-- Node14 -->
<g id="Node000014" class="node">
<title>Node14</title>
<g id="a_Node000014"><a xlink:href="cg-test_2main_8cc.html" target="_top" xlink:title=" ">
<polygon fill="white" stroke="#666666" points="1793.5,-30 1680.5,-30 1680.5,-11 1793.5,-11 1793.5,-30"/>
<text text-anchor="middle" x="1737" y="-18" font-family="Helvetica,sans-Serif" font-size="10.00">test/cg&#45;test/main.cc</text>
</a>
</g>
</g>
<!-- Node1&#45;&gt;Node14 -->
<g id="edge13_Node000001_Node000014" class="edge">
<title>Node1&#45;&gt;Node14</title>
<g id="a_edge13_Node000001_Node000014"><a xlink:title=" ">
<path fill="none" stroke="#63b8ff" d="M2762.28,-84.64C2556.06,-81.92 1987.6,-71.76 1803,-41 1788.74,-38.62 1773.22,-34.14 1760.81,-30.07"/>
<polygon fill="#63b8ff" stroke="#63b8ff" points="2762.36,-88.14 2772.41,-84.77 2762.45,-81.14 2762.36,-88.14"/>
</a>
</g>
</g>
<!-- Node15 -->
<g id="Node000015" class="node">
<title>Node15</title>
<g id="a_Node000015"><a xlink:href="compact-poisson-test_2main_8cc.html" target="_top" xlink:title=" ">
<polygon fill="white" stroke="#666666" points="1934,-35.5 1812,-35.5 1812,-5.5 1934,-5.5 1934,-35.5"/>
<text text-anchor="start" x="1820" y="-23.5" font-family="Helvetica,sans-Serif" font-size="10.00">test/compact&#45;poisson</text>
<text text-anchor="middle" x="1873" y="-12.5" font-family="Helvetica,sans-Serif" font-size="10.00">&#45;test/main.cc</text>
</a>
</g>
</g>
<!-- Node1&#45;&gt;Node15 -->
<g id="edge14_Node000001_Node000015" class="edge">
<title>Node1&#45;&gt;Node15</title>
<g id="a_edge14_Node000001_Node000015"><a xlink:title=" ">
<path fill="none" stroke="#63b8ff" d="M2761.99,-83.89C2575.62,-79.59 2099.75,-66.41 1943,-41 1934.78,-39.67 1926.15,-37.73 1917.86,-35.58"/>
<polygon fill="#63b8ff" stroke="#63b8ff" points="2762.17,-87.39 2772.25,-84.12 2762.33,-80.4 2762.17,-87.39"/>
</a>
</g>
</g>
<!-- Node16 -->
<g id="Node000016" class="node">
<title>Node16</title>
<g id="a_Node000016"><a xlink:href="constant-values_2main_8cc.html" target="_top" xlink:title=" ">
<polygon fill="white" stroke="#666666" points="2068,-35.5 1952,-35.5 1952,-5.5 2068,-5.5 2068,-35.5"/>
<text text-anchor="start" x="1960" y="-23.5" font-family="Helvetica,sans-Serif" font-size="10.00">test/constant&#45;values</text>
<text text-anchor="middle" x="2010" y="-12.5" font-family="Helvetica,sans-Serif" font-size="10.00">/main.cc</text>
</a>
</g>
</g>
<!-- Node1&#45;&gt;Node16 -->
<g id="edge15_Node000001_Node000016" class="edge">
<title>Node1&#45;&gt;Node16</title>
<g id="a_edge15_Node000001_Node000016"><a xlink:title=" ">
<path fill="none" stroke="#63b8ff" d="M2762.35,-83.24C2596.86,-77.94 2207.14,-63.45 2077,-41 2069.12,-39.64 2060.85,-37.69 2052.92,-35.53"/>
<polygon fill="#63b8ff" stroke="#63b8ff" points="2762.33,-86.74 2772.44,-83.56 2762.56,-79.74 2762.33,-86.74"/>
</a>
</g>
</g>
<!-- Node17 -->
<g id="Node000017" class="node">
<title>Node17</title>
<g id="a_Node000017"><a xlink:href="main_8cu.html" target="_top" xlink:title=" ">
<polygon fill="white" stroke="#666666" points="2182,-35.5 2086,-35.5 2086,-5.5 2182,-5.5 2182,-35.5"/>
<text text-anchor="start" x="2094" y="-23.5" font-family="Helvetica,sans-Serif" font-size="10.00">test/fft&#45;shift&#45;test</text>
<text text-anchor="middle" x="2134" y="-12.5" font-family="Helvetica,sans-Serif" font-size="10.00">/main.cu</text>
</a>
</g>
</g>
<!-- Node1&#45;&gt;Node17 -->
<g id="edge16_Node000001_Node000017" class="edge">
<title>Node1&#45;&gt;Node17</title>
<g id="a_edge16_Node000001_Node000017"><a xlink:title=" ">
<path fill="none" stroke="#63b8ff" d="M2762.13,-82.77C2615.51,-77.07 2298.24,-62.64 2191,-41 2184.23,-39.63 2177.17,-37.68 2170.41,-35.52"/>
<polygon fill="#63b8ff" stroke="#63b8ff" points="2762.26,-86.27 2772.39,-83.16 2762.53,-79.28 2762.26,-86.27"/>
</a>
</g>
</g>
<!-- Node18 -->
<g id="Node000018" class="node">
<title>Node18</title>
<g id="a_Node000018"><a xlink:href="fft-test_2main_8cc.html" target="_top" xlink:title=" ">
<polygon fill="white" stroke="#666666" points="2313.5,-30 2200.5,-30 2200.5,-11 2313.5,-11 2313.5,-30"/>
<text text-anchor="middle" x="2257" y="-18" font-family="Helvetica,sans-Serif" font-size="10.00">test/fft&#45;test/main.cc</text>
</a>
</g>
</g>
<!-- Node1&#45;&gt;Node18 -->
<g id="edge17_Node000001_Node000018" class="edge">
<title>Node1&#45;&gt;Node18</title>
<g id="a_edge17_Node000001_Node000018"><a xlink:title=" ">
<path fill="none" stroke="#63b8ff" d="M2762.12,-83.82C2660.91,-80.48 2476.55,-70.52 2322,-41 2308.23,-38.37 2293.22,-33.97 2281.09,-30.02"/>
<polygon fill="#63b8ff" stroke="#63b8ff" points="2762.14,-87.32 2772.25,-84.14 2762.36,-80.33 2762.14,-87.32"/>
</a>
</g>
</g>
<!-- Node19 -->
<g id="Node000019" class="node">
<title>Node19</title>
<g id="a_Node000019"><a xlink:href="field-arr-test_2main_8cc.html" target="_top" xlink:title=" ">
<polygon fill="white" stroke="#666666" points="2430.5,-35.5 2331.5,-35.5 2331.5,-5.5 2430.5,-5.5 2430.5,-35.5"/>
<text text-anchor="start" x="2339.5" y="-23.5" font-family="Helvetica,sans-Serif" font-size="10.00">test/field&#45;arr&#45;test</text>
<text text-anchor="middle" x="2381" y="-12.5" font-family="Helvetica,sans-Serif" font-size="10.00">/main.cc</text>
</a>
</g>
</g>
<!-- Node1&#45;&gt;Node19 -->
<g id="edge18_Node000001_Node000019" class="edge">
<title>Node1&#45;&gt;Node19</title>
<g id="a_edge18_Node000001_Node000019"><a xlink:title=" ">
<path fill="none" stroke="#63b8ff" d="M2762.11,-81.71C2681.45,-76.6 2550.57,-65.18 2440,-41 2433.36,-39.55 2426.42,-37.63 2419.72,-35.56"/>
<polygon fill="#63b8ff" stroke="#63b8ff" points="2761.98,-85.21 2772.17,-82.34 2762.41,-78.23 2761.98,-85.21"/>
</a>
</g>
</g>
<!-- Node20 -->
<g id="Node000020" class="node">
<title>Node20</title>
<g id="a_Node000020"><a xlink:href="grid-calculation_2main_8cc.html" target="_top" xlink:title=" ">
<polygon fill="white" stroke="#666666" points="2563,-35.5 2449,-35.5 2449,-5.5 2563,-5.5 2563,-35.5"/>
<text text-anchor="start" x="2457" y="-23.5" font-family="Helvetica,sans-Serif" font-size="10.00">test/grid&#45;calculation</text>
<text text-anchor="middle" x="2506" y="-12.5" font-family="Helvetica,sans-Serif" font-size="10.00">/main.cc</text>
</a>
</g>
</g>
<!-- Node1&#45;&gt;Node20 -->
<g id="edge19_Node000001_Node000020" class="edge">
<title>Node1&#45;&gt;Node20</title>
<g id="a_edge19_Node000001_Node000020"><a xlink:title=" ">
<path fill="none" stroke="#63b8ff" d="M2763.51,-75.51C2709.91,-67.73 2636.08,-55.77 2572,-41 2565.13,-39.42 2557.92,-37.53 2550.9,-35.56"/>
<polygon fill="#63b8ff" stroke="#63b8ff" points="2763.21,-79.01 2773.61,-76.97 2764.21,-72.08 2763.21,-79.01"/>
</a>
</g>
</g>
<!-- Node21 -->
<g id="Node000021" class="node">
<title>Node21</title>
<g id="a_Node000021"><a xlink:href="inplace__gaussian-test_2main_8cc.html" target="_top" xlink:title=" ">
<polygon fill="white" stroke="#666666" points="2703,-35.5 2581,-35.5 2581,-5.5 2703,-5.5 2703,-35.5"/>
<text text-anchor="start" x="2589" y="-23.5" font-family="Helvetica,sans-Serif" font-size="10.00">test/inplace_gaussian</text>
<text text-anchor="middle" x="2642" y="-12.5" font-family="Helvetica,sans-Serif" font-size="10.00">&#45;test/main.cc</text>
</a>
</g>
</g>
<!-- Node1&#45;&gt;Node21 -->
<g id="edge20_Node000001_Node000021" class="edge">
<title>Node1&#45;&gt;Node21</title>
<g id="a_edge20_Node000001_Node000021"><a xlink:title=" ">
<path fill="none" stroke="#63b8ff" d="M2801.88,-73.71C2768.95,-62.95 2720.22,-47.04 2685.23,-35.62"/>
<polygon fill="#63b8ff" stroke="#63b8ff" points="2800.97,-77.09 2811.57,-76.87 2803.15,-70.44 2800.97,-77.09"/>
</a>
</g>
</g>
<!-- Node22 -->
<g id="Node000022" class="node">
<title>Node22</title>
<g id="a_Node000022"><a xlink:href="kernel-fusion-test_2main_8cc.html" target="_top" xlink:title=" ">
<polygon fill="white" stroke="#666666" points="2823,-35.5 2721,-35.5 2721,-5.5 2823,-5.5 2823,-35.5"/>
<text text-anchor="start" x="2729" y="-23.5" font-family="Helvetica,sans-Serif" font-size="10.00">test/kernel&#45;fusion</text>
<text text-anchor="middle" x="2772" y="-12.5" font-family="Helvetica,sans-Serif" font-size="10.00">&#45;test/main.cc</text>
</a>
</g>
</g>
<!-- Node1&#45;&gt;Node22 -->
<g id="edge21_Node000001_Node000022" class="edge">
<title>Node1&#45;&gt;Node22</title>
<g id="a_edge21_Node000001_Node000022"><a xlink:title=" ">
<path fill="none" stroke="#63b8ff" d="M2821.61,-69.6C2810.85,-59.18 2796.92,-45.66 2786.56,-35.62"/>
<polygon fill="#63b8ff" stroke="#63b8ff" points="2819.48,-72.42 2829.1,-76.87 2824.36,-67.39 2819.48,-72.42"/>
</a>
</g>
</g>
<!-- Node23 -->
<g id="Node000023" class="node">
<title>Node23</title>
<g id="a_Node000023"><a xlink:href="mpi-profile-reduce_2main_8cc.html" target="_top" xlink:title=" ">
<polygon fill="white" stroke="#666666" points="2969,-35.5 2841,-35.5 2841,-5.5 2969,-5.5 2969,-35.5"/>
<text text-anchor="start" x="2849" y="-23.5" font-family="Helvetica,sans-Serif" font-size="10.00">test/mpi&#45;profile&#45;reduce</text>
<text text-anchor="middle" x="2905" y="-12.5" font-family="Helvetica,sans-Serif" font-size="10.00">/main.cc</text>
</a>
</g>
</g>
<!-- Node1&#45;&gt;Node23 -->
<g id="edge22_Node000001_Node000023" class="edge">
<title>Node1&#45;&gt;Node23</title>
<g id="a_edge22_Node000001_Node000023"><a xlink:title=" ">
<path fill="none" stroke="#63b8ff" d="M2854.32,-69.91C2865.28,-59.44 2879.6,-45.76 2890.22,-35.62"/>
<polygon fill="#63b8ff" stroke="#63b8ff" points="2851.85,-67.43 2847.04,-76.87 2856.68,-72.49 2851.85,-67.43"/>
</a>
</g>
</g>
<!-- Node24 -->
<g id="Node000024" class="node">
<title>Node24</title>
<g id="a_Node000024"><a xlink:href="multigrid-tests_2anisotropic-test_2main_8cc.html" target="_top" xlink:title=" ">
<polygon fill="white" stroke="#666666" points="3124.5,-35.5 2987.5,-35.5 2987.5,-5.5 3124.5,-5.5 3124.5,-35.5"/>
<text text-anchor="start" x="2995.5" y="-23.5" font-family="Helvetica,sans-Serif" font-size="10.00">test/multigrid&#45;tests</text>
<text text-anchor="middle" x="3056" y="-12.5" font-family="Helvetica,sans-Serif" font-size="10.00">/anisotropic&#45;test/main.cc</text>
</a>
</g>
</g>
<!-- Node1&#45;&gt;Node24 -->
<g id="edge23_Node000001_Node000024" class="edge">
<title>Node1&#45;&gt;Node24</title>
<g id="a_edge23_Node000001_Node000024"><a xlink:title=" ">
<path fill="none" stroke="#63b8ff" d="M2877.23,-73.98C2913.87,-63.23 2968.66,-47.14 3007.92,-35.62"/>
<polygon fill="#63b8ff" stroke="#63b8ff" points="2876.01,-70.69 2867.4,-76.87 2877.98,-77.41 2876.01,-70.69"/>
</a>
</g>
</g>
<!-- Node25 -->
<g id="Node000025" class="node">
<title>Node25</title>
<g id="a_Node000025"><a xlink:href="multigrid-tests_2compact-stencil-multigrid-test_2main_8cc.html" target="_top" xlink:title=" ">
<polygon fill="white" stroke="#666666" points="3289,-41 3143,-41 3143,0 3289,0 3289,-41"/>
<text text-anchor="start" x="3151" y="-29" font-family="Helvetica,sans-Serif" font-size="10.00">test/multigrid&#45;tests</text>
<text text-anchor="start" x="3151" y="-18" font-family="Helvetica,sans-Serif" font-size="10.00">/compact&#45;stencil&#45;multigrid</text>
<text text-anchor="middle" x="3216" y="-7" font-family="Helvetica,sans-Serif" font-size="10.00">&#45;test/main.cc</text>
</a>
</g>
</g>
<!-- Node1&#45;&gt;Node25 -->
<g id="edge24_Node000001_Node000025" class="edge">
<title>Node1&#45;&gt;Node25</title>
<g id="a_edge24_Node000001_Node000025"><a xlink:title=" ">
<path fill="none" stroke="#63b8ff" d="M2913.67,-75.91C2973.65,-67.88 3059.49,-55.43 3134,-41 3136.87,-40.44 3139.8,-39.85 3142.75,-39.24"/>
<polygon fill="#63b8ff" stroke="#63b8ff" points="2912.97,-72.47 2903.52,-77.26 2913.9,-79.41 2912.97,-72.47"/>
</a>
</g>
</g>
<!-- Node26 -->
<g id="Node000026" class="node">
<title>Node26</title>
<g id="a_Node000026"><a xlink:href="multigrid-tests_2line-smoother-multigrid-test_2main_8cc.html" target="_top" xlink:title=" ">
<polygon fill="white" stroke="#666666" points="3443,-41 3307,-41 3307,0 3443,0 3443,-41"/>
<text text-anchor="start" x="3315" y="-29" font-family="Helvetica,sans-Serif" font-size="10.00">test/multigrid&#45;tests</text>
<text text-anchor="start" x="3315" y="-18" font-family="Helvetica,sans-Serif" font-size="10.00">/line&#45;smoother&#45;multigrid</text>
<text text-anchor="middle" x="3375" y="-7" font-family="Helvetica,sans-Serif" font-size="10.00">&#45;test/main.cc</text>
</a>
</g>
</g>
<!-- Node1&#45;&gt;Node26 -->
<g id="edge25_Node000001_Node000026" class="edge">
<title>Node1&#45;&gt;Node26</title>
<g id="a_edge25_Node000001_Node000026"><a xlink:title=" ">
<path fill="none" stroke="#63b8ff" d="M2913.56,-81.71C3005.08,-76.31 3163.71,-64.36 3298,-41 3300.85,-40.5 3303.76,-39.96 3306.68,-39.37"/>
<polygon fill="#63b8ff" stroke="#63b8ff" points="2913.33,-78.22 2903.55,-82.29 2913.73,-85.21 2913.33,-78.22"/>
</a>
</g>
</g>
<!-- Node27 -->
<g id="Node000027" class="node">
<title>Node27</title>
<g id="a_Node000027"><a xlink:href="multigrid-tests_2multigrid-test_2main_8cc.html" target="_top" xlink:title=" ">
<polygon fill="white" stroke="#666666" points="3589,-35.5 3461,-35.5 3461,-5.5 3589,-5.5 3589,-35.5"/>
<text text-anchor="start" x="3469" y="-23.5" font-family="Helvetica,sans-Serif" font-size="10.00">test/multigrid&#45;tests</text>
<text text-anchor="middle" x="3525" y="-12.5" font-family="Helvetica,sans-Serif" font-size="10.00">/multigrid&#45;test/main.cc</text>
</a>
</g>
</g>
<!-- Node1&#45;&gt;Node27 -->
<g id="edge26_Node000001_Node000027" class="edge">
<title>Node1&#45;&gt;Node27</title>
<g id="a_edge26_Node000001_Node000027"><a xlink:title=" ">
<path fill="none" stroke="#63b8ff" d="M2914.16,-84.59C3030.75,-82.15 3260.17,-73.27 3452,-41 3460.41,-39.59 3469.25,-37.63 3477.77,-35.5"/>
<polygon fill="#63b8ff" stroke="#63b8ff" points="2913.84,-81.09 2903.91,-84.79 2913.98,-88.09 2913.84,-81.09"/>
</a>
</g>
</g>
<!-- Node28 -->
<g id="Node000028" class="node">
<title>Node28</title>
<g id="a_Node000028"><a xlink:href="multigrid-tests_2parallel-multigrid-test_2main_8cc.html" target="_top" xlink:title=" ">
<polygon fill="white" stroke="#666666" points="3734.5,-41 3607.5,-41 3607.5,0 3734.5,0 3734.5,-41"/>
<text text-anchor="start" x="3615.5" y="-29" font-family="Helvetica,sans-Serif" font-size="10.00">test/multigrid&#45;tests</text>
<text text-anchor="start" x="3615.5" y="-18" font-family="Helvetica,sans-Serif" font-size="10.00">/parallel&#45;multigrid&#45;test</text>
<text text-anchor="middle" x="3671" y="-7" font-family="Helvetica,sans-Serif" font-size="10.00">/main.cc</text>
</a>
</g>
</g>
<!-- Node1&#45;&gt;Node28 -->
<g id="edge27_Node000001_Node000028" class="edge">
<title>Node1&#45;&gt;Node28</title>
<g id="a_edge27_Node000001_Node000028"><a xlink:title=" ">
<path fill="none" stroke="#63b8ff" d="M2913.96,-86.12C3051.37,-86.11 3350.01,-80.96 3598,-41 3601.11,-40.5 3604.28,-39.92 3607.46,-39.28"/>
<polygon fill="#63b8ff" stroke="#63b8ff" points="2913.55,-82.62 2903.55,-86.11 2913.54,-89.62 2913.55,-82.62"/>
</a>
</g>
</g>
<!-- Node29 -->
<g id="Node000029" class="node">
<title>Node29</title>
<g id="a_Node000029"><a xlink:href="planetest_2main_8cc.html" target="_top" xlink:title=" ">
<polygon fill="white" stroke="#666666" points="3877.5,-30 3752.5,-30 3752.5,-11 3877.5,-11 3877.5,-30"/>
<text text-anchor="middle" x="3815" y="-18" font-family="Helvetica,sans-Serif" font-size="10.00">test/planetest/main.cc</text>
</a>
</g>
</g>
<!-- Node1&#45;&gt;Node29 -->
<g id="edge28_Node000001_Node000029" class="edge">
<title>Node1&#45;&gt;Node29</title>
<g id="a_edge28_Node000001_Node000029"><a xlink:title=" ">
<path fill="none" stroke="#63b8ff" d="M2913.64,-83.92C3101.36,-79.64 3584.91,-66.44 3744,-41 3759.27,-38.56 3775.97,-34.07 3789.33,-30.01"/>
<polygon fill="#63b8ff" stroke="#63b8ff" points="2913.5,-80.42 2903.58,-84.14 2913.66,-87.42 2913.5,-80.42"/>
</a>
</g>
</g>
<!-- Node30 -->
<g id="Node000030" class="node">
<title>Node30</title>
<g id="a_Node000030"><a xlink:href="poisson-test_2main_8cc.html" target="_top" xlink:title=" ">
<polygon fill="white" stroke="#666666" points="4036,-30 3896,-30 3896,-11 4036,-11 4036,-30"/>
<text text-anchor="middle" x="3966" y="-18" font-family="Helvetica,sans-Serif" font-size="10.00">test/poisson&#45;test/main.cc</text>
</a>
</g>
</g>
<!-- Node1&#45;&gt;Node30 -->
<g id="edge29_Node000001_Node000030" class="edge">
<title>Node1&#45;&gt;Node30</title>
<g id="a_edge29_Node000001_Node000030"><a xlink:title=" ">
<path fill="none" stroke="#63b8ff" d="M2913.94,-84.25C3122.14,-80.49 3699.02,-67.91 3887,-41 3903.92,-38.58 3922.5,-34.09 3937.38,-30.03"/>
<polygon fill="#63b8ff" stroke="#63b8ff" points="2913.65,-80.75 2903.71,-84.43 2913.77,-87.75 2913.65,-80.75"/>
</a>
</g>
</g>
<!-- Node31 -->
<g id="Node000031" class="node">
<title>Node31</title>
<g id="a_Node000031"><a xlink:href="ray-mpi-test_2main_8cc.html" target="_top" xlink:title=" ">
<polygon fill="white" stroke="#666666" points="4194,-30 4054,-30 4054,-11 4194,-11 4194,-30"/>
<text text-anchor="middle" x="4124" y="-18" font-family="Helvetica,sans-Serif" font-size="10.00">test/ray&#45;mpi&#45;test/main.cc</text>
</a>
</g>
</g>
<!-- Node1&#45;&gt;Node31 -->
<g id="edge30_Node000001_Node000031" class="edge">
<title>Node1&#45;&gt;Node31</title>
<g id="a_edge30_Node000001_Node000031"><a xlink:title=" ">
<path fill="none" stroke="#63b8ff" d="M2914.03,-84.74C3143.22,-82.11 3825.15,-71.85 4045,-41 4061.93,-38.62 4080.5,-34.14 4095.39,-30.07"/>
<polygon fill="#63b8ff" stroke="#63b8ff" points="2913.74,-81.24 2903.78,-84.85 2913.82,-88.24 2913.74,-81.24"/>
</a>
</g>
</g>
<!-- Node32 -->
<g id="Node000032" class="node">
<title>Node32</title>
<g id="a_Node000032"><a xlink:href="ray-test_2main_8cc.html" target="_top" xlink:title=" ">
<polygon fill="white" stroke="#666666" points="4330,-30 4212,-30 4212,-11 4330,-11 4330,-30"/>
<text text-anchor="middle" x="4271" y="-18" font-family="Helvetica,sans-Serif" font-size="10.00">test/ray&#45;test/main.cc</text>
</a>
</g>
</g>
<!-- Node1&#45;&gt;Node32 -->
<g id="edge31_Node000001_Node000032" class="edge">
<title>Node1&#45;&gt;Node32</title>
<g id="a_edge31_Node000001_Node000032"><a xlink:title=" ">
<path fill="none" stroke="#63b8ff" d="M2913.66,-85.49C3162.14,-85.05 3951.61,-80.52 4203,-41 4217.8,-38.67 4233.94,-34.14 4246.78,-30.02"/>
<polygon fill="#63b8ff" stroke="#63b8ff" points="2913.63,-81.99 2903.64,-85.5 2913.65,-88.99 2913.63,-81.99"/>
</a>
</g>
</g>
<!-- Node33 -->
<g id="Node000033" class="node">
<title>Node33</title>
<g id="a_Node000033"><a xlink:href="reduce-test_2main_8cc.html" target="_top" xlink:title=" ">
<polygon fill="white" stroke="#666666" points="4483.5,-30 4348.5,-30 4348.5,-11 4483.5,-11 4483.5,-30"/>
<text text-anchor="middle" x="4416" y="-18" font-family="Helvetica,sans-Serif" font-size="10.00">test/reduce&#45;test/main.cc</text>
</a>
</g>
</g>
<!-- Node1&#45;&gt;Node33 -->
<g id="edge32_Node000001_Node000033" class="edge">
<title>Node1&#45;&gt;Node33</title>
<g id="a_edge32_Node000001_Node000033"><a xlink:title=" ">
<path fill="none" stroke="#63b8ff" d="M2913.83,-85.44C3178.35,-84.88 4059.37,-80.07 4339,-41 4355.66,-38.67 4373.93,-34.13 4388.49,-30.02"/>
<polygon fill="#63b8ff" stroke="#63b8ff" points="2913.55,-81.94 2903.56,-85.46 2913.56,-88.94 2913.55,-81.94"/>
</a>
</g>
</g>
<!-- Node34 -->
<g id="Node000034" class="node">
<title>Node34</title>
<g id="a_Node000034"><a xlink:href="single-precision-test_2main_8cc.html" target="_top" xlink:title=" ">
<polygon fill="white" stroke="#666666" points="4618,-35.5 4502,-35.5 4502,-5.5 4618,-5.5 4618,-35.5"/>
<text text-anchor="start" x="4510" y="-23.5" font-family="Helvetica,sans-Serif" font-size="10.00">test/single&#45;precision</text>
<text text-anchor="middle" x="4560" y="-12.5" font-family="Helvetica,sans-Serif" font-size="10.00">&#45;test/main.cc</text>
</a>
</g>
</g>
<!-- Node1&#45;&gt;Node34 -->
<g id="edge33_Node000001_Node000034" class="edge">
<title>Node1&#45;&gt;Node34</title>
<g id="a_edge33_Node000001_Node000034"><a xlink:title=" ">
<path fill="none" stroke="#63b8ff" d="M2913.59,-84.61C3216.8,-80.87 4336.11,-65.52 4493,-41 4501.14,-39.73 4509.68,-37.76 4517.84,-35.55"/>
<polygon fill="#63b8ff" stroke="#63b8ff" points="2913.53,-81.11 2903.58,-84.73 2913.62,-88.11 2913.53,-81.11"/>
</a>
</g>
</g>
<!-- Node35 -->
<g id="Node000035" class="node">
<title>Node35</title>
<g id="a_Node000035"><a xlink:href="small-grid-test_2main_8cc.html" target="_top" xlink:title=" ">
<polygon fill="white" stroke="#666666" points="4746,-35.5 4636,-35.5 4636,-5.5 4746,-5.5 4746,-35.5"/>
<text text-anchor="start" x="4644" y="-23.5" font-family="Helvetica,sans-Serif" font-size="10.00">test/small&#45;grid&#45;test</text>
<text text-anchor="middle" x="4691" y="-12.5" font-family="Helvetica,sans-Serif" font-size="10.00">/main.cc</text>
</a>
</g>
</g>
<!-- Node1&#45;&gt;Node35 -->
<g id="edge34_Node000001_Node000035" class="edge">
<title>Node1&#45;&gt;Node35</title>
<g id="a_edge34_Node000001_Node000035"><a xlink:title=" ">
<path fill="none" stroke="#63b8ff" d="M2913.56,-84.83C3232.06,-81.82 4456.48,-68.57 4627,-41 4634.8,-39.74 4642.97,-37.77 4650.76,-35.56"/>
<polygon fill="#63b8ff" stroke="#63b8ff" points="2913.48,-81.33 2903.51,-84.92 2913.54,-88.33 2913.48,-81.33"/>
</a>
</g>
</g>
<!-- Node36 -->
<g id="Node000036" class="node">
<title>Node36</title>
<g id="a_Node000036"><a xlink:href="sor-test_2main_8cc.html" target="_top" xlink:title=" ">
<polygon fill="white" stroke="#666666" points="4881.5,-30 4764.5,-30 4764.5,-11 4881.5,-11 4881.5,-30"/>
<text text-anchor="middle" x="4823" y="-18" font-family="Helvetica,sans-Serif" font-size="10.00">test/sor&#45;test/main.cc</text>
</a>
</g>
</g>
<!-- Node1&#45;&gt;Node36 -->
<g id="edge35_Node000001_Node000036" class="edge">
<title>Node1&#45;&gt;Node36</title>
<g id="a_edge35_Node000001_Node000036"><a xlink:title=" ">
<path fill="none" stroke="#63b8ff" d="M2913.69,-84.89C3246.45,-82.04 4571.07,-69.03 4755,-41 4769.81,-38.74 4785.95,-34.21 4798.79,-30.08"/>
<polygon fill="#63b8ff" stroke="#63b8ff" points="2913.64,-81.39 2903.67,-84.97 2913.7,-88.39 2913.64,-81.39"/>
</a>
</g>
</g>
<!-- Node37 -->
<g id="Node000037" class="node">
<title>Node37</title>
<g id="a_Node000037"><a xlink:href="stencil-accesses-fail-test_2main_8cc.html" target="_top" xlink:title=" ">
<polygon fill="white" stroke="#666666" points="5018.5,-35.5 4899.5,-35.5 4899.5,-5.5 5018.5,-5.5 5018.5,-35.5"/>
<text text-anchor="start" x="4907.5" y="-23.5" font-family="Helvetica,sans-Serif" font-size="10.00">test/stencil&#45;accesses</text>
<text text-anchor="middle" x="4959" y="-12.5" font-family="Helvetica,sans-Serif" font-size="10.00">&#45;fail&#45;test/main.cc</text>
</a>
</g>
</g>
<!-- Node1&#45;&gt;Node37 -->
<g id="edge36_Node000001_Node000037" class="edge">
<title>Node1&#45;&gt;Node37</title>
<g id="a_edge36_Node000001_Node000037"><a xlink:title=" ">
<path fill="none" stroke="#63b8ff" d="M2913.84,-85.01C3261.35,-82.62 4693.02,-71.02 4891,-41 4899.26,-39.75 4907.93,-37.79 4916.2,-35.58"/>
<polygon fill="#63b8ff" stroke="#63b8ff" points="2913.61,-81.51 2903.64,-85.08 2913.66,-88.51 2913.61,-81.51"/>
</a>
</g>
</g>
<!-- Node38 -->
<g id="Node000038" class="node">
<title>Node38</title>
<g id="a_Node000038"><a xlink:href="stencil-accesses-ok-test_2main_8cc.html" target="_top" xlink:title=" ">
<polygon fill="white" stroke="#666666" points="5155.5,-35.5 5036.5,-35.5 5036.5,-5.5 5155.5,-5.5 5155.5,-35.5"/>
<text text-anchor="start" x="5044.5" y="-23.5" font-family="Helvetica,sans-Serif" font-size="10.00">test/stencil&#45;accesses</text>
<text text-anchor="middle" x="5096" y="-12.5" font-family="Helvetica,sans-Serif" font-size="10.00">&#45;ok&#45;test/main.cc</text>
</a>
</g>
</g>
<!-- Node1&#45;&gt;Node38 -->
<g id="edge37_Node000001_Node000038" class="edge">
<title>Node1&#45;&gt;Node38</title>
<g id="a_edge37_Node000001_Node000038"><a xlink:title=" ">
<path fill="none" stroke="#63b8ff" d="M2913.83,-85.12C3275.44,-83.17 4815.82,-73.02 5028,-41 5036.26,-39.75 5044.93,-37.79 5053.21,-35.59"/>
<polygon fill="#63b8ff" stroke="#63b8ff" points="2913.72,-81.62 2903.73,-85.18 2913.75,-88.62 2913.72,-81.62"/>
</a>
</g>
</g>
<!-- Node39 -->
<g id="Node000039" class="node">
<title>Node39</title>
<g id="a_Node000039"><a xlink:href="uneven-grid-test_2main_8cc.html" target="_top" xlink:title=" ">
<polygon fill="white" stroke="#666666" points="5292.5,-35.5 5173.5,-35.5 5173.5,-5.5 5292.5,-5.5 5292.5,-35.5"/>
<text text-anchor="start" x="5181.5" y="-23.5" font-family="Helvetica,sans-Serif" font-size="10.00">test/uneven&#45;grid&#45;test</text>
<text text-anchor="middle" x="5233" y="-12.5" font-family="Helvetica,sans-Serif" font-size="10.00">/main.cc</text>
</a>
</g>
</g>
<!-- Node1&#45;&gt;Node39 -->
<g id="edge38_Node000001_Node000039" class="edge">
<title>Node1&#45;&gt;Node39</title>
<g id="a_edge38_Node000001_Node000039"><a xlink:title=" ">
<path fill="none" stroke="#63b8ff" d="M2913.93,-85.22C3289.39,-83.68 4938.61,-75.03 5165,-41 5173.26,-39.76 5181.93,-37.8 5190.21,-35.59"/>
<polygon fill="#63b8ff" stroke="#63b8ff" points="2913.7,-81.72 2903.72,-85.26 2913.73,-88.72 2913.7,-81.72"/>
</a>
</g>
</g>
<!-- Node40 -->
<g id="Node000040" class="node">
<title>Node40</title>
<g id="a_Node000040"><a xlink:href="uneven-sor-test_2main_8cc.html" target="_top" xlink:title=" ">
<polygon fill="white" stroke="#666666" points="5427,-35.5 5311,-35.5 5311,-5.5 5427,-5.5 5427,-35.5"/>
<text text-anchor="start" x="5319" y="-23.5" font-family="Helvetica,sans-Serif" font-size="10.00">test/uneven&#45;sor&#45;test</text>
<text text-anchor="middle" x="5369" y="-12.5" font-family="Helvetica,sans-Serif" font-size="10.00">/main.cc</text>
</a>
</g>
</g>
<!-- Node1&#45;&gt;Node40 -->
<g id="edge39_Node000001_Node000040" class="edge">
<title>Node1&#45;&gt;Node40</title>
<g id="a_edge39_Node000001_Node000040"><a xlink:title=" ">
<path fill="none" stroke="#63b8ff" d="M2913.64,-85.33C3301.83,-84.28 5061.37,-77.53 5302,-41 5310.26,-39.75 5318.94,-37.75 5327.21,-35.51"/>
<polygon fill="#63b8ff" stroke="#63b8ff" points="2913.63,-81.83 2903.64,-85.35 2913.65,-88.83 2913.63,-81.83"/>
</a>
</g>
</g>
<!-- Node41 -->
<g id="Node000041" class="node">
<title>Node41</title>
<g id="a_Node000041"><a xlink:href="use-scalar-reduce_2main_8cc.html" target="_top" xlink:title=" ">
<polygon fill="white" stroke="#666666" points="5570.5,-35.5 5445.5,-35.5 5445.5,-5.5 5570.5,-5.5 5570.5,-35.5"/>
<text text-anchor="start" x="5453.5" y="-23.5" font-family="Helvetica,sans-Serif" font-size="10.00">test/use&#45;scalar&#45;reduce</text>
<text text-anchor="middle" x="5508" y="-12.5" font-family="Helvetica,sans-Serif" font-size="10.00">/main.cc</text>
</a>
</g>
</g>
<!-- Node1&#45;&gt;Node41 -->
<g id="edge40_Node000001_Node000041" class="edge">
<title>Node1&#45;&gt;Node41</title>
<g id="a_edge40_Node000001_Node000041"><a xlink:title=" ">
<path fill="none" stroke="#63b8ff" d="M2913.81,-85.32C3314.93,-84.21 5181.1,-77.13 5436,-41 5444.85,-39.75 5454.16,-37.75 5463.03,-35.51"/>
<polygon fill="#63b8ff" stroke="#63b8ff" points="2913.75,-81.82 2903.76,-85.35 2913.77,-88.82 2913.75,-81.82"/>
</a>
</g>
</g>
<!-- Node42 -->
<g id="Node000042" class="node">
<title>Node42</title>
<g id="a_Node000042"><a xlink:href="variable-dims_2main_8cc.html" target="_top" xlink:title=" ">
<polygon fill="white" stroke="#666666" points="5695,-35.5 5589,-35.5 5589,-5.5 5695,-5.5 5695,-35.5"/>
<text text-anchor="start" x="5597" y="-23.5" font-family="Helvetica,sans-Serif" font-size="10.00">test/variable&#45;dims</text>
<text text-anchor="middle" x="5642" y="-12.5" font-family="Helvetica,sans-Serif" font-size="10.00">/main.cc</text>
</a>
</g>
</g>
<!-- Node1&#45;&gt;Node42 -->
<g id="edge41_Node000001_Node000042" class="edge">
<title>Node1&#45;&gt;Node42</title>
<g id="a_edge41_Node000001_Node000042"><a xlink:title=" ">
<path fill="none" stroke="#63b8ff" d="M2913.64,-85.57C3327.7,-85.8 5310.84,-84.57 5580,-41 5587.69,-39.76 5595.73,-37.77 5603.39,-35.52"/>
<polygon fill="#63b8ff" stroke="#63b8ff" points="2913.58,-82.07 2903.58,-85.57 2913.57,-89.07 2913.58,-82.07"/>
</a>
</g>
</g>
<!-- Node43 -->
<g id="Node000043" class="node">
<title>Node43</title>
<g id="a_Node000043"><a xlink:href="walker-test_2main_8cc.html" target="_top" xlink:title=" ">
<polygon fill="white" stroke="#666666" points="5847,-30 5713,-30 5713,-11 5847,-11 5847,-30"/>
<text text-anchor="middle" x="5780" y="-18" font-family="Helvetica,sans-Serif" font-size="10.00">test/walker&#45;test/main.cc</text>
</a>
</g>
</g>
<!-- Node1&#45;&gt;Node43 -->
<g id="edge42_Node000001_Node000043" class="edge">
<title>Node1&#45;&gt;Node43</title>
<g id="a_edge42_Node000001_Node000043"><a xlink:title=" ">
<path fill="none" stroke="#63b8ff" d="M2913.58,-85.39C3338.49,-84.63 5420.78,-78.99 5704,-41 5720.61,-38.77 5738.8,-34.18 5753.22,-30.02"/>
<polygon fill="#63b8ff" stroke="#63b8ff" points="2913.55,-81.89 2903.56,-85.41 2913.56,-88.89 2913.55,-81.89"/>
</a>
</g>
</g>
</g>
</svg>

<g id="navigator" transform="translate(0 0)" fill="#404254">
  <rect fill="#f2f5e9" fill-opacity="0.5" stroke="#606060" stroke-width=".5" x="0" y="0" width="60" height="60"/>
  <use id="zoomplus" xlink:href="#zoomPlus" x="17" y="9" onmousedown="handleZoom(evt,'in')"/>
  <use id="zoomminus" xlink:href="#zoomMin" x="42" y="9" onmousedown="handleZoom(evt,'out')"/>
  <use id="reset" xlink:href="#resetDef" x="30" y="36" onmousedown="handleReset()"/>
   <use id="arrowup" xlink:href="#arrowUp" x="0" y="0" onmousedown="handlePan(0,-1)"/>
  <use id="arrowright" xlink:href="#arrowRight" x="0" y="0" onmousedown="handlePan(1,0)"/>
  <use id="arrowdown" xlink:href="#arrowDown" x="0" y="0" onmousedown="handlePan(0,1)"/>
  <use id="arrowleft" xlink:href="#arrowLeft" x="0" y="0" onmousedown="handlePan(-1,0)"/>
</g>
<svg viewBox="0 0 15 15" width="100%" height="30px" preserveAspectRatio="xMaxYMin meet">
 <g id="arrow_out" transform="scale(0.3 0.3)">
  <a xlink:href="astaroth__utils_8h__dep__incl_org.svg" target="_base">
   <rect id="button" ry="5" rx="5" y="6" x="6" height="38" width="38"
        fill="#f2f5e9" fill-opacity="0.5" stroke="#606060" stroke-width="1.0"/>
   <path id="arrow"
     d="M 11.500037,31.436501 C 11.940474,20.09759 22.043105,11.32322 32.158766,21.979434 L 37.068811,17.246167 C 37.068811,17.246167 37.088388,32 37.088388,32 L 22.160133,31.978069 C 22.160133,31.978069 26.997745,27.140456 26.997745,27.140456 C 18.528582,18.264221 13.291696,25.230495 11.500037,31.436501 z"
     style="fill:#404040;"/>
  </a>
 </g>
</svg>

<style type='text/css'>
<![CDATA[
[data-mouse-over-selected='false'] { opacity: 0.7; }
[data-mouse-over-selected='true']  { opacity: 1.0; }
]]>
</style>
<script type="application/ecmascript"><![CDATA[
document.addEventListener('DOMContentLoaded', (event) => {
  highlightEdges();
  highlightAdjacentNodes();
});
]]></script>
</svg>
