<?xml version="1.0" encoding="UTF-8" standalone="no"?>
<!DOCTYPE svg PUBLIC "-//W3C//DTD SVG 1.1//EN"
 "http://www.w3.org/Graphics/SVG/1.1/DTD/svg11.dtd">
<!-- Generated by graphviz version 2.43.0 (0)
 -->
<!-- Title: acc&#45;comm/acm/detail/ntuple.h Pages: 1 -->
<svg width="526pt" height="203pt"
 viewBox="0.00 0.00 526.00 203.00" xmlns="http://www.w3.org/2000/svg" xmlns:xlink="http://www.w3.org/1999/xlink">
<g id="graph0" class="graph" transform="scale(1 1) rotate(0) translate(4 199)">
<title>acc&#45;comm/acm/detail/ntuple.h</title>
<!-- Node1 -->
<g id="Node000001" class="node">
<title>Node1</title>
<g id="a_Node000001"><a xlink:title=" ">
<polygon fill="#999999" stroke="#666666" points="272,-195 150,-195 150,-165 272,-165 272,-195"/>
<text text-anchor="start" x="158" y="-183" font-family="Helvetica,sans-Serif" font-size="10.00">acc&#45;comm/acm/detail</text>
<text text-anchor="middle" x="211" y="-172" font-family="Helvetica,sans-Serif" font-size="10.00">/ntuple.h</text>
</a>
</g>
</g>
<!-- Node2 -->
<g id="Node000002" class="node">
<title>Node2</title>
<g id="a_Node000002"><a xlink:title=" ">
<polygon fill="#e0e0e0" stroke="#999999" points="64,-129 0,-129 0,-110 64,-110 64,-129"/>
<text text-anchor="middle" x="32" y="-117" font-family="Helvetica,sans-Serif" font-size="10.00">algorithm</text>
</a>
</g>
</g>
<!-- Node1&#45;&gt;Node2 -->
<g id="edge1_Node000001_Node000002" class="edge">
<title>Node1&#45;&gt;Node2</title>
<g id="a_edge1_Node000001_Node000002"><a xlink:title=" ">
<path fill="none" stroke="#63b8ff" d="M168.13,-164.99C137.5,-154.98 96.77,-141.67 67.87,-132.22"/>
<polygon fill="#63b8ff" stroke="#63b8ff" points="68.77,-128.83 58.17,-129.05 66.59,-135.49 68.77,-128.83"/>
</a>
</g>
</g>
<!-- Node3 -->
<g id="Node000003" class="node">
<title>Node3</title>
<g id="a_Node000003"><a xlink:title=" ">
<polygon fill="#e0e0e0" stroke="#999999" points="129.5,-129 82.5,-129 82.5,-110 129.5,-110 129.5,-129"/>
<text text-anchor="middle" x="106" y="-117" font-family="Helvetica,sans-Serif" font-size="10.00">cmath</text>
</a>
</g>
</g>
<!-- Node1&#45;&gt;Node3 -->
<g id="edge2_Node000001_Node000003" class="edge">
<title>Node1&#45;&gt;Node3</title>
<g id="a_edge2_Node000001_Node000003"><a xlink:title=" ">
<path fill="none" stroke="#63b8ff" d="M185.85,-164.99C169.11,-155.66 147.23,-143.47 130.61,-134.21"/>
<polygon fill="#63b8ff" stroke="#63b8ff" points="131.95,-130.95 121.51,-129.14 128.54,-137.06 131.95,-130.95"/>
</a>
</g>
</g>
<!-- Node4 -->
<g id="Node000004" class="node">
<title>Node4</title>
<g id="a_Node000004"><a xlink:title=" ">
<polygon fill="#e0e0e0" stroke="#999999" points="204.5,-129 147.5,-129 147.5,-110 204.5,-110 204.5,-129"/>
<text text-anchor="middle" x="176" y="-117" font-family="Helvetica,sans-Serif" font-size="10.00">ostream</text>
</a>
</g>
</g>
<!-- Node1&#45;&gt;Node4 -->
<g id="edge3_Node000001_Node000004" class="edge">
<title>Node1&#45;&gt;Node4</title>
<g id="a_edge3_Node000001_Node000004"><a xlink:title=" ">
<path fill="none" stroke="#63b8ff" d="M202.53,-164.84C197.71,-156.78 191.63,-146.62 186.5,-138.06"/>
<polygon fill="#63b8ff" stroke="#63b8ff" points="189.38,-136.05 181.24,-129.27 183.38,-139.64 189.38,-136.05"/>
</a>
</g>
</g>
<!-- Node5 -->
<g id="Node000005" class="node">
<title>Node5</title>
<g id="a_Node000005"><a xlink:title=" ">
<polygon fill="#e0e0e0" stroke="#999999" points="269.5,-129 222.5,-129 222.5,-110 269.5,-110 269.5,-129"/>
<text text-anchor="middle" x="246" y="-117" font-family="Helvetica,sans-Serif" font-size="10.00">vector</text>
</a>
</g>
</g>
<!-- Node1&#45;&gt;Node5 -->
<g id="edge4_Node000001_Node000005" class="edge">
<title>Node1&#45;&gt;Node5</title>
<g id="a_edge4_Node000001_Node000005"><a xlink:title=" ">
<path fill="none" stroke="#63b8ff" d="M219.47,-164.84C224.29,-156.78 230.37,-146.62 235.5,-138.06"/>
<polygon fill="#63b8ff" stroke="#63b8ff" points="238.62,-139.64 240.76,-129.27 232.62,-136.05 238.62,-139.64"/>
</a>
</g>
</g>
<!-- Node6 -->
<g id="Node000006" class="node">
<title>Node6</title>
<g id="a_Node000006"><a xlink:href="cuda__utils_8h.html" target="_top" xlink:title=" ">
<polygon fill="white" stroke="#666666" points="362.5,-129 287.5,-129 287.5,-110 362.5,-110 362.5,-129"/>
<text text-anchor="middle" x="325" y="-117" font-family="Helvetica,sans-Serif" font-size="10.00">cuda_utils.h</text>
</a>
</g>
</g>
<!-- Node1&#45;&gt;Node6 -->
<g id="edge5_Node000001_Node000006" class="edge">
<title>Node1&#45;&gt;Node6</title>
<g id="a_edge5_Node000001_Node000006"><a xlink:title=" ">
<path fill="none" stroke="#63b8ff" d="M238.31,-164.99C256.65,-155.58 280.68,-143.24 298.79,-133.95"/>
<polygon fill="#63b8ff" stroke="#63b8ff" points="300.87,-136.82 308.16,-129.14 297.67,-130.59 300.87,-136.82"/>
</a>
</g>
</g>
<!-- Node7 -->
<g id="Node000007" class="node">
<title>Node7</title>
<g id="a_Node000007"><a xlink:href="acc-comm_2acm_2detail_2errchk_8h.html" target="_top" xlink:title=" ">
<polygon fill="white" stroke="#666666" points="436,-129 380,-129 380,-110 436,-110 436,-129"/>
<text text-anchor="middle" x="408" y="-117" font-family="Helvetica,sans-Serif" font-size="10.00">errchk.h</text>
</a>
</g>
</g>
<!-- Node1&#45;&gt;Node7 -->
<g id="edge6_Node000001_Node000007" class="edge">
<title>Node1&#45;&gt;Node7</title>
<g id="a_edge6_Node000001_Node000007"><a xlink:title=" ">
<path fill="none" stroke="#63b8ff" d="M258.19,-164.99C292.39,-154.83 338.05,-141.27 369.93,-131.8"/>
<polygon fill="#63b8ff" stroke="#63b8ff" points="371.18,-135.09 379.77,-128.88 369.19,-128.37 371.18,-135.09"/>
</a>
</g>
</g>
<!-- Node8 -->
<g id="Node000008" class="node">
<title>Node8</title>
<g id="a_Node000008"><a xlink:title=" ">
<polygon fill="#e0e0e0" stroke="#999999" points="347.5,-74 282.5,-74 282.5,-55 347.5,-55 347.5,-74"/>
<text text-anchor="middle" x="315" y="-62" font-family="Helvetica,sans-Serif" font-size="10.00">stdexcept</text>
</a>
</g>
</g>
<!-- Node7&#45;&gt;Node8 -->
<g id="edge7_Node000007_Node000008" class="edge">
<title>Node7&#45;&gt;Node8</title>
<g id="a_edge7_Node000007_Node000008"><a xlink:title=" ">
<path fill="none" stroke="#63b8ff" d="M393.06,-109.98C378.5,-101.69 356.13,-88.94 339.07,-79.22"/>
<polygon fill="#63b8ff" stroke="#63b8ff" points="340.64,-76.08 330.21,-74.17 337.17,-82.16 340.64,-76.08"/>
</a>
</g>
</g>
<!-- Node9 -->
<g id="Node000009" class="node">
<title>Node9</title>
<g id="a_Node000009"><a xlink:href="errchk__print_8h.html" target="_top" xlink:title=" ">
<polygon fill="white" stroke="#666666" points="450,-74 366,-74 366,-55 450,-55 450,-74"/>
<text text-anchor="middle" x="408" y="-62" font-family="Helvetica,sans-Serif" font-size="10.00">errchk_print.h</text>
</a>
</g>
</g>
<!-- Node7&#45;&gt;Node9 -->
<g id="edge8_Node000007_Node000009" class="edge">
<title>Node7&#45;&gt;Node9</title>
<g id="a_edge8_Node000007_Node000009"><a xlink:title=" ">
<path fill="none" stroke="#63b8ff" d="M408,-109.75C408,-102.8 408,-92.85 408,-84.13"/>
<polygon fill="#63b8ff" stroke="#63b8ff" points="411.5,-84.09 408,-74.09 404.5,-84.09 411.5,-84.09"/>
</a>
</g>
</g>
<!-- Node11 -->
<g id="Node000011" class="node">
<title>Node11</title>
<g id="a_Node000011"><a xlink:title=" ">
<polygon fill="#e0e0e0" stroke="#999999" points="518,-74 468,-74 468,-55 518,-55 518,-74"/>
<text text-anchor="middle" x="493" y="-62" font-family="Helvetica,sans-Serif" font-size="10.00">chrono</text>
</a>
</g>
</g>
<!-- Node7&#45;&gt;Node11 -->
<g id="edge10_Node000007_Node000011" class="edge">
<title>Node7&#45;&gt;Node11</title>
<g id="a_edge10_Node000007_Node000011"><a xlink:title=" ">
<path fill="none" stroke="#63b8ff" d="M421.66,-109.98C434.84,-101.77 455.03,-89.18 470.57,-79.49"/>
<polygon fill="#63b8ff" stroke="#63b8ff" points="472.46,-82.43 479.09,-74.17 468.76,-76.49 472.46,-82.43"/>
</a>
</g>
</g>
<!-- Node10 -->
<g id="Node000010" class="node">
<title>Node10</title>
<g id="a_Node000010"><a xlink:title=" ">
<polygon fill="#e0e0e0" stroke="#999999" points="436,-19 380,-19 380,0 436,0 436,-19"/>
<text text-anchor="middle" x="408" y="-7" font-family="Helvetica,sans-Serif" font-size="10.00">stdarg.h</text>
</a>
</g>
</g>
<!-- Node9&#45;&gt;Node10 -->
<g id="edge9_Node000009_Node000010" class="edge">
<title>Node9&#45;&gt;Node10</title>
<g id="a_edge9_Node000009_Node000010"><a xlink:title=" ">
<path fill="none" stroke="#63b8ff" d="M408,-54.75C408,-47.8 408,-37.85 408,-29.13"/>
<polygon fill="#63b8ff" stroke="#63b8ff" points="411.5,-29.09 408,-19.09 404.5,-29.09 411.5,-29.09"/>
</a>
</g>
</g>
</g>
</svg>
