<?xml version="1.0" encoding="UTF-8" standalone="no"?>
<!DOCTYPE svg PUBLIC "-//W3C//DTD SVG 1.1//EN"
 "http://www.w3.org/Graphics/SVG/1.1/DTD/svg11.dtd">
<!-- Generated by graphviz version 2.43.0 (0)
 -->
<!-- Title: acc&#45;comm/acm/detail/packet.h Pages: 1 -->
<svg width="813pt" height="368pt"
 viewBox="0.00 0.00 812.50 368.00" xmlns="http://www.w3.org/2000/svg" xmlns:xlink="http://www.w3.org/1999/xlink">
<g id="graph0" class="graph" transform="scale(1 1) rotate(0) translate(4 364)">
<title>acc&#45;comm/acm/detail/packet.h</title>
<!-- Node1 -->
<g id="Node000001" class="node">
<title>Node1</title>
<g id="a_Node000001"><a xlink:title=" ">
<polygon fill="#999999" stroke="#666666" points="480.5,-360 358.5,-360 358.5,-330 480.5,-330 480.5,-360"/>
<text text-anchor="start" x="366.5" y="-348" font-family="Helvetica,sans-Serif" font-size="10.00">acc&#45;comm/acm/detail</text>
<text text-anchor="middle" x="419.5" y="-337" font-family="Helvetica,sans-Serif" font-size="10.00">/packet.h</text>
</a>
</g>
</g>
<!-- Node2 -->
<g id="Node000002" class="node">
<title>Node2</title>
<g id="a_Node000002"><a xlink:title=" ">
<polygon fill="#e0e0e0" stroke="#999999" points="505.5,-239 461.5,-239 461.5,-220 505.5,-220 505.5,-239"/>
<text text-anchor="middle" x="483.5" y="-227" font-family="Helvetica,sans-Serif" font-size="10.00">mpi.h</text>
</a>
</g>
</g>
<!-- Node1&#45;&gt;Node2 -->
<g id="edge1_Node000001_Node000002" class="edge">
<title>Node1&#45;&gt;Node2</title>
<g id="a_edge1_Node000001_Node000002"><a xlink:title=" ">
<path fill="none" stroke="#63b8ff" d="M435.63,-329.63C445.22,-320.31 456.95,-307.44 464.5,-294 472.35,-280.03 477.28,-262.48 480.14,-249.37"/>
<polygon fill="#63b8ff" stroke="#63b8ff" points="483.65,-249.68 482.15,-239.19 476.78,-248.32 483.65,-249.68"/>
</a>
</g>
</g>
<!-- Node3 -->
<g id="Node000003" class="node">
<title>Node3</title>
<g id="a_Node000003"><a xlink:href="buffer_8h.html" target="_top" xlink:title=" ">
<polygon fill="white" stroke="#666666" points="194,-294 141,-294 141,-275 194,-275 194,-294"/>
<text text-anchor="middle" x="167.5" y="-282" font-family="Helvetica,sans-Serif" font-size="10.00">buffer.h</text>
</a>
</g>
</g>
<!-- Node1&#45;&gt;Node3 -->
<g id="edge2_Node000001_Node000003" class="edge">
<title>Node1&#45;&gt;Node3</title>
<g id="a_edge2_Node000001_Node000003"><a xlink:title=" ">
<path fill="none" stroke="#63b8ff" d="M359.14,-329.99C310.82,-318.77 244.62,-303.4 204.02,-293.98"/>
<polygon fill="#63b8ff" stroke="#63b8ff" points="204.81,-290.57 194.28,-291.72 203.23,-297.39 204.81,-290.57"/>
</a>
</g>
</g>
<!-- Node17 -->
<g id="Node000017" class="node">
<title>Node17</title>
<g id="a_Node000017"><a xlink:href="errchk__mpi_8h.html" target="_top" xlink:title=" ">
<polygon fill="white" stroke="#666666" points="591.5,-294 511.5,-294 511.5,-275 591.5,-275 591.5,-294"/>
<text text-anchor="middle" x="551.5" y="-282" font-family="Helvetica,sans-Serif" font-size="10.00">errchk_mpi.h</text>
</a>
</g>
</g>
<!-- Node1&#45;&gt;Node17 -->
<g id="edge18_Node000001_Node000017" class="edge">
<title>Node1&#45;&gt;Node17</title>
<g id="a_edge18_Node000001_Node000017"><a xlink:title=" ">
<path fill="none" stroke="#63b8ff" d="M451.12,-329.99C472.85,-320.36 501.47,-307.67 522.59,-298.31"/>
<polygon fill="#63b8ff" stroke="#63b8ff" points="524.28,-301.39 532.01,-294.14 521.45,-294.99 524.28,-301.39"/>
</a>
</g>
</g>
<!-- Node18 -->
<g id="Node000018" class="node">
<title>Node18</title>
<g id="a_Node000018"><a xlink:href="mpi__utils_8h.html" target="_top" xlink:title=" ">
<polygon fill="white" stroke="#666666" points="455,-294 384,-294 384,-275 455,-275 455,-294"/>
<text text-anchor="middle" x="419.5" y="-282" font-family="Helvetica,sans-Serif" font-size="10.00">mpi_utils.h</text>
</a>
</g>
</g>
<!-- Node1&#45;&gt;Node18 -->
<g id="edge21_Node000001_Node000018" class="edge">
<title>Node1&#45;&gt;Node18</title>
<g id="a_edge21_Node000001_Node000018"><a xlink:title=" ">
<path fill="none" stroke="#63b8ff" d="M419.5,-329.84C419.5,-322.21 419.5,-312.7 419.5,-304.45"/>
<polygon fill="#63b8ff" stroke="#63b8ff" points="423,-304.27 419.5,-294.27 416,-304.27 423,-304.27"/>
</a>
</g>
</g>
<!-- Node23 -->
<g id="Node000023" class="node">
<title>Node23</title>
<g id="a_Node000023"><a xlink:href="pack_8h.html" target="_top" xlink:title=" ">
<polygon fill="white" stroke="#666666" points="279,-294 230,-294 230,-275 279,-275 279,-294"/>
<text text-anchor="middle" x="254.5" y="-282" font-family="Helvetica,sans-Serif" font-size="10.00">pack.h</text>
</a>
</g>
</g>
<!-- Node1&#45;&gt;Node23 -->
<g id="edge30_Node000001_Node000023" class="edge">
<title>Node1&#45;&gt;Node23</title>
<g id="a_edge30_Node000001_Node000023"><a xlink:title=" ">
<path fill="none" stroke="#63b8ff" d="M379.98,-329.99C352.08,-320.1 315.09,-306.98 288.5,-297.56"/>
<polygon fill="#63b8ff" stroke="#63b8ff" points="289.46,-294.18 278.87,-294.14 287.12,-300.78 289.46,-294.18"/>
</a>
</g>
</g>
<!-- Node24 -->
<g id="Node000024" class="node">
<title>Node24</title>
<g id="a_Node000024"><a xlink:href="segment_8h.html" target="_top" xlink:title=" ">
<polygon fill="white" stroke="#666666" points="365.5,-294 297.5,-294 297.5,-275 365.5,-275 365.5,-294"/>
<text text-anchor="middle" x="331.5" y="-282" font-family="Helvetica,sans-Serif" font-size="10.00">segment.h</text>
</a>
</g>
</g>
<!-- Node1&#45;&gt;Node24 -->
<g id="edge33_Node000001_Node000024" class="edge">
<title>Node1&#45;&gt;Node24</title>
<g id="a_edge33_Node000001_Node000024"><a xlink:title=" ">
<path fill="none" stroke="#63b8ff" d="M398.2,-329.84C384.43,-320.68 366.57,-308.82 352.8,-299.66"/>
<polygon fill="#63b8ff" stroke="#63b8ff" points="354.69,-296.72 344.43,-294.09 350.82,-302.55 354.69,-296.72"/>
</a>
</g>
</g>
<!-- Node25 -->
<g id="Node000025" class="node">
<title>Node25</title>
<g id="a_Node000025"><a xlink:href="type__conversion_8h.html" target="_top" xlink:title=" ">
<polygon fill="white" stroke="#666666" points="760.5,-239 654.5,-239 654.5,-220 760.5,-220 760.5,-239"/>
<text text-anchor="middle" x="707.5" y="-227" font-family="Helvetica,sans-Serif" font-size="10.00">type_conversion.h</text>
</a>
</g>
</g>
<!-- Node1&#45;&gt;Node25 -->
<g id="edge36_Node000001_Node000025" class="edge">
<title>Node1&#45;&gt;Node25</title>
<g id="a_edge36_Node000001_Node000025"><a xlink:title=" ">
<path fill="none" stroke="#63b8ff" d="M480.79,-331.36C516.5,-322.95 561.96,-310.41 600.5,-294 632.36,-280.44 666.27,-258.96 687.17,-244.8"/>
<polygon fill="#63b8ff" stroke="#63b8ff" points="689.29,-247.6 695.55,-239.05 685.32,-241.83 689.29,-247.6"/>
</a>
</g>
</g>
<!-- Node4 -->
<g id="Node000004" class="node">
<title>Node4</title>
<g id="a_Node000004"><a xlink:title=" ">
<polygon fill="#e0e0e0" stroke="#999999" points="53,-129 0,-129 0,-110 53,-110 53,-129"/>
<text text-anchor="middle" x="26.5" y="-117" font-family="Helvetica,sans-Serif" font-size="10.00">cstddef</text>
</a>
</g>
</g>
<!-- Node3&#45;&gt;Node4 -->
<g id="edge3_Node000003_Node000004" class="edge">
<title>Node3&#45;&gt;Node4</title>
<g id="a_edge3_Node000003_Node000004"><a xlink:title=" ">
<path fill="none" stroke="#63b8ff" d="M140.94,-279.73C113.7,-274.66 71.48,-263.29 43.5,-239 16.83,-215.84 9.86,-200.02 14.5,-165 15.66,-156.27 18.03,-146.83 20.37,-138.9"/>
<polygon fill="#63b8ff" stroke="#63b8ff" points="23.75,-139.82 23.41,-129.23 17.07,-137.72 23.75,-139.82"/>
</a>
</g>
</g>
<!-- Node5 -->
<g id="Node000005" class="node">
<title>Node5</title>
<g id="a_Node000005"><a xlink:title=" ">
<polygon fill="#e0e0e0" stroke="#999999" points="304.5,-239 244.5,-239 244.5,-220 304.5,-220 304.5,-239"/>
<text text-anchor="middle" x="274.5" y="-227" font-family="Helvetica,sans-Serif" font-size="10.00">iostream</text>
</a>
</g>
</g>
<!-- Node3&#45;&gt;Node5 -->
<g id="edge4_Node000003_Node000005" class="edge">
<title>Node3&#45;&gt;Node5</title>
<g id="a_edge4_Node000003_Node000005"><a xlink:title=" ">
<path fill="none" stroke="#63b8ff" d="M184.69,-274.98C201.75,-266.54 228.13,-253.47 247.9,-243.68"/>
<polygon fill="#63b8ff" stroke="#63b8ff" points="249.59,-246.75 257,-239.17 246.48,-240.47 249.59,-246.75"/>
</a>
</g>
</g>
<!-- Node6 -->
<g id="Node000006" class="node">
<title>Node6</title>
<g id="a_Node000006"><a xlink:title=" ">
<polygon fill="#e0e0e0" stroke="#999999" points="110.5,-239 52.5,-239 52.5,-220 110.5,-220 110.5,-239"/>
<text text-anchor="middle" x="81.5" y="-227" font-family="Helvetica,sans-Serif" font-size="10.00">memory</text>
</a>
</g>
</g>
<!-- Node3&#45;&gt;Node6 -->
<g id="edge5_Node000003_Node000006" class="edge">
<title>Node3&#45;&gt;Node6</title>
<g id="a_edge5_Node000003_Node000006"><a xlink:title=" ">
<path fill="none" stroke="#63b8ff" d="M153.68,-274.98C140.35,-266.77 119.92,-254.18 104.19,-244.49"/>
<polygon fill="#63b8ff" stroke="#63b8ff" points="105.92,-241.44 95.57,-239.17 102.25,-247.4 105.92,-241.44"/>
</a>
</g>
</g>
<!-- Node7 -->
<g id="Node000007" class="node">
<title>Node7</title>
<g id="a_Node000007"><a xlink:href="allocator_8h.html" target="_top" xlink:title=" ">
<polygon fill="white" stroke="#666666" points="91.5,-184 23.5,-184 23.5,-165 91.5,-165 91.5,-184"/>
<text text-anchor="middle" x="57.5" y="-172" font-family="Helvetica,sans-Serif" font-size="10.00">allocator.h</text>
</a>
</g>
</g>
<!-- Node3&#45;&gt;Node7 -->
<g id="edge6_Node000003_Node000007" class="edge">
<title>Node3&#45;&gt;Node7</title>
<g id="a_edge6_Node000003_Node000007"><a xlink:title=" ">
<path fill="none" stroke="#63b8ff" d="M162.03,-274.63C153.8,-261.71 137.31,-237.37 119.5,-220 107.79,-208.57 92.94,-197.81 80.72,-189.74"/>
<polygon fill="#63b8ff" stroke="#63b8ff" points="82.28,-186.58 71.97,-184.12 78.49,-192.47 82.28,-186.58"/>
</a>
</g>
</g>
<!-- Node13 -->
<g id="Node000013" class="node">
<title>Node13</title>
<g id="a_Node000013"><a xlink:href="pointer_8h.html" target="_top" xlink:title=" ">
<polygon fill="white" stroke="#666666" points="226,-239 167,-239 167,-220 226,-220 226,-239"/>
<text text-anchor="middle" x="196.5" y="-227" font-family="Helvetica,sans-Serif" font-size="10.00">pointer.h</text>
</a>
</g>
</g>
<!-- Node3&#45;&gt;Node13 -->
<g id="edge13_Node000003_Node000013" class="edge">
<title>Node3&#45;&gt;Node13</title>
<g id="a_edge13_Node000003_Node000013"><a xlink:title=" ">
<path fill="none" stroke="#63b8ff" d="M172.29,-274.75C176.26,-267.49 182.03,-256.95 186.93,-247.98"/>
<polygon fill="#63b8ff" stroke="#63b8ff" points="190.07,-249.54 191.8,-239.09 183.93,-246.18 190.07,-249.54"/>
</a>
</g>
</g>
<!-- Node7&#45;&gt;Node4 -->
<g id="edge7_Node000007_Node000004" class="edge">
<title>Node7&#45;&gt;Node4</title>
<g id="a_edge7_Node000007_Node000004"><a xlink:title=" ">
<path fill="none" stroke="#63b8ff" d="M52.38,-164.75C48.14,-157.49 41.97,-146.95 36.72,-137.98"/>
<polygon fill="#63b8ff" stroke="#63b8ff" points="39.59,-135.95 31.52,-129.09 33.55,-139.49 39.59,-135.95"/>
</a>
</g>
</g>
<!-- Node8 -->
<g id="Node000008" class="node">
<title>Node8</title>
<g id="a_Node000008"><a xlink:href="acc-comm_2acm_2detail_2errchk_8h.html" target="_top" xlink:title=" ">
<polygon fill="white" stroke="#666666" points="635.5,-129 579.5,-129 579.5,-110 635.5,-110 635.5,-129"/>
<text text-anchor="middle" x="607.5" y="-117" font-family="Helvetica,sans-Serif" font-size="10.00">errchk.h</text>
</a>
</g>
</g>
<!-- Node7&#45;&gt;Node8 -->
<g id="edge8_Node000007_Node000008" class="edge">
<title>Node7&#45;&gt;Node8</title>
<g id="a_edge8_Node000007_Node000008"><a xlink:title=" ">
<path fill="none" stroke="#63b8ff" d="M91.71,-166.39C94.68,-165.88 97.64,-165.41 100.5,-165 274.57,-140.23 484.36,-127.08 569.17,-122.45"/>
<polygon fill="#63b8ff" stroke="#63b8ff" points="569.55,-125.94 579.35,-121.91 569.17,-118.95 569.55,-125.94"/>
</a>
</g>
</g>
<!-- Node9 -->
<g id="Node000009" class="node">
<title>Node9</title>
<g id="a_Node000009"><a xlink:title=" ">
<polygon fill="#e0e0e0" stroke="#999999" points="547,-74 482,-74 482,-55 547,-55 547,-74"/>
<text text-anchor="middle" x="514.5" y="-62" font-family="Helvetica,sans-Serif" font-size="10.00">stdexcept</text>
</a>
</g>
</g>
<!-- Node8&#45;&gt;Node9 -->
<g id="edge9_Node000008_Node000009" class="edge">
<title>Node8&#45;&gt;Node9</title>
<g id="a_edge9_Node000008_Node000009"><a xlink:title=" ">
<path fill="none" stroke="#63b8ff" d="M592.56,-109.98C578,-101.69 555.63,-88.94 538.57,-79.22"/>
<polygon fill="#63b8ff" stroke="#63b8ff" points="540.14,-76.08 529.71,-74.17 536.67,-82.16 540.14,-76.08"/>
</a>
</g>
</g>
<!-- Node10 -->
<g id="Node000010" class="node">
<title>Node10</title>
<g id="a_Node000010"><a xlink:href="errchk__print_8h.html" target="_top" xlink:title=" ">
<polygon fill="white" stroke="#666666" points="649.5,-74 565.5,-74 565.5,-55 649.5,-55 649.5,-74"/>
<text text-anchor="middle" x="607.5" y="-62" font-family="Helvetica,sans-Serif" font-size="10.00">errchk_print.h</text>
</a>
</g>
</g>
<!-- Node8&#45;&gt;Node10 -->
<g id="edge10_Node000008_Node000010" class="edge">
<title>Node8&#45;&gt;Node10</title>
<g id="a_edge10_Node000008_Node000010"><a xlink:title=" ">
<path fill="none" stroke="#63b8ff" d="M607.5,-109.75C607.5,-102.8 607.5,-92.85 607.5,-84.13"/>
<polygon fill="#63b8ff" stroke="#63b8ff" points="611,-84.09 607.5,-74.09 604,-84.09 611,-84.09"/>
</a>
</g>
</g>
<!-- Node12 -->
<g id="Node000012" class="node">
<title>Node12</title>
<g id="a_Node000012"><a xlink:title=" ">
<polygon fill="#e0e0e0" stroke="#999999" points="717.5,-74 667.5,-74 667.5,-55 717.5,-55 717.5,-74"/>
<text text-anchor="middle" x="692.5" y="-62" font-family="Helvetica,sans-Serif" font-size="10.00">chrono</text>
</a>
</g>
</g>
<!-- Node8&#45;&gt;Node12 -->
<g id="edge12_Node000008_Node000012" class="edge">
<title>Node8&#45;&gt;Node12</title>
<g id="a_edge12_Node000008_Node000012"><a xlink:title=" ">
<path fill="none" stroke="#63b8ff" d="M621.16,-109.98C634.34,-101.77 654.53,-89.18 670.07,-79.49"/>
<polygon fill="#63b8ff" stroke="#63b8ff" points="671.96,-82.43 678.59,-74.17 668.26,-76.49 671.96,-82.43"/>
</a>
</g>
</g>
<!-- Node11 -->
<g id="Node000011" class="node">
<title>Node11</title>
<g id="a_Node000011"><a xlink:title=" ">
<polygon fill="#e0e0e0" stroke="#999999" points="635.5,-19 579.5,-19 579.5,0 635.5,0 635.5,-19"/>
<text text-anchor="middle" x="607.5" y="-7" font-family="Helvetica,sans-Serif" font-size="10.00">stdarg.h</text>
</a>
</g>
</g>
<!-- Node10&#45;&gt;Node11 -->
<g id="edge11_Node000010_Node000011" class="edge">
<title>Node10&#45;&gt;Node11</title>
<g id="a_edge11_Node000010_Node000011"><a xlink:title=" ">
<path fill="none" stroke="#63b8ff" d="M607.5,-54.75C607.5,-47.8 607.5,-37.85 607.5,-29.13"/>
<polygon fill="#63b8ff" stroke="#63b8ff" points="611,-29.09 607.5,-19.09 604,-29.09 611,-29.09"/>
</a>
</g>
</g>
<!-- Node13&#45;&gt;Node7 -->
<g id="edge16_Node000013_Node000007" class="edge">
<title>Node13&#45;&gt;Node7</title>
<g id="a_edge16_Node000013_Node000007"><a xlink:title=" ">
<path fill="none" stroke="#63b8ff" d="M174.17,-219.98C151.3,-211.27 115.54,-197.63 89.64,-187.75"/>
<polygon fill="#63b8ff" stroke="#63b8ff" points="90.83,-184.46 80.24,-184.17 88.34,-191 90.83,-184.46"/>
</a>
</g>
</g>
<!-- Node14 -->
<g id="Node000014" class="node">
<title>Node14</title>
<g id="a_Node000014"><a xlink:title=" ">
<polygon fill="#e0e0e0" stroke="#999999" points="267.5,-184 203.5,-184 203.5,-165 267.5,-165 267.5,-184"/>
<text text-anchor="middle" x="235.5" y="-172" font-family="Helvetica,sans-Serif" font-size="10.00">algorithm</text>
</a>
</g>
</g>
<!-- Node13&#45;&gt;Node14 -->
<g id="edge14_Node000013_Node000014" class="edge">
<title>Node13&#45;&gt;Node14</title>
<g id="a_edge14_Node000013_Node000014"><a xlink:title=" ">
<path fill="none" stroke="#63b8ff" d="M202.94,-219.75C208.39,-212.34 216.36,-201.5 223.06,-192.41"/>
<polygon fill="#63b8ff" stroke="#63b8ff" points="226.07,-194.22 229.18,-184.09 220.43,-190.07 226.07,-194.22"/>
</a>
</g>
</g>
<!-- Node15 -->
<g id="Node000015" class="node">
<title>Node15</title>
<g id="a_Node000015"><a xlink:title=" ">
<polygon fill="#e0e0e0" stroke="#999999" points="495,-184 426,-184 426,-165 495,-165 495,-184"/>
<text text-anchor="middle" x="460.5" y="-172" font-family="Helvetica,sans-Serif" font-size="10.00">type_traits</text>
</a>
</g>
</g>
<!-- Node13&#45;&gt;Node15 -->
<g id="edge15_Node000013_Node000015" class="edge">
<title>Node13&#45;&gt;Node15</title>
<g id="a_edge15_Node000013_Node000015"><a xlink:title=" ">
<path fill="none" stroke="#63b8ff" d="M226.3,-221.94C229.4,-221.28 232.51,-220.62 235.5,-220 237.72,-219.54 350.81,-197.18 415.79,-184.34"/>
<polygon fill="#63b8ff" stroke="#63b8ff" points="416.65,-187.73 425.78,-182.36 415.29,-180.87 416.65,-187.73"/>
</a>
</g>
</g>
<!-- Node16 -->
<g id="Node000016" class="node">
<title>Node16</title>
<g id="a_Node000016"><a xlink:href="cuda__utils_8h.html" target="_top" xlink:title=" ">
<polygon fill="white" stroke="#666666" points="185,-184 110,-184 110,-165 185,-165 185,-184"/>
<text text-anchor="middle" x="147.5" y="-172" font-family="Helvetica,sans-Serif" font-size="10.00">cuda_utils.h</text>
</a>
</g>
</g>
<!-- Node13&#45;&gt;Node16 -->
<g id="edge17_Node000013_Node000016" class="edge">
<title>Node13&#45;&gt;Node16</title>
<g id="a_edge17_Node000013_Node000016"><a xlink:title=" ">
<path fill="none" stroke="#63b8ff" d="M188.41,-219.75C181.34,-212.11 170.91,-200.82 162.35,-191.56"/>
<polygon fill="#63b8ff" stroke="#63b8ff" points="164.8,-189.06 155.44,-184.09 159.66,-193.81 164.8,-189.06"/>
</a>
</g>
</g>
<!-- Node17&#45;&gt;Node2 -->
<g id="edge20_Node000017_Node000002" class="edge">
<title>Node17&#45;&gt;Node2</title>
<g id="a_edge20_Node000017_Node000002"><a xlink:title=" ">
<path fill="none" stroke="#63b8ff" d="M540.57,-274.98C530.42,-267.07 515.08,-255.11 502.85,-245.58"/>
<polygon fill="#63b8ff" stroke="#63b8ff" points="504.66,-242.56 494.62,-239.17 500.36,-248.08 504.66,-242.56"/>
</a>
</g>
</g>
<!-- Node17&#45;&gt;Node8 -->
<g id="edge19_Node000017_Node000008" class="edge">
<title>Node17&#45;&gt;Node8</title>
<g id="a_edge19_Node000017_Node000008"><a xlink:title=" ">
<path fill="none" stroke="#63b8ff" d="M555.44,-274.86C563.12,-257.78 580.33,-218.35 591.5,-184 596.34,-169.12 600.6,-151.88 603.51,-139.12"/>
<polygon fill="#63b8ff" stroke="#63b8ff" points="606.95,-139.75 605.69,-129.23 600.12,-138.24 606.95,-139.75"/>
</a>
</g>
</g>
<!-- Node18&#45;&gt;Node2 -->
<g id="edge22_Node000018_Node000002" class="edge">
<title>Node18&#45;&gt;Node2</title>
<g id="a_edge22_Node000018_Node000002"><a xlink:title=" ">
<path fill="none" stroke="#63b8ff" d="M429.78,-274.98C439.34,-267.07 453.78,-255.11 465.28,-245.58"/>
<polygon fill="#63b8ff" stroke="#63b8ff" points="467.56,-248.24 473.03,-239.17 463.1,-242.85 467.56,-248.24"/>
</a>
</g>
</g>
<!-- Node19 -->
<g id="Node000019" class="node">
<title>Node19</title>
<g id="a_Node000019"><a xlink:href="ntuple_8h.html" target="_top" xlink:title=" ">
<polygon fill="white" stroke="#666666" points="378.5,-239 322.5,-239 322.5,-220 378.5,-220 378.5,-239"/>
<text text-anchor="middle" x="350.5" y="-227" font-family="Helvetica,sans-Serif" font-size="10.00">ntuple.h</text>
</a>
</g>
</g>
<!-- Node18&#45;&gt;Node19 -->
<g id="edge23_Node000018_Node000019" class="edge">
<title>Node18&#45;&gt;Node19</title>
<g id="a_edge23_Node000018_Node000019"><a xlink:title=" ">
<path fill="none" stroke="#63b8ff" d="M408.41,-274.98C398.01,-267 382.24,-254.88 369.78,-245.31"/>
<polygon fill="#63b8ff" stroke="#63b8ff" points="371.85,-242.49 361.79,-239.17 367.59,-248.04 371.85,-242.49"/>
</a>
</g>
</g>
<!-- Node19&#45;&gt;Node8 -->
<g id="edge29_Node000019_Node000008" class="edge">
<title>Node19&#45;&gt;Node8</title>
<g id="a_edge29_Node000019_Node000008"><a xlink:title=" ">
<path fill="none" stroke="#63b8ff" d="M378.61,-225.63C430.55,-219.87 539.02,-205.58 569.5,-184 585.19,-172.89 595.53,-153.07 601.4,-138.51"/>
<polygon fill="#63b8ff" stroke="#63b8ff" points="604.72,-139.64 604.91,-129.05 598.15,-137.21 604.72,-139.64"/>
</a>
</g>
</g>
<!-- Node19&#45;&gt;Node14 -->
<g id="edge24_Node000019_Node000014" class="edge">
<title>Node19&#45;&gt;Node14</title>
<g id="a_edge24_Node000019_Node000014"><a xlink:title=" ">
<path fill="none" stroke="#63b8ff" d="M332.02,-219.98C313.52,-211.46 284.82,-198.23 263.52,-188.41"/>
<polygon fill="#63b8ff" stroke="#63b8ff" points="264.86,-185.18 254.31,-184.17 261.93,-191.53 264.86,-185.18"/>
</a>
</g>
</g>
<!-- Node19&#45;&gt;Node16 -->
<g id="edge28_Node000019_Node000016" class="edge">
<title>Node19&#45;&gt;Node16</title>
<g id="a_edge28_Node000019_Node000016"><a xlink:title=" ">
<path fill="none" stroke="#63b8ff" d="M322.27,-221.13C287.93,-212.16 229.61,-196.94 189.86,-186.56"/>
<polygon fill="#63b8ff" stroke="#63b8ff" points="190.75,-183.17 180.19,-184.03 188.98,-189.95 190.75,-183.17"/>
</a>
</g>
</g>
<!-- Node20 -->
<g id="Node000020" class="node">
<title>Node20</title>
<g id="a_Node000020"><a xlink:title=" ">
<polygon fill="#e0e0e0" stroke="#999999" points="560,-184 513,-184 513,-165 560,-165 560,-184"/>
<text text-anchor="middle" x="536.5" y="-172" font-family="Helvetica,sans-Serif" font-size="10.00">cmath</text>
</a>
</g>
</g>
<!-- Node19&#45;&gt;Node20 -->
<g id="edge25_Node000019_Node000020" class="edge">
<title>Node19&#45;&gt;Node20</title>
<g id="a_edge25_Node000019_Node000020"><a xlink:title=" ">
<path fill="none" stroke="#63b8ff" d="M378.75,-220.45C412.05,-210.96 467.33,-195.21 502.83,-185.1"/>
<polygon fill="#63b8ff" stroke="#63b8ff" points="504.06,-188.38 512.72,-182.28 502.14,-181.65 504.06,-188.38"/>
</a>
</g>
</g>
<!-- Node21 -->
<g id="Node000021" class="node">
<title>Node21</title>
<g id="a_Node000021"><a xlink:title=" ">
<polygon fill="#e0e0e0" stroke="#999999" points="408,-184 351,-184 351,-165 408,-165 408,-184"/>
<text text-anchor="middle" x="379.5" y="-172" font-family="Helvetica,sans-Serif" font-size="10.00">ostream</text>
</a>
</g>
</g>
<!-- Node19&#45;&gt;Node21 -->
<g id="edge26_Node000019_Node000021" class="edge">
<title>Node19&#45;&gt;Node21</title>
<g id="a_edge26_Node000019_Node000021"><a xlink:title=" ">
<path fill="none" stroke="#63b8ff" d="M355.29,-219.75C359.26,-212.49 365.03,-201.95 369.93,-192.98"/>
<polygon fill="#63b8ff" stroke="#63b8ff" points="373.07,-194.54 374.8,-184.09 366.93,-191.18 373.07,-194.54"/>
</a>
</g>
</g>
<!-- Node22 -->
<g id="Node000022" class="node">
<title>Node22</title>
<g id="a_Node000022"><a xlink:title=" ">
<polygon fill="#e0e0e0" stroke="#999999" points="333,-184 286,-184 286,-165 333,-165 333,-184"/>
<text text-anchor="middle" x="309.5" y="-172" font-family="Helvetica,sans-Serif" font-size="10.00">vector</text>
</a>
</g>
</g>
<!-- Node19&#45;&gt;Node22 -->
<g id="edge27_Node000019_Node000022" class="edge">
<title>Node19&#45;&gt;Node22</title>
<g id="a_edge27_Node000019_Node000022"><a xlink:title=" ">
<path fill="none" stroke="#63b8ff" d="M343.73,-219.75C337.94,-212.26 329.44,-201.28 322.36,-192.13"/>
<polygon fill="#63b8ff" stroke="#63b8ff" points="325.03,-189.86 316.14,-184.09 319.49,-194.14 325.03,-189.86"/>
</a>
</g>
</g>
<!-- Node23&#45;&gt;Node13 -->
<g id="edge32_Node000023_Node000013" class="edge">
<title>Node23&#45;&gt;Node13</title>
<g id="a_edge32_Node000023_Node000013"><a xlink:title=" ">
<path fill="none" stroke="#63b8ff" d="M245.18,-274.98C236.69,-267.23 223.94,-255.58 213.62,-246.14"/>
<polygon fill="#63b8ff" stroke="#63b8ff" points="215.73,-243.33 205.99,-239.17 211.01,-248.5 215.73,-243.33"/>
</a>
</g>
</g>
<!-- Node23&#45;&gt;Node19 -->
<g id="edge31_Node000023_Node000019" class="edge">
<title>Node23&#45;&gt;Node19</title>
<g id="a_edge31_Node000023_Node000019"><a xlink:title=" ">
<path fill="none" stroke="#63b8ff" d="M269.92,-274.98C284.95,-266.69 308.04,-253.94 325.66,-244.22"/>
<polygon fill="#63b8ff" stroke="#63b8ff" points="327.73,-247.07 334.8,-239.17 324.35,-240.94 327.73,-247.07"/>
</a>
</g>
</g>
<!-- Node24&#45;&gt;Node5 -->
<g id="edge34_Node000024_Node000005" class="edge">
<title>Node24&#45;&gt;Node5</title>
<g id="a_edge34_Node000024_Node000005"><a xlink:title=" ">
<path fill="none" stroke="#63b8ff" d="M322.34,-274.98C314,-267.23 301.47,-255.58 291.32,-246.14"/>
<polygon fill="#63b8ff" stroke="#63b8ff" points="293.53,-243.42 283.82,-239.17 288.76,-248.54 293.53,-243.42"/>
</a>
</g>
</g>
<!-- Node24&#45;&gt;Node19 -->
<g id="edge35_Node000024_Node000019" class="edge">
<title>Node24&#45;&gt;Node19</title>
<g id="a_edge35_Node000024_Node000019"><a xlink:title=" ">
<path fill="none" stroke="#63b8ff" d="M334.64,-274.75C337.18,-267.65 340.86,-257.4 344.03,-248.56"/>
<polygon fill="#63b8ff" stroke="#63b8ff" points="347.34,-249.68 347.42,-239.09 340.75,-247.32 347.34,-249.68"/>
</a>
</g>
</g>
<!-- Node25&#45;&gt;Node8 -->
<g id="edge40_Node000025_Node000008" class="edge">
<title>Node25&#45;&gt;Node8</title>
<g id="a_edge40_Node000025_Node000008"><a xlink:title=" ">
<path fill="none" stroke="#63b8ff" d="M699.32,-219.66C682.53,-201.54 643.99,-159.91 622.57,-136.77"/>
<polygon fill="#63b8ff" stroke="#63b8ff" points="624.88,-134.12 615.52,-129.16 619.74,-138.87 624.88,-134.12"/>
</a>
</g>
</g>
<!-- Node25&#45;&gt;Node15 -->
<g id="edge39_Node000025_Node000015" class="edge">
<title>Node25&#45;&gt;Node15</title>
<g id="a_edge39_Node000025_Node000015"><a xlink:title=" ">
<path fill="none" stroke="#63b8ff" d="M667.82,-219.98C623.44,-210.46 551.74,-195.08 505.36,-185.13"/>
<polygon fill="#63b8ff" stroke="#63b8ff" points="505.81,-181.64 495.3,-182.97 504.34,-188.49 505.81,-181.64"/>
</a>
</g>
</g>
<!-- Node26 -->
<g id="Node000026" class="node">
<title>Node26</title>
<g id="a_Node000026"><a xlink:title=" ">
<polygon fill="#e0e0e0" stroke="#999999" points="742.5,-184 692.5,-184 692.5,-165 742.5,-165 742.5,-184"/>
<text text-anchor="middle" x="717.5" y="-172" font-family="Helvetica,sans-Serif" font-size="10.00">cstdint</text>
</a>
</g>
</g>
<!-- Node25&#45;&gt;Node26 -->
<g id="edge37_Node000025_Node000026" class="edge">
<title>Node25&#45;&gt;Node26</title>
<g id="a_edge37_Node000025_Node000026"><a xlink:title=" ">
<path fill="none" stroke="#63b8ff" d="M709.15,-219.75C710.46,-212.8 712.34,-202.85 713.98,-194.13"/>
<polygon fill="#63b8ff" stroke="#63b8ff" points="717.46,-194.56 715.88,-184.09 710.59,-193.27 717.46,-194.56"/>
</a>
</g>
</g>
<!-- Node27 -->
<g id="Node000027" class="node">
<title>Node27</title>
<g id="a_Node000027"><a xlink:title=" ">
<polygon fill="#e0e0e0" stroke="#999999" points="804.5,-184 760.5,-184 760.5,-165 804.5,-165 804.5,-184"/>
<text text-anchor="middle" x="782.5" y="-172" font-family="Helvetica,sans-Serif" font-size="10.00">limits</text>
</a>
</g>
</g>
<!-- Node25&#45;&gt;Node27 -->
<g id="edge38_Node000025_Node000027" class="edge">
<title>Node25&#45;&gt;Node27</title>
<g id="a_edge38_Node000025_Node000027"><a xlink:title=" ">
<path fill="none" stroke="#63b8ff" d="M719.55,-219.98C730.96,-211.92 748.33,-199.65 761.93,-190.03"/>
<polygon fill="#63b8ff" stroke="#63b8ff" points="764.08,-192.8 770.23,-184.17 760.04,-187.08 764.08,-192.8"/>
</a>
</g>
</g>
</g>
</svg>
