<?xml version="1.0" encoding="UTF-8" standalone="no"?>
<!DOCTYPE svg PUBLIC "-//W3C//DTD SVG 1.1//EN"
 "http://www.w3.org/Graphics/SVG/1.1/DTD/svg11.dtd">
<!-- Generated by graphviz version 2.43.0 (0)
 -->
<!-- Title: DeviceConfiguration Pages: 1 -->
<svg width="1183pt" height="385pt"
 viewBox="0.00 0.00 1183.00 385.00" xmlns="http://www.w3.org/2000/svg" xmlns:xlink="http://www.w3.org/1999/xlink">
<g id="graph0" class="graph" transform="scale(1 1) rotate(0) translate(4 381)">
<title>DeviceConfiguration</title>
<!-- Node1 -->
<g id="Node000001" class="node">
<title>Node1</title>
<g id="a_Node000001"><a xlink:title=" ">
<polygon fill="#999999" stroke="#666666" points="1175,-125 1059,-125 1059,-106 1175,-106 1175,-125"/>
<text text-anchor="middle" x="1117" y="-113" font-family="Helvetica,sans-Serif" font-size="10.00">DeviceConfiguration</text>
</a>
</g>
</g>
<!-- Node2 -->
<g id="Node000002" class="node">
<title>Node2</title>
<g id="a_Node000002"><a xlink:href="structdevice__s.html" target="_top" xlink:title=" ">
<polygon fill="white" stroke="#666666" points="982,-224 923,-224 923,-205 982,-205 982,-224"/>
<text text-anchor="middle" x="952.5" y="-212" font-family="Helvetica,sans-Serif" font-size="10.00">device_s</text>
</a>
</g>
</g>
<!-- Node2&#45;&gt;Node1 -->
<g id="edge1_Node000001_Node000002" class="edge">
<title>Node2&#45;&gt;Node1</title>
<g id="a_edge1_Node000001_Node000002"><a xlink:title=" ">
<path fill="none" stroke="#9a32cd" stroke-dasharray="5,2" d="M978.19,-199.46C1012.06,-178.82 1071.96,-142.33 1100.3,-125.07"/>
<polygon fill="#9a32cd" stroke="#9a32cd" points="976.1,-196.64 969.38,-204.83 979.74,-202.61 976.1,-196.64"/>
</a>
</g>
<text text-anchor="middle" x="1020.5" y="-187.5" font-family="Helvetica,sans-Serif" font-size="10.00" fill="grey"> devices</text>
</g>
<!-- Node3 -->
<g id="Node000003" class="node">
<title>Node3</title>
<g id="a_Node000003"><a xlink:href="structAcMeshInfo.html" target="_top" xlink:title=" ">
<polygon fill="white" stroke="#666666" points="800,-261 726,-261 726,-242 800,-242 800,-261"/>
<text text-anchor="middle" x="763" y="-249" font-family="Helvetica,sans-Serif" font-size="10.00">AcMeshInfo</text>
</a>
</g>
</g>
<!-- Node3&#45;&gt;Node2 -->
<g id="edge2_Node000002_Node000003" class="edge">
<title>Node3&#45;&gt;Node2</title>
<g id="a_edge2_Node000002_Node000003"><a xlink:title=" ">
<path fill="none" stroke="#9a32cd" stroke-dasharray="5,2" d="M810.36,-245.5C838.01,-241.53 873.71,-235.73 905,-228.5 910.75,-227.17 916.83,-225.52 922.64,-223.83"/>
<polygon fill="#9a32cd" stroke="#9a32cd" points="809.6,-242.07 800.18,-246.93 810.57,-249 809.6,-242.07"/>
</a>
</g>
<text text-anchor="middle" x="874.5" y="-242.5" font-family="Helvetica,sans-Serif" font-size="10.00" fill="grey"> local_config</text>
</g>
<!-- Node4 -->
<g id="Node000004" class="node">
<title>Node4</title>
<g id="a_Node000004"><a xlink:href="structAcMeshInfoLoaded.html" target="_top" xlink:title=" ">
<polygon fill="white" stroke="#666666" points="538,-261 429,-261 429,-242 538,-242 538,-261"/>
<text text-anchor="middle" x="483.5" y="-249" font-family="Helvetica,sans-Serif" font-size="10.00">AcMeshInfoLoaded</text>
</a>
</g>
</g>
<!-- Node4&#45;&gt;Node3 -->
<g id="edge3_Node000003_Node000004" class="edge">
<title>Node4&#45;&gt;Node3</title>
<g id="a_edge3_Node000003_Node000004"><a xlink:title=" ">
<path fill="none" stroke="#9a32cd" stroke-dasharray="5,2" d="M548.01,-251.5C603.09,-251.5 680.85,-251.5 725.88,-251.5"/>
<polygon fill="#9a32cd" stroke="#9a32cd" points="548,-248 538,-251.5 548,-255 548,-248"/>
</a>
</g>
<text text-anchor="middle" x="626" y="-254.5" font-family="Helvetica,sans-Serif" font-size="10.00" fill="grey"> is_loaded</text>
</g>
<!-- Node5 -->
<g id="Node000005" class="node">
<title>Node5</title>
<g id="a_Node000005"><a xlink:href="structAcCompInfo.html" target="_top" xlink:title=" ">
<polygon fill="white" stroke="#666666" points="521.5,-321 445.5,-321 445.5,-302 521.5,-302 521.5,-321"/>
<text text-anchor="middle" x="483.5" y="-309" font-family="Helvetica,sans-Serif" font-size="10.00">AcCompInfo</text>
</a>
</g>
</g>
<!-- Node5&#45;&gt;Node3 -->
<g id="edge4_Node000003_Node000005" class="edge">
<title>Node5&#45;&gt;Node3</title>
<g id="a_edge4_Node000003_Node000005"><a xlink:title=" ">
<path fill="none" stroke="#9a32cd" stroke-dasharray="5,2" d="M531.48,-301.34C586.43,-289.46 676.22,-270.05 725.96,-259.29"/>
<polygon fill="#9a32cd" stroke="#9a32cd" points="530.67,-297.94 521.64,-303.47 532.15,-304.78 530.67,-297.94"/>
</a>
</g>
<text text-anchor="middle" x="626" y="-294.5" font-family="Helvetica,sans-Serif" font-size="10.00" fill="grey"> run_consts</text>
</g>
<!-- Node6 -->
<g id="Node000006" class="node">
<title>Node6</title>
<g id="a_Node000006"><a xlink:href="structAcCompInfoConfig.html" target="_top" xlink:title=" ">
<polygon fill="white" stroke="#666666" points="260.5,-377 153.5,-377 153.5,-358 260.5,-358 260.5,-377"/>
<text text-anchor="middle" x="207" y="-365" font-family="Helvetica,sans-Serif" font-size="10.00">AcCompInfoConfig</text>
</a>
</g>
</g>
<!-- Node6&#45;&gt;Node5 -->
<g id="edge5_Node000005_Node000006" class="edge">
<title>Node6&#45;&gt;Node5</title>
<g id="a_edge5_Node000005_Node000006"><a xlink:title=" ">
<path fill="none" stroke="#9a32cd" stroke-dasharray="5,2" d="M270.7,-360.34C307.72,-355.5 355.33,-348.21 397,-338.5 417.01,-333.83 439.12,-326.8 455.84,-321.08"/>
<polygon fill="#9a32cd" stroke="#9a32cd" points="270.03,-356.89 260.56,-361.64 270.92,-363.84 270.03,-356.89"/>
</a>
</g>
<text text-anchor="middle" x="350.5" y="-358.5" font-family="Helvetica,sans-Serif" font-size="10.00" fill="grey"> config</text>
</g>
<!-- Node7 -->
<g id="Node000007" class="node">
<title>Node7</title>
<g id="a_Node000007"><a xlink:href="structAcCompInfoLoaded.html" target="_top" xlink:title=" ">
<polygon fill="white" stroke="#666666" points="262.5,-340 151.5,-340 151.5,-321 262.5,-321 262.5,-340"/>
<text text-anchor="middle" x="207" y="-328" font-family="Helvetica,sans-Serif" font-size="10.00">AcCompInfoLoaded</text>
</a>
</g>
</g>
<!-- Node7&#45;&gt;Node5 -->
<g id="edge6_Node000005_Node000007" class="edge">
<title>Node7&#45;&gt;Node5</title>
<g id="a_edge6_Node000005_Node000007"><a xlink:title=" ">
<path fill="none" stroke="#9a32cd" stroke-dasharray="5,2" d="M272.67,-326.02C326.39,-322.31 400.93,-317.15 445.19,-314.08"/>
<polygon fill="#9a32cd" stroke="#9a32cd" points="272.29,-322.54 262.56,-326.72 272.78,-329.52 272.29,-322.54"/>
</a>
</g>
<text text-anchor="middle" x="350.5" y="-326.5" font-family="Helvetica,sans-Serif" font-size="10.00" fill="grey"> is_loaded</text>
</g>
<!-- Node8 -->
<g id="Node000008" class="node">
<title>Node8</title>
<g id="a_Node000008"><a xlink:href="structAcCompInfoHasDefaultValue.html" target="_top" xlink:title=" ">
<polygon fill="white" stroke="#666666" points="286,-303 128,-303 128,-284 286,-284 286,-303"/>
<text text-anchor="middle" x="207" y="-291" font-family="Helvetica,sans-Serif" font-size="10.00">AcCompInfoHasDefaultValue</text>
</a>
</g>
</g>
<!-- Node8&#45;&gt;Node5 -->
<g id="edge7_Node000005_Node000008" class="edge">
<title>Node8&#45;&gt;Node5</title>
<g id="a_edge7_Node000005_Node000008"><a xlink:title=" ">
<path fill="none" stroke="#9a32cd" stroke-dasharray="5,2" d="M296.45,-292.79C328.21,-293.22 364.27,-294.49 397,-297.5 412.88,-298.96 430.26,-301.61 445.19,-304.22"/>
<polygon fill="#9a32cd" stroke="#9a32cd" points="296.34,-289.29 286.3,-292.68 296.26,-296.29 296.34,-289.29"/>
</a>
</g>
<text text-anchor="middle" x="350.5" y="-300.5" font-family="Helvetica,sans-Serif" font-size="10.00" fill="grey"> has_default_value</text>
</g>
<!-- Node9 -->
<g id="Node000009" class="node">
<title>Node9</title>
<g id="a_Node000009"><a xlink:href="structAcInputs.html" target="_top" xlink:title=" ">
<polygon fill="white" stroke="#666666" points="792.5,-224 733.5,-224 733.5,-205 792.5,-205 792.5,-224"/>
<text text-anchor="middle" x="763" y="-212" font-family="Helvetica,sans-Serif" font-size="10.00">AcInputs</text>
</a>
</g>
</g>
<!-- Node9&#45;&gt;Node2 -->
<g id="edge8_Node000002_Node000009" class="edge">
<title>Node9&#45;&gt;Node2</title>
<g id="a_edge8_Node000002_Node000009"><a xlink:title=" ">
<path fill="none" stroke="#9a32cd" stroke-dasharray="5,2" d="M802.96,-214.5C838.71,-214.5 890.84,-214.5 922.89,-214.5"/>
<polygon fill="#9a32cd" stroke="#9a32cd" points="802.89,-211 792.89,-214.5 802.89,-218 802.89,-211"/>
</a>
</g>
<text text-anchor="middle" x="874.5" y="-217.5" font-family="Helvetica,sans-Serif" font-size="10.00" fill="grey"> input</text>
</g>
<!-- Node10 -->
<g id="Node000010" class="node">
<title>Node10</title>
<g id="a_Node000010"><a xlink:href="structVertexBufferArray.html" target="_top" xlink:title=" ">
<polygon fill="white" stroke="#666666" points="815,-187 711,-187 711,-168 815,-168 815,-187"/>
<text text-anchor="middle" x="763" y="-175" font-family="Helvetica,sans-Serif" font-size="10.00">VertexBufferArray</text>
</a>
</g>
</g>
<!-- Node10&#45;&gt;Node2 -->
<g id="edge9_Node000002_Node000010" class="edge">
<title>Node10&#45;&gt;Node2</title>
<g id="a_edge9_Node000002_Node000010"><a xlink:title=" ">
<path fill="none" stroke="#9a32cd" stroke-dasharray="5,2" d="M825.33,-184.93C850.22,-188.5 879.15,-193.36 905,-199.5 911.27,-200.99 917.92,-202.92 924.16,-204.89"/>
<polygon fill="#9a32cd" stroke="#9a32cd" points="825.67,-181.44 815.28,-183.53 824.7,-188.38 825.67,-181.44"/>
</a>
</g>
<text text-anchor="middle" x="874.5" y="-202.5" font-family="Helvetica,sans-Serif" font-size="10.00" fill="grey"> vba</text>
</g>
<!-- Node11 -->
<g id="Node000011" class="node">
<title>Node11</title>
<g id="a_Node000011"><a xlink:href="structAcMeshDims.html" target="_top" xlink:title=" ">
<polygon fill="white" stroke="#666666" points="523.5,-65 443.5,-65 443.5,-46 523.5,-46 523.5,-65"/>
<text text-anchor="middle" x="483.5" y="-53" font-family="Helvetica,sans-Serif" font-size="10.00">AcMeshDims</text>
</a>
</g>
</g>
<!-- Node11&#45;&gt;Node10 -->
<g id="edge10_Node000010_Node000011" class="edge">
<title>Node11&#45;&gt;Node10</title>
<g id="a_edge10_Node000010_Node000011"><a xlink:title=" ">
<path fill="none" stroke="#9a32cd" stroke-dasharray="5,2" d="M533.54,-63.95C574.81,-72.37 634.52,-87.68 682,-112.5 710.55,-127.42 738.5,-153.49 752.58,-167.66"/>
<polygon fill="#9a32cd" stroke="#9a32cd" points="534.21,-60.52 523.72,-62.01 532.85,-67.38 534.21,-60.52"/>
</a>
</g>
<text text-anchor="middle" x="626" y="-137.5" font-family="Helvetica,sans-Serif" font-size="10.00" fill="grey"> computational_dims</text>
<text text-anchor="middle" x="626" y="-126.5" font-family="Helvetica,sans-Serif" font-size="10.00" fill="grey">dims</text>
<text text-anchor="middle" x="626" y="-115.5" font-family="Helvetica,sans-Serif" font-size="10.00" fill="grey">profile_dims</text>
</g>
<!-- Node12 -->
<g id="Node000012" class="node">
<title>Node12</title>
<g id="a_Node000012"><a xlink:href="structVolume.html" target="_top" xlink:title=" ">
<polygon fill="white" stroke="#666666" points="233.5,-28 180.5,-28 180.5,-9 233.5,-9 233.5,-28"/>
<text text-anchor="middle" x="207" y="-16" font-family="Helvetica,sans-Serif" font-size="10.00">Volume</text>
</a>
</g>
</g>
<!-- Node12&#45;&gt;Node11 -->
<g id="edge11_Node000011_Node000012" class="edge">
<title>Node12&#45;&gt;Node11</title>
<g id="a_edge11_Node000011_Node000012"><a xlink:title=" ">
<path fill="none" stroke="#9a32cd" stroke-dasharray="5,2" d="M243.84,-23.33C295.39,-30.28 390.12,-43.05 443.41,-50.23"/>
<polygon fill="#9a32cd" stroke="#9a32cd" points="244.2,-19.85 233.82,-21.98 243.27,-26.79 244.2,-19.85"/>
</a>
</g>
<text text-anchor="middle" x="350.5" y="-113.5" font-family="Helvetica,sans-Serif" font-size="10.00" fill="grey"> m0</text>
<text text-anchor="middle" x="350.5" y="-102.5" font-family="Helvetica,sans-Serif" font-size="10.00" fill="grey">m1</text>
<text text-anchor="middle" x="350.5" y="-91.5" font-family="Helvetica,sans-Serif" font-size="10.00" fill="grey">n0</text>
<text text-anchor="middle" x="350.5" y="-80.5" font-family="Helvetica,sans-Serif" font-size="10.00" fill="grey">n1</text>
<text text-anchor="middle" x="350.5" y="-69.5" font-family="Helvetica,sans-Serif" font-size="10.00" fill="grey">nn</text>
<text text-anchor="start" x="327.5" y="-58.5" font-family="Helvetica,sans-Serif" font-size="10.00" fill="grey">reduction</text>
<text text-anchor="middle" x="350.5" y="-47.5" font-family="Helvetica,sans-Serif" font-size="10.00" fill="grey">_tile</text>
</g>
<!-- Node22 -->
<g id="Node000022" class="node">
<title>Node22</title>
<g id="a_Node000022"><a xlink:href="structGridDims.html" target="_top" xlink:title=" ">
<polygon fill="white" stroke="#666666" points="657,-19 595,-19 595,0 657,0 657,-19"/>
<text text-anchor="middle" x="626" y="-7" font-family="Helvetica,sans-Serif" font-size="10.00">GridDims</text>
</a>
</g>
</g>
<!-- Node12&#45;&gt;Node22 -->
<g id="edge22_Node000022_Node000012" class="edge">
<title>Node12&#45;&gt;Node22</title>
<g id="a_edge22_Node000022_Node000012"><a xlink:title=" ">
<path fill="none" stroke="#9a32cd" stroke-dasharray="5,2" d="M243.67,-12.97C261.7,-10.45 283.96,-7.75 304,-6.5 410.8,0.15 537.96,-4.86 594.87,-7.78"/>
<polygon fill="#9a32cd" stroke="#9a32cd" points="242.99,-9.53 233.59,-14.42 243.99,-16.46 242.99,-9.53"/>
</a>
</g>
<text text-anchor="middle" x="350.5" y="-20.5" font-family="Helvetica,sans-Serif" font-size="10.00" fill="grey"> m</text>
<text text-anchor="middle" x="350.5" y="-9.5" font-family="Helvetica,sans-Serif" font-size="10.00" fill="grey">n</text>
</g>
<!-- Node13 -->
<g id="Node000013" class="node">
<title>Node13</title>
<g id="a_Node000013"><a xlink:href="structDeviceVertexBufferArray.html" target="_top" xlink:title=" ">
<polygon fill="white" stroke="#666666" points="552,-224 415,-224 415,-205 552,-205 552,-224"/>
<text text-anchor="middle" x="483.5" y="-212" font-family="Helvetica,sans-Serif" font-size="10.00">DeviceVertexBufferArray</text>
</a>
</g>
</g>
<!-- Node13&#45;&gt;Node10 -->
<g id="edge12_Node000010_Node000013" class="edge">
<title>Node13&#45;&gt;Node10</title>
<g id="a_edge12_Node000010_Node000013"><a xlink:title=" ">
<path fill="none" stroke="#9a32cd" stroke-dasharray="5,2" d="M562.33,-206.48C598.74,-202.46 642.66,-197.23 682,-191.5 691.35,-190.14 701.28,-188.53 710.86,-186.9"/>
<polygon fill="#9a32cd" stroke="#9a32cd" points="561.83,-203.01 552.27,-207.58 562.59,-209.97 561.83,-203.01"/>
</a>
</g>
<text text-anchor="middle" x="626" y="-207.5" font-family="Helvetica,sans-Serif" font-size="10.00" fill="grey"> on_device</text>
</g>
<!-- Node14 -->
<g id="Node000014" class="node">
<title>Node14</title>
<g id="a_Node000014"><a xlink:href="structAcComplex.html" target="_top" xlink:title=" ">
<polygon fill="white" stroke="#666666" points="243,-266 171,-266 171,-247 243,-247 243,-266"/>
<text text-anchor="middle" x="207" y="-254" font-family="Helvetica,sans-Serif" font-size="10.00">AcComplex</text>
</a>
</g>
</g>
<!-- Node14&#45;&gt;Node13 -->
<g id="edge13_Node000013_Node000014" class="edge">
<title>Node14&#45;&gt;Node13</title>
<g id="a_edge13_Node000013_Node000014"><a xlink:title=" ">
<path fill="none" stroke="#9a32cd" stroke-dasharray="5,2" d="M253.64,-251.76C292.01,-247.52 348.26,-240.71 397,-232.5 411.21,-230.11 426.65,-227.01 440.45,-224.06"/>
<polygon fill="#9a32cd" stroke="#9a32cd" points="252.87,-248.32 243.31,-252.88 253.63,-255.28 252.87,-248.32"/>
</a>
</g>
<text text-anchor="middle" x="350.5" y="-248.5" font-family="Helvetica,sans-Serif" font-size="10.00" fill="grey"> complex_in</text>
</g>
<!-- Node15 -->
<g id="Node000015" class="node">
<title>Node15</title>
<g id="a_Node000015"><a xlink:href="structProfileBufferArray.html" target="_top" xlink:title=" ">
<polygon fill="white" stroke="#666666" points="258.5,-229 155.5,-229 155.5,-210 258.5,-210 258.5,-229"/>
<text text-anchor="middle" x="207" y="-217" font-family="Helvetica,sans-Serif" font-size="10.00">ProfileBufferArray</text>
</a>
</g>
</g>
<!-- Node15&#45;&gt;Node13 -->
<g id="edge14_Node000013_Node000015" class="edge">
<title>Node15&#45;&gt;Node13</title>
<g id="a_edge14_Node000013_Node000015"><a xlink:title=" ">
<path fill="none" stroke="#9a32cd" stroke-dasharray="5,2" d="M268.76,-218.39C311.99,-217.61 370.08,-216.55 414.79,-215.73"/>
<polygon fill="#9a32cd" stroke="#9a32cd" points="268.6,-214.9 258.67,-218.58 268.73,-221.89 268.6,-214.9"/>
</a>
</g>
<text text-anchor="middle" x="350.5" y="-220.5" font-family="Helvetica,sans-Serif" font-size="10.00" fill="grey"> profiles</text>
</g>
<!-- Node16 -->
<g id="Node000016" class="node">
<title>Node16</title>
<g id="a_Node000016"><a xlink:href="structint3.html" target="_top" xlink:title=" ">
<polygon fill="white" stroke="#666666" points="224.5,-192 189.5,-192 189.5,-173 224.5,-173 224.5,-192"/>
<text text-anchor="middle" x="207" y="-180" font-family="Helvetica,sans-Serif" font-size="10.00">int3</text>
</a>
</g>
</g>
<!-- Node16&#45;&gt;Node13 -->
<g id="edge15_Node000013_Node000016" class="edge">
<title>Node16&#45;&gt;Node13</title>
<g id="a_edge15_Node000013_Node000016"><a xlink:title=" ">
<path fill="none" stroke="#9a32cd" stroke-dasharray="5,2" d="M235.1,-184.5C271.85,-187.35 339.53,-193.07 397,-200.5 406.99,-201.79 417.61,-203.37 427.85,-204.99"/>
<polygon fill="#9a32cd" stroke="#9a32cd" points="234.97,-180.98 224.73,-183.71 234.43,-187.96 234.97,-180.98"/>
</a>
</g>
<text text-anchor="middle" x="350.5" y="-203.5" font-family="Helvetica,sans-Serif" font-size="10.00" fill="grey"> block_factor</text>
</g>
<!-- Node17 -->
<g id="Node000017" class="node">
<title>Node17</title>
<g id="a_Node000017"><a xlink:href="structAcScratchpadStates.html" target="_top" xlink:title=" ">
<polygon fill="white" stroke="#666666" points="540,-187 427,-187 427,-168 540,-168 540,-187"/>
<text text-anchor="middle" x="483.5" y="-175" font-family="Helvetica,sans-Serif" font-size="10.00">AcScratchpadStates</text>
</a>
</g>
</g>
<!-- Node17&#45;&gt;Node10 -->
<g id="edge16_Node000010_Node000017" class="edge">
<title>Node17&#45;&gt;Node10</title>
<g id="a_edge16_Node000010_Node000017"><a xlink:title=" ">
<path fill="none" stroke="#9a32cd" stroke-dasharray="5,2" d="M550.54,-177.5C599.69,-177.5 665.81,-177.5 710.94,-177.5"/>
<polygon fill="#9a32cd" stroke="#9a32cd" points="550.32,-174 540.32,-177.5 550.32,-181 550.32,-174"/>
</a>
</g>
<text text-anchor="middle" x="626" y="-180.5" font-family="Helvetica,sans-Serif" font-size="10.00" fill="grey"> scratchpad_states</text>
</g>
<!-- Node18 -->
<g id="Node000018" class="node">
<title>Node18</title>
<g id="a_Node000018"><a xlink:href="structAcReduceBuffer.html" target="_top" xlink:title=" ">
<polygon fill="white" stroke="#666666" points="530.5,-150 436.5,-150 436.5,-131 530.5,-131 530.5,-150"/>
<text text-anchor="middle" x="483.5" y="-138" font-family="Helvetica,sans-Serif" font-size="10.00">AcReduceBuffer</text>
</a>
</g>
</g>
<!-- Node18&#45;&gt;Node10 -->
<g id="edge17_Node000010_Node000018" class="edge">
<title>Node18&#45;&gt;Node10</title>
<g id="a_edge17_Node000010_Node000018"><a xlink:title=" ">
<path fill="none" stroke="#9a32cd" stroke-dasharray="5,2" d="M540.52,-145.62C580.13,-149.51 634.44,-155.4 682,-162.5 692.48,-164.06 703.69,-166 714.3,-167.95"/>
<polygon fill="#9a32cd" stroke="#9a32cd" points="540.81,-142.13 530.52,-144.65 540.13,-149.1 540.81,-142.13"/>
</a>
</g>
<text text-anchor="middle" x="626" y="-165.5" font-family="Helvetica,sans-Serif" font-size="10.00" fill="grey"> profile_reduce_buffers</text>
</g>
<!-- Node19 -->
<g id="Node000019" class="node">
<title>Node19</title>
<g id="a_Node000019"><a xlink:href="structAcBuffer.html" target="_top" xlink:title=" ">
<polygon fill="white" stroke="#666666" points="236,-150 178,-150 178,-131 236,-131 236,-150"/>
<text text-anchor="middle" x="207" y="-138" font-family="Helvetica,sans-Serif" font-size="10.00">AcBuffer</text>
</a>
</g>
</g>
<!-- Node19&#45;&gt;Node18 -->
<g id="edge18_Node000018_Node000019" class="edge">
<title>Node19&#45;&gt;Node18</title>
<g id="a_edge18_Node000018_Node000019"><a xlink:title=" ">
<path fill="none" stroke="#9a32cd" stroke-dasharray="5,2" d="M246.12,-140.5C295.93,-140.5 383.08,-140.5 436.5,-140.5"/>
<polygon fill="#9a32cd" stroke="#9a32cd" points="246.09,-137 236.09,-140.5 246.09,-144 246.09,-137"/>
</a>
</g>
<text text-anchor="middle" x="350.5" y="-154.5" font-family="Helvetica,sans-Serif" font-size="10.00" fill="grey"> src</text>
<text text-anchor="middle" x="350.5" y="-143.5" font-family="Helvetica,sans-Serif" font-size="10.00" fill="grey">transposed</text>
</g>
<!-- Node20 -->
<g id="Node000020" class="node">
<title>Node20</title>
<g id="a_Node000020"><a xlink:href="structAcShape.html" target="_top" xlink:title=" ">
<polygon fill="white" stroke="#666666" points="59,-150 0,-150 0,-131 59,-131 59,-150"/>
<text text-anchor="middle" x="29.5" y="-138" font-family="Helvetica,sans-Serif" font-size="10.00">AcShape</text>
</a>
</g>
</g>
<!-- Node20&#45;&gt;Node19 -->
<g id="edge19_Node000019_Node000020" class="edge">
<title>Node20&#45;&gt;Node19</title>
<g id="a_edge19_Node000019_Node000020"><a xlink:title=" ">
<path fill="none" stroke="#9a32cd" stroke-dasharray="5,2" d="M69.23,-140.5C102.03,-140.5 148.29,-140.5 177.72,-140.5"/>
<polygon fill="#9a32cd" stroke="#9a32cd" points="69.09,-137 59.09,-140.5 69.09,-144 69.09,-137"/>
</a>
</g>
<text text-anchor="middle" x="93.5" y="-143.5" font-family="Helvetica,sans-Serif" font-size="10.00" fill="grey"> shape</text>
</g>
<!-- Node21 -->
<g id="Node000021" class="node">
<title>Node21</title>
<g id="a_Node000021"><a xlink:href="structAcDeviceKernelOutput.html" target="_top" xlink:title=" ">
<polygon fill="white" stroke="#666666" points="826,-298 700,-298 700,-279 826,-279 826,-298"/>
<text text-anchor="middle" x="763" y="-286" font-family="Helvetica,sans-Serif" font-size="10.00">AcDeviceKernelOutput</text>
</a>
</g>
</g>
<!-- Node21&#45;&gt;Node2 -->
<g id="edge20_Node000002_Node000021" class="edge">
<title>Node21&#45;&gt;Node2</title>
<g id="a_edge20_Node000002_Node000021"><a xlink:title=" ">
<path fill="none" stroke="#9a32cd" stroke-dasharray="5,2" d="M836.25,-277.94C859.06,-272.83 883.82,-265.35 905,-254.5 919.97,-246.83 934.18,-233.39 942.86,-224.22"/>
<polygon fill="#9a32cd" stroke="#9a32cd" points="835.33,-274.55 826.27,-280.05 836.78,-281.4 835.33,-274.55"/>
</a>
</g>
<text text-anchor="middle" x="874.5" y="-278.5" font-family="Helvetica,sans-Serif" font-size="10.00" fill="grey"> output</text>
</g>
<!-- Node22&#45;&gt;Node1 -->
<g id="edge21_Node000001_Node000022" class="edge">
<title>Node22&#45;&gt;Node1</title>
<g id="a_edge21_Node000001_Node000022"><a xlink:title=" ">
<path fill="none" stroke="#9a32cd" stroke-dasharray="5,2" d="M667.11,-18.19C757.77,-37.85 977.89,-85.56 1072.07,-105.98"/>
<polygon fill="#9a32cd" stroke="#9a32cd" points="667.73,-14.75 657.22,-16.05 666.25,-21.59 667.73,-14.75"/>
</a>
</g>
<text text-anchor="middle" x="874.5" y="-84.5" font-family="Helvetica,sans-Serif" font-size="10.00" fill="grey"> grid</text>
<text text-anchor="middle" x="874.5" y="-73.5" font-family="Helvetica,sans-Serif" font-size="10.00" fill="grey">subgrid</text>
</g>
</g>
</svg>
