<?xml version="1.0" encoding="UTF-8" standalone="no"?>
<!DOCTYPE svg PUBLIC "-//W3C//DTD SVG 1.1//EN"
 "http://www.w3.org/Graphics/SVG/1.1/DTD/svg11.dtd">
<!-- Generated by graphviz version 2.43.0 (0)
 -->
<!-- Title: acc&#45;comm/tests/acm/detail/test_ndbuffer.cc Pages: 1 -->
<svg width="888pt" height="423pt"
 viewBox="0.00 0.00 887.50 423.00" xmlns="http://www.w3.org/2000/svg" xmlns:xlink="http://www.w3.org/1999/xlink">
<g id="graph0" class="graph" transform="scale(1 1) rotate(0) translate(4 419)">
<title>acc&#45;comm/tests/acm/detail/test_ndbuffer.cc</title>
<!-- Node1 -->
<g id="Node000001" class="node">
<title>Node1</title>
<g id="a_Node000001"><a xlink:title=" ">
<polygon fill="#999999" stroke="#666666" points="141.5,-415 13.5,-415 13.5,-385 141.5,-385 141.5,-415"/>
<text text-anchor="start" x="21.5" y="-403" font-family="Helvetica,sans-Serif" font-size="10.00">acc&#45;comm/tests/acm</text>
<text text-anchor="middle" x="77.5" y="-392" font-family="Helvetica,sans-Serif" font-size="10.00">/detail/test_ndbuffer.cc</text>
</a>
</g>
</g>
<!-- Node2 -->
<g id="Node000002" class="node">
<title>Node2</title>
<g id="a_Node000002"><a xlink:title=" ">
<polygon fill="#e0e0e0" stroke="#999999" points="49,-349 0,-349 0,-330 49,-330 49,-349"/>
<text text-anchor="middle" x="24.5" y="-337" font-family="Helvetica,sans-Serif" font-size="10.00">cstdlib</text>
</a>
</g>
</g>
<!-- Node1&#45;&gt;Node2 -->
<g id="edge1_Node000001_Node000002" class="edge">
<title>Node1&#45;&gt;Node2</title>
<g id="a_edge1_Node000001_Node000002"><a xlink:title=" ">
<path fill="none" stroke="#63b8ff" d="M64.67,-384.84C56.98,-376.35 47.17,-365.52 39.17,-356.69"/>
<polygon fill="#63b8ff" stroke="#63b8ff" points="41.75,-354.33 32.44,-349.27 36.56,-359.03 41.75,-354.33"/>
</a>
</g>
</g>
<!-- Node3 -->
<g id="Node000003" class="node">
<title>Node3</title>
<g id="a_Node000003"><a xlink:title=" ">
<polygon fill="#e0e0e0" stroke="#999999" points="79.5,-184 23.5,-184 23.5,-165 79.5,-165 79.5,-184"/>
<text text-anchor="middle" x="51.5" y="-172" font-family="Helvetica,sans-Serif" font-size="10.00">numeric</text>
</a>
</g>
</g>
<!-- Node1&#45;&gt;Node3 -->
<g id="edge2_Node000001_Node000003" class="edge">
<title>Node1&#45;&gt;Node3</title>
<g id="a_edge2_Node000001_Node000003"><a xlink:title=" ">
<path fill="none" stroke="#63b8ff" d="M75.83,-384.68C71.31,-345.76 58.78,-238.07 53.69,-194.33"/>
<polygon fill="#63b8ff" stroke="#63b8ff" points="57.15,-193.76 52.52,-184.23 50.19,-194.57 57.15,-193.76"/>
</a>
</g>
</g>
<!-- Node4 -->
<g id="Node000004" class="node">
<title>Node4</title>
<g id="a_Node000004"><a xlink:href="ndbuffer_8h.html" target="_top" xlink:title=" ">
<polygon fill="white" stroke="#666666" points="465.5,-349 345.5,-349 345.5,-330 465.5,-330 465.5,-349"/>
<text text-anchor="middle" x="405.5" y="-337" font-family="Helvetica,sans-Serif" font-size="10.00">acm/detail/ndbuffer.h</text>
</a>
</g>
</g>
<!-- Node1&#45;&gt;Node4 -->
<g id="edge3_Node000001_Node000004" class="edge">
<title>Node1&#45;&gt;Node4</title>
<g id="a_edge3_Node000001_Node000004"><a xlink:title=" ">
<path fill="none" stroke="#63b8ff" d="M141.52,-387.58C201.32,-376.92 289.79,-361.14 347.55,-350.84"/>
<polygon fill="#63b8ff" stroke="#63b8ff" points="348.37,-354.24 357.6,-349.04 347.14,-347.35 348.37,-354.24"/>
</a>
</g>
</g>
<!-- Node5 -->
<g id="Node000005" class="node">
<title>Node5</title>
<g id="a_Node000005"><a xlink:title=" ">
<polygon fill="#e0e0e0" stroke="#999999" points="506.5,-294 450.5,-294 450.5,-275 506.5,-275 506.5,-294"/>
<text text-anchor="middle" x="478.5" y="-282" font-family="Helvetica,sans-Serif" font-size="10.00">iomanip</text>
</a>
</g>
</g>
<!-- Node4&#45;&gt;Node5 -->
<g id="edge4_Node000004_Node000005" class="edge">
<title>Node4&#45;&gt;Node5</title>
<g id="a_edge4_Node000004_Node000005"><a xlink:title=" ">
<path fill="none" stroke="#63b8ff" d="M417.23,-329.98C428.23,-322 444.92,-309.88 458.1,-300.31"/>
<polygon fill="#63b8ff" stroke="#63b8ff" points="460.52,-302.88 466.56,-294.17 456.41,-297.21 460.52,-302.88"/>
</a>
</g>
</g>
<!-- Node6 -->
<g id="Node000006" class="node">
<title>Node6</title>
<g id="a_Node000006"><a xlink:href="buffer_8h.html" target="_top" xlink:title=" ">
<polygon fill="white" stroke="#666666" points="432,-294 379,-294 379,-275 432,-275 432,-294"/>
<text text-anchor="middle" x="405.5" y="-282" font-family="Helvetica,sans-Serif" font-size="10.00">buffer.h</text>
</a>
</g>
</g>
<!-- Node4&#45;&gt;Node6 -->
<g id="edge5_Node000004_Node000006" class="edge">
<title>Node4&#45;&gt;Node6</title>
<g id="a_edge5_Node000004_Node000006"><a xlink:title=" ">
<path fill="none" stroke="#63b8ff" d="M405.5,-329.75C405.5,-322.8 405.5,-312.85 405.5,-304.13"/>
<polygon fill="#63b8ff" stroke="#63b8ff" points="409,-304.09 405.5,-294.09 402,-304.09 409,-304.09"/>
</a>
</g>
</g>
<!-- Node20 -->
<g id="Node000020" class="node">
<title>Node20</title>
<g id="a_Node000020"><a xlink:href="acc-comm_2acm_2detail_2math__utils_8h.html" target="_top" xlink:title=" ">
<polygon fill="white" stroke="#666666" points="235,-239 158,-239 158,-220 235,-220 235,-239"/>
<text text-anchor="middle" x="196.5" y="-227" font-family="Helvetica,sans-Serif" font-size="10.00">math_utils.h</text>
</a>
</g>
</g>
<!-- Node4&#45;&gt;Node20 -->
<g id="edge21_Node000004_Node000020" class="edge">
<title>Node4&#45;&gt;Node20</title>
<g id="a_edge21_Node000004_Node000020"><a xlink:title=" ">
<path fill="none" stroke="#63b8ff" d="M388.75,-329.84C352.28,-311 265.48,-266.14 222.1,-243.73"/>
<polygon fill="#63b8ff" stroke="#63b8ff" points="223.53,-240.53 213.04,-239.05 220.32,-246.75 223.53,-240.53"/>
</a>
</g>
</g>
<!-- Node24 -->
<g id="Node000024" class="node">
<title>Node24</title>
<g id="a_Node000024"><a xlink:href="ntuple_8h.html" target="_top" xlink:title=" ">
<polygon fill="white" stroke="#666666" points="579.5,-239 523.5,-239 523.5,-220 579.5,-220 579.5,-239"/>
<text text-anchor="middle" x="551.5" y="-227" font-family="Helvetica,sans-Serif" font-size="10.00">ntuple.h</text>
</a>
</g>
</g>
<!-- Node4&#45;&gt;Node24 -->
<g id="edge27_Node000004_Node000024" class="edge">
<title>Node4&#45;&gt;Node24</title>
<g id="a_edge27_Node000004_Node000024"><a xlink:title=" ">
<path fill="none" stroke="#63b8ff" d="M443.27,-329.99C466.23,-323.28 494.97,-311.99 515.5,-294 529.47,-281.75 539.25,-262.7 545.05,-248.66"/>
<polygon fill="#63b8ff" stroke="#63b8ff" points="548.41,-249.69 548.72,-239.1 541.87,-247.18 548.41,-249.69"/>
</a>
</g>
</g>
<!-- Node7 -->
<g id="Node000007" class="node">
<title>Node7</title>
<g id="a_Node000007"><a xlink:title=" ">
<polygon fill="#e0e0e0" stroke="#999999" points="368,-129 315,-129 315,-110 368,-110 368,-129"/>
<text text-anchor="middle" x="341.5" y="-117" font-family="Helvetica,sans-Serif" font-size="10.00">cstddef</text>
</a>
</g>
</g>
<!-- Node6&#45;&gt;Node7 -->
<g id="edge6_Node000006_Node000007" class="edge">
<title>Node6&#45;&gt;Node7</title>
<g id="a_edge6_Node000006_Node000007"><a xlink:title=" ">
<path fill="none" stroke="#63b8ff" d="M393.04,-274.79C382.57,-266.76 368.14,-253.85 360.5,-239 343.88,-206.69 341.09,-163.41 341,-139.1"/>
<polygon fill="#63b8ff" stroke="#63b8ff" points="344.5,-139.14 341.11,-129.1 337.5,-139.06 344.5,-139.14"/>
</a>
</g>
</g>
<!-- Node8 -->
<g id="Node000008" class="node">
<title>Node8</title>
<g id="a_Node000008"><a xlink:title=" ">
<polygon fill="#e0e0e0" stroke="#999999" points="429.5,-239 369.5,-239 369.5,-220 429.5,-220 429.5,-239"/>
<text text-anchor="middle" x="399.5" y="-227" font-family="Helvetica,sans-Serif" font-size="10.00">iostream</text>
</a>
</g>
</g>
<!-- Node6&#45;&gt;Node8 -->
<g id="edge7_Node000006_Node000008" class="edge">
<title>Node6&#45;&gt;Node8</title>
<g id="a_edge7_Node000006_Node000008"><a xlink:title=" ">
<path fill="none" stroke="#63b8ff" d="M404.51,-274.75C403.72,-267.8 402.6,-257.85 401.61,-249.13"/>
<polygon fill="#63b8ff" stroke="#63b8ff" points="405.08,-248.63 400.47,-239.09 398.12,-249.42 405.08,-248.63"/>
</a>
</g>
</g>
<!-- Node9 -->
<g id="Node000009" class="node">
<title>Node9</title>
<g id="a_Node000009"><a xlink:title=" ">
<polygon fill="#e0e0e0" stroke="#999999" points="505.5,-239 447.5,-239 447.5,-220 505.5,-220 505.5,-239"/>
<text text-anchor="middle" x="476.5" y="-227" font-family="Helvetica,sans-Serif" font-size="10.00">memory</text>
</a>
</g>
</g>
<!-- Node6&#45;&gt;Node9 -->
<g id="edge8_Node000006_Node000009" class="edge">
<title>Node6&#45;&gt;Node9</title>
<g id="a_edge8_Node000006_Node000009"><a xlink:title=" ">
<path fill="none" stroke="#63b8ff" d="M416.91,-274.98C427.61,-267 443.84,-254.88 456.66,-245.31"/>
<polygon fill="#63b8ff" stroke="#63b8ff" points="458.97,-247.96 464.89,-239.17 454.78,-242.35 458.97,-247.96"/>
</a>
</g>
</g>
<!-- Node10 -->
<g id="Node000010" class="node">
<title>Node10</title>
<g id="a_Node000010"><a xlink:href="allocator_8h.html" target="_top" xlink:title=" ">
<polygon fill="white" stroke="#666666" points="879.5,-184 811.5,-184 811.5,-165 879.5,-165 879.5,-184"/>
<text text-anchor="middle" x="845.5" y="-172" font-family="Helvetica,sans-Serif" font-size="10.00">allocator.h</text>
</a>
</g>
</g>
<!-- Node6&#45;&gt;Node10 -->
<g id="edge9_Node000006_Node000010" class="edge">
<title>Node6&#45;&gt;Node10</title>
<g id="a_edge9_Node000006_Node000010"><a xlink:title=" ">
<path fill="none" stroke="#63b8ff" d="M432.18,-276.9C435.31,-276.21 438.47,-275.56 441.5,-275 558.8,-253.27 592.94,-272.3 707.5,-239 749.45,-226.81 794.9,-203.8 821.74,-189.09"/>
<polygon fill="#63b8ff" stroke="#63b8ff" points="823.72,-192 830.75,-184.08 820.31,-185.88 823.72,-192"/>
</a>
</g>
</g>
<!-- Node16 -->
<g id="Node000016" class="node">
<title>Node16</title>
<g id="a_Node000016"><a xlink:href="pointer_8h.html" target="_top" xlink:title=" ">
<polygon fill="white" stroke="#666666" points="698,-239 639,-239 639,-220 698,-220 698,-239"/>
<text text-anchor="middle" x="668.5" y="-227" font-family="Helvetica,sans-Serif" font-size="10.00">pointer.h</text>
</a>
</g>
</g>
<!-- Node6&#45;&gt;Node16 -->
<g id="edge16_Node000006_Node000016" class="edge">
<title>Node6&#45;&gt;Node16</title>
<g id="a_edge16_Node000006_Node000016"><a xlink:title=" ">
<path fill="none" stroke="#63b8ff" d="M432.21,-277.07C435.34,-276.36 438.49,-275.65 441.5,-275 506.87,-260.88 583.25,-246.3 628.65,-237.83"/>
<polygon fill="#63b8ff" stroke="#63b8ff" points="629.49,-241.24 638.68,-235.97 628.21,-234.36 629.49,-241.24"/>
</a>
</g>
</g>
<!-- Node10&#45;&gt;Node7 -->
<g id="edge10_Node000010_Node000007" class="edge">
<title>Node10&#45;&gt;Node7</title>
<g id="a_edge10_Node000010_Node000007"><a xlink:title=" ">
<path fill="none" stroke="#63b8ff" d="M811.29,-166.42C808.32,-165.9 805.36,-165.42 802.5,-165 645.6,-141.98 456.84,-128.02 378.43,-122.82"/>
<polygon fill="#63b8ff" stroke="#63b8ff" points="378.32,-119.3 368.12,-122.14 377.87,-126.29 378.32,-119.3"/>
</a>
</g>
</g>
<!-- Node11 -->
<g id="Node000011" class="node">
<title>Node11</title>
<g id="a_Node000011"><a xlink:href="acc-comm_2acm_2detail_2errchk_8h.html" target="_top" xlink:title=" ">
<polygon fill="white" stroke="#666666" points="710.5,-129 654.5,-129 654.5,-110 710.5,-110 710.5,-129"/>
<text text-anchor="middle" x="682.5" y="-117" font-family="Helvetica,sans-Serif" font-size="10.00">errchk.h</text>
</a>
</g>
</g>
<!-- Node10&#45;&gt;Node11 -->
<g id="edge11_Node000010_Node000011" class="edge">
<title>Node10&#45;&gt;Node11</title>
<g id="a_edge11_Node000010_Node000011"><a xlink:title=" ">
<path fill="none" stroke="#63b8ff" d="M819.31,-164.98C792.06,-156.13 749.2,-142.19 718.72,-132.28"/>
<polygon fill="#63b8ff" stroke="#63b8ff" points="719.49,-128.85 708.89,-129.08 717.32,-135.5 719.49,-128.85"/>
</a>
</g>
</g>
<!-- Node12 -->
<g id="Node000012" class="node">
<title>Node12</title>
<g id="a_Node000012"><a xlink:title=" ">
<polygon fill="#e0e0e0" stroke="#999999" points="622,-74 557,-74 557,-55 622,-55 622,-74"/>
<text text-anchor="middle" x="589.5" y="-62" font-family="Helvetica,sans-Serif" font-size="10.00">stdexcept</text>
</a>
</g>
</g>
<!-- Node11&#45;&gt;Node12 -->
<g id="edge12_Node000011_Node000012" class="edge">
<title>Node11&#45;&gt;Node12</title>
<g id="a_edge12_Node000011_Node000012"><a xlink:title=" ">
<path fill="none" stroke="#63b8ff" d="M667.56,-109.98C653,-101.69 630.63,-88.94 613.57,-79.22"/>
<polygon fill="#63b8ff" stroke="#63b8ff" points="615.14,-76.08 604.71,-74.17 611.67,-82.16 615.14,-76.08"/>
</a>
</g>
</g>
<!-- Node13 -->
<g id="Node000013" class="node">
<title>Node13</title>
<g id="a_Node000013"><a xlink:href="errchk__print_8h.html" target="_top" xlink:title=" ">
<polygon fill="white" stroke="#666666" points="724.5,-74 640.5,-74 640.5,-55 724.5,-55 724.5,-74"/>
<text text-anchor="middle" x="682.5" y="-62" font-family="Helvetica,sans-Serif" font-size="10.00">errchk_print.h</text>
</a>
</g>
</g>
<!-- Node11&#45;&gt;Node13 -->
<g id="edge13_Node000011_Node000013" class="edge">
<title>Node11&#45;&gt;Node13</title>
<g id="a_edge13_Node000011_Node000013"><a xlink:title=" ">
<path fill="none" stroke="#63b8ff" d="M682.5,-109.75C682.5,-102.8 682.5,-92.85 682.5,-84.13"/>
<polygon fill="#63b8ff" stroke="#63b8ff" points="686,-84.09 682.5,-74.09 679,-84.09 686,-84.09"/>
</a>
</g>
</g>
<!-- Node15 -->
<g id="Node000015" class="node">
<title>Node15</title>
<g id="a_Node000015"><a xlink:title=" ">
<polygon fill="#e0e0e0" stroke="#999999" points="792.5,-74 742.5,-74 742.5,-55 792.5,-55 792.5,-74"/>
<text text-anchor="middle" x="767.5" y="-62" font-family="Helvetica,sans-Serif" font-size="10.00">chrono</text>
</a>
</g>
</g>
<!-- Node11&#45;&gt;Node15 -->
<g id="edge15_Node000011_Node000015" class="edge">
<title>Node11&#45;&gt;Node15</title>
<g id="a_edge15_Node000011_Node000015"><a xlink:title=" ">
<path fill="none" stroke="#63b8ff" d="M696.16,-109.98C709.34,-101.77 729.53,-89.18 745.07,-79.49"/>
<polygon fill="#63b8ff" stroke="#63b8ff" points="746.96,-82.43 753.59,-74.17 743.26,-76.49 746.96,-82.43"/>
</a>
</g>
</g>
<!-- Node14 -->
<g id="Node000014" class="node">
<title>Node14</title>
<g id="a_Node000014"><a xlink:title=" ">
<polygon fill="#e0e0e0" stroke="#999999" points="710.5,-19 654.5,-19 654.5,0 710.5,0 710.5,-19"/>
<text text-anchor="middle" x="682.5" y="-7" font-family="Helvetica,sans-Serif" font-size="10.00">stdarg.h</text>
</a>
</g>
</g>
<!-- Node13&#45;&gt;Node14 -->
<g id="edge14_Node000013_Node000014" class="edge">
<title>Node13&#45;&gt;Node14</title>
<g id="a_edge14_Node000013_Node000014"><a xlink:title=" ">
<path fill="none" stroke="#63b8ff" d="M682.5,-54.75C682.5,-47.8 682.5,-37.85 682.5,-29.13"/>
<polygon fill="#63b8ff" stroke="#63b8ff" points="686,-29.09 682.5,-19.09 679,-29.09 686,-29.09"/>
</a>
</g>
</g>
<!-- Node16&#45;&gt;Node10 -->
<g id="edge19_Node000016_Node000010" class="edge">
<title>Node16&#45;&gt;Node10</title>
<g id="a_edge19_Node000016_Node000010"><a xlink:title=" ">
<path fill="none" stroke="#63b8ff" d="M696.94,-219.98C726.78,-211.05 773.88,-196.94 807.03,-187.02"/>
<polygon fill="#63b8ff" stroke="#63b8ff" points="808.26,-190.3 816.84,-184.08 806.26,-183.6 808.26,-190.3"/>
</a>
</g>
</g>
<!-- Node17 -->
<g id="Node000017" class="node">
<title>Node17</title>
<g id="a_Node000017"><a xlink:title=" ">
<polygon fill="#e0e0e0" stroke="#999999" points="612.5,-184 548.5,-184 548.5,-165 612.5,-165 612.5,-184"/>
<text text-anchor="middle" x="580.5" y="-172" font-family="Helvetica,sans-Serif" font-size="10.00">algorithm</text>
</a>
</g>
</g>
<!-- Node16&#45;&gt;Node17 -->
<g id="edge17_Node000016_Node000017" class="edge">
<title>Node16&#45;&gt;Node17</title>
<g id="a_edge17_Node000016_Node000017"><a xlink:title=" ">
<path fill="none" stroke="#63b8ff" d="M654.36,-219.98C640.71,-211.77 619.81,-199.18 603.72,-189.49"/>
<polygon fill="#63b8ff" stroke="#63b8ff" points="605.27,-186.33 594.9,-184.17 601.66,-192.33 605.27,-186.33"/>
</a>
</g>
</g>
<!-- Node18 -->
<g id="Node000018" class="node">
<title>Node18</title>
<g id="a_Node000018"><a xlink:title=" ">
<polygon fill="#e0e0e0" stroke="#999999" points="793,-184 724,-184 724,-165 793,-165 793,-184"/>
<text text-anchor="middle" x="758.5" y="-172" font-family="Helvetica,sans-Serif" font-size="10.00">type_traits</text>
</a>
</g>
</g>
<!-- Node16&#45;&gt;Node18 -->
<g id="edge18_Node000016_Node000018" class="edge">
<title>Node16&#45;&gt;Node18</title>
<g id="a_edge18_Node000016_Node000018"><a xlink:title=" ">
<path fill="none" stroke="#63b8ff" d="M682.96,-219.98C696.92,-211.77 718.29,-199.18 734.75,-189.49"/>
<polygon fill="#63b8ff" stroke="#63b8ff" points="736.94,-192.26 743.78,-184.17 733.38,-186.23 736.94,-192.26"/>
</a>
</g>
</g>
<!-- Node19 -->
<g id="Node000019" class="node">
<title>Node19</title>
<g id="a_Node000019"><a xlink:href="cuda__utils_8h.html" target="_top" xlink:title=" ">
<polygon fill="white" stroke="#666666" points="706,-184 631,-184 631,-165 706,-165 706,-184"/>
<text text-anchor="middle" x="668.5" y="-172" font-family="Helvetica,sans-Serif" font-size="10.00">cuda_utils.h</text>
</a>
</g>
</g>
<!-- Node16&#45;&gt;Node19 -->
<g id="edge20_Node000016_Node000019" class="edge">
<title>Node16&#45;&gt;Node19</title>
<g id="a_edge20_Node000016_Node000019"><a xlink:title=" ">
<path fill="none" stroke="#63b8ff" d="M668.5,-219.75C668.5,-212.8 668.5,-202.85 668.5,-194.13"/>
<polygon fill="#63b8ff" stroke="#63b8ff" points="672,-194.09 668.5,-184.09 665,-194.09 672,-194.09"/>
</a>
</g>
</g>
<!-- Node20&#45;&gt;Node3 -->
<g id="edge25_Node000020_Node000003" class="edge">
<title>Node20&#45;&gt;Node3</title>
<g id="a_edge25_Node000020_Node000003"><a xlink:title=" ">
<path fill="none" stroke="#63b8ff" d="M173.2,-219.98C149.25,-211.23 111.72,-197.51 84.67,-187.62"/>
<polygon fill="#63b8ff" stroke="#63b8ff" points="85.81,-184.32 75.22,-184.17 83.41,-190.89 85.81,-184.32"/>
</a>
</g>
</g>
<!-- Node20&#45;&gt;Node7 -->
<g id="edge22_Node000020_Node000007" class="edge">
<title>Node20&#45;&gt;Node7</title>
<g id="a_edge22_Node000020_Node000007"><a xlink:title=" ">
<path fill="none" stroke="#63b8ff" d="M191.84,-219.7C185.53,-206.45 176.36,-181.17 188.5,-165 202.48,-146.38 264.24,-133 304.89,-126.03"/>
<polygon fill="#63b8ff" stroke="#63b8ff" points="305.69,-129.44 314.98,-124.35 304.54,-122.54 305.69,-129.44"/>
</a>
</g>
</g>
<!-- Node21 -->
<g id="Node000021" class="node">
<title>Node21</title>
<g id="a_Node000021"><a xlink:title=" ">
<polygon fill="#e0e0e0" stroke="#999999" points="247.5,-184 197.5,-184 197.5,-165 247.5,-165 247.5,-184"/>
<text text-anchor="middle" x="222.5" y="-172" font-family="Helvetica,sans-Serif" font-size="10.00">cstdint</text>
</a>
</g>
</g>
<!-- Node20&#45;&gt;Node21 -->
<g id="edge23_Node000020_Node000021" class="edge">
<title>Node20&#45;&gt;Node21</title>
<g id="a_edge23_Node000020_Node000021"><a xlink:title=" ">
<path fill="none" stroke="#63b8ff" d="M200.79,-219.75C204.31,-212.57 209.41,-202.18 213.78,-193.27"/>
<polygon fill="#63b8ff" stroke="#63b8ff" points="217.02,-194.61 218.29,-184.09 210.74,-191.53 217.02,-194.61"/>
</a>
</g>
</g>
<!-- Node22 -->
<g id="Node000022" class="node">
<title>Node22</title>
<g id="a_Node000022"><a xlink:title=" ">
<polygon fill="#e0e0e0" stroke="#999999" points="141.5,-184 97.5,-184 97.5,-165 141.5,-165 141.5,-184"/>
<text text-anchor="middle" x="119.5" y="-172" font-family="Helvetica,sans-Serif" font-size="10.00">limits</text>
</a>
</g>
</g>
<!-- Node20&#45;&gt;Node22 -->
<g id="edge24_Node000020_Node000022" class="edge">
<title>Node20&#45;&gt;Node22</title>
<g id="a_edge24_Node000020_Node000022"><a xlink:title=" ">
<path fill="none" stroke="#63b8ff" d="M184.13,-219.98C172.41,-211.92 154.58,-199.65 140.61,-190.03"/>
<polygon fill="#63b8ff" stroke="#63b8ff" points="142.32,-186.96 132.1,-184.17 138.35,-192.72 142.32,-186.96"/>
</a>
</g>
</g>
<!-- Node23 -->
<g id="Node000023" class="node">
<title>Node23</title>
<g id="a_Node000023"><a xlink:title=" ">
<polygon fill="#e0e0e0" stroke="#999999" points="313,-184 266,-184 266,-165 313,-165 313,-184"/>
<text text-anchor="middle" x="289.5" y="-172" font-family="Helvetica,sans-Serif" font-size="10.00">vector</text>
</a>
</g>
</g>
<!-- Node20&#45;&gt;Node23 -->
<g id="edge26_Node000020_Node000023" class="edge">
<title>Node20&#45;&gt;Node23</title>
<g id="a_edge26_Node000020_Node000023"><a xlink:title=" ">
<path fill="none" stroke="#63b8ff" d="M211.44,-219.98C226,-211.69 248.37,-198.94 265.43,-189.22"/>
<polygon fill="#63b8ff" stroke="#63b8ff" points="267.33,-192.16 274.29,-184.17 263.86,-186.08 267.33,-192.16"/>
</a>
</g>
</g>
<!-- Node24&#45;&gt;Node11 -->
<g id="edge33_Node000024_Node000011" class="edge">
<title>Node24&#45;&gt;Node11</title>
<g id="a_edge33_Node000024_Node000011"><a xlink:title=" ">
<path fill="none" stroke="#63b8ff" d="M546.04,-219.77C538.57,-206.6 527.4,-181.44 539.5,-165 563.28,-132.69 610.35,-123.16 643.99,-120.69"/>
<polygon fill="#63b8ff" stroke="#63b8ff" points="644.6,-124.16 654.39,-120.12 644.21,-117.17 644.6,-124.16"/>
</a>
</g>
</g>
<!-- Node24&#45;&gt;Node17 -->
<g id="edge28_Node000024_Node000017" class="edge">
<title>Node24&#45;&gt;Node17</title>
<g id="a_edge28_Node000024_Node000017"><a xlink:title=" ">
<path fill="none" stroke="#63b8ff" d="M556.29,-219.75C560.26,-212.49 566.03,-201.95 570.93,-192.98"/>
<polygon fill="#63b8ff" stroke="#63b8ff" points="574.07,-194.54 575.8,-184.09 567.93,-191.18 574.07,-194.54"/>
</a>
</g>
</g>
<!-- Node24&#45;&gt;Node19 -->
<g id="edge32_Node000024_Node000019" class="edge">
<title>Node24&#45;&gt;Node19</title>
<g id="a_edge32_Node000024_Node000019"><a xlink:title=" ">
<path fill="none" stroke="#63b8ff" d="M570.3,-219.98C589.12,-211.46 618.32,-198.23 640,-188.41"/>
<polygon fill="#63b8ff" stroke="#63b8ff" points="641.7,-191.48 649.36,-184.17 638.81,-185.11 641.7,-191.48"/>
</a>
</g>
</g>
<!-- Node24&#45;&gt;Node23 -->
<g id="edge31_Node000024_Node000023" class="edge">
<title>Node24&#45;&gt;Node23</title>
<g id="a_edge31_Node000024_Node000023"><a xlink:title=" ">
<path fill="none" stroke="#63b8ff" d="M523.24,-221.91C520.29,-221.25 517.34,-220.61 514.5,-220 446.73,-205.52 367.11,-190.16 323.08,-181.81"/>
<polygon fill="#63b8ff" stroke="#63b8ff" points="323.67,-178.36 313.2,-179.94 322.37,-185.24 323.67,-178.36"/>
</a>
</g>
</g>
<!-- Node25 -->
<g id="Node000025" class="node">
<title>Node25</title>
<g id="a_Node000025"><a xlink:title=" ">
<polygon fill="#e0e0e0" stroke="#999999" points="492,-184 445,-184 445,-165 492,-165 492,-184"/>
<text text-anchor="middle" x="468.5" y="-172" font-family="Helvetica,sans-Serif" font-size="10.00">cmath</text>
</a>
</g>
</g>
<!-- Node24&#45;&gt;Node25 -->
<g id="edge29_Node000024_Node000025" class="edge">
<title>Node24&#45;&gt;Node25</title>
<g id="a_edge29_Node000024_Node000025"><a xlink:title=" ">
<path fill="none" stroke="#63b8ff" d="M538.16,-219.98C525.41,-211.84 505.95,-199.41 490.83,-189.76"/>
<polygon fill="#63b8ff" stroke="#63b8ff" points="492.39,-186.6 482.08,-184.17 488.62,-192.5 492.39,-186.6"/>
</a>
</g>
</g>
<!-- Node26 -->
<g id="Node000026" class="node">
<title>Node26</title>
<g id="a_Node000026"><a xlink:title=" ">
<polygon fill="#e0e0e0" stroke="#999999" points="427,-184 370,-184 370,-165 427,-165 427,-184"/>
<text text-anchor="middle" x="398.5" y="-172" font-family="Helvetica,sans-Serif" font-size="10.00">ostream</text>
</a>
</g>
</g>
<!-- Node24&#45;&gt;Node26 -->
<g id="edge30_Node000024_Node000026" class="edge">
<title>Node24&#45;&gt;Node26</title>
<g id="a_edge30_Node000024_Node000026"><a xlink:title=" ">
<path fill="none" stroke="#63b8ff" d="M526.92,-219.98C501.45,-211.16 461.46,-197.31 432.87,-187.41"/>
<polygon fill="#63b8ff" stroke="#63b8ff" points="433.87,-184.05 423.27,-184.08 431.58,-190.66 433.87,-184.05"/>
</a>
</g>
</g>
</g>
</svg>
