<?xml version="1.0" encoding="UTF-8" standalone="no"?>
<!DOCTYPE svg PUBLIC "-//W3C//DTD SVG 1.1//EN"
 "http://www.w3.org/Graphics/SVG/1.1/DTD/svg11.dtd">
<!-- Generated by graphviz version 2.43.0 (0)
 -->
<!-- Title: acc&#45;comm/tests/acm/detail/test_pack.cc Pages: 1 -->
<svg width="795pt" height="368pt"
 viewBox="0.00 0.00 795.00 368.00" xmlns="http://www.w3.org/2000/svg" xmlns:xlink="http://www.w3.org/1999/xlink">
<g id="graph0" class="graph" transform="scale(1 1) rotate(0) translate(4 364)">
<title>acc&#45;comm/tests/acm/detail/test_pack.cc</title>
<!-- Node1 -->
<g id="Node000001" class="node">
<title>Node1</title>
<g id="a_Node000001"><a xlink:title=" ">
<polygon fill="#999999" stroke="#666666" points="205,-360 86,-360 86,-330 205,-330 205,-360"/>
<text text-anchor="start" x="94" y="-348" font-family="Helvetica,sans-Serif" font-size="10.00">acc&#45;comm/tests/acm</text>
<text text-anchor="middle" x="145.5" y="-337" font-family="Helvetica,sans-Serif" font-size="10.00">/detail/test_pack.cc</text>
</a>
</g>
</g>
<!-- Node2 -->
<g id="Node000002" class="node">
<title>Node2</title>
<g id="a_Node000002"><a xlink:title=" ">
<polygon fill="#e0e0e0" stroke="#999999" points="49,-294 0,-294 0,-275 49,-275 49,-294"/>
<text text-anchor="middle" x="24.5" y="-282" font-family="Helvetica,sans-Serif" font-size="10.00">cstdlib</text>
</a>
</g>
</g>
<!-- Node1&#45;&gt;Node2 -->
<g id="edge1_Node000001_Node000002" class="edge">
<title>Node1&#45;&gt;Node2</title>
<g id="a_edge1_Node000001_Node000002"><a xlink:title=" ">
<path fill="none" stroke="#63b8ff" d="M116.52,-329.99C96.78,-320.45 70.83,-307.9 51.53,-298.57"/>
<polygon fill="#63b8ff" stroke="#63b8ff" points="52.9,-295.34 42.37,-294.14 49.85,-301.64 52.9,-295.34"/>
</a>
</g>
</g>
<!-- Node3 -->
<g id="Node000003" class="node">
<title>Node3</title>
<g id="a_Node000003"><a xlink:title=" ">
<polygon fill="#e0e0e0" stroke="#999999" points="123.5,-294 67.5,-294 67.5,-275 123.5,-275 123.5,-294"/>
<text text-anchor="middle" x="95.5" y="-282" font-family="Helvetica,sans-Serif" font-size="10.00">numeric</text>
</a>
</g>
</g>
<!-- Node1&#45;&gt;Node3 -->
<g id="edge2_Node000001_Node000003" class="edge">
<title>Node1&#45;&gt;Node3</title>
<g id="a_edge2_Node000001_Node000003"><a xlink:title=" ">
<path fill="none" stroke="#63b8ff" d="M133.4,-329.84C126.21,-321.43 117.07,-310.74 109.57,-301.96"/>
<polygon fill="#63b8ff" stroke="#63b8ff" points="112.15,-299.59 102.99,-294.27 106.83,-304.14 112.15,-299.59"/>
</a>
</g>
</g>
<!-- Node4 -->
<g id="Node000004" class="node">
<title>Node4</title>
<g id="a_Node000004"><a xlink:href="buffer_8h.html" target="_top" xlink:title=" ">
<polygon fill="white" stroke="#666666" points="249.5,-294 141.5,-294 141.5,-275 249.5,-275 249.5,-294"/>
<text text-anchor="middle" x="195.5" y="-282" font-family="Helvetica,sans-Serif" font-size="10.00">acm/detail/buffer.h</text>
</a>
</g>
</g>
<!-- Node1&#45;&gt;Node4 -->
<g id="edge3_Node000001_Node000004" class="edge">
<title>Node1&#45;&gt;Node4</title>
<g id="a_edge3_Node000001_Node000004"><a xlink:title=" ">
<path fill="none" stroke="#63b8ff" d="M157.6,-329.84C164.79,-321.43 173.93,-310.74 181.43,-301.96"/>
<polygon fill="#63b8ff" stroke="#63b8ff" points="184.17,-304.14 188.01,-294.27 178.85,-299.59 184.17,-304.14"/>
</a>
</g>
</g>
<!-- Node18 -->
<g id="Node000018" class="node">
<title>Node18</title>
<g id="a_Node000018"><a xlink:href="pack_8h.html" target="_top" xlink:title=" ">
<polygon fill="white" stroke="#666666" points="384.5,-294 280.5,-294 280.5,-275 384.5,-275 384.5,-294"/>
<text text-anchor="middle" x="332.5" y="-282" font-family="Helvetica,sans-Serif" font-size="10.00">acm/detail/pack.h</text>
</a>
</g>
</g>
<!-- Node1&#45;&gt;Node18 -->
<g id="edge19_Node000001_Node000018" class="edge">
<title>Node1&#45;&gt;Node18</title>
<g id="a_edge19_Node000001_Node000018"><a xlink:title=" ">
<path fill="none" stroke="#63b8ff" d="M190.29,-329.99C222.42,-319.94 265.2,-306.55 295.42,-297.1"/>
<polygon fill="#63b8ff" stroke="#63b8ff" points="296.66,-300.38 305.16,-294.05 294.57,-293.7 296.66,-300.38"/>
</a>
</g>
</g>
<!-- Node5 -->
<g id="Node000005" class="node">
<title>Node5</title>
<g id="a_Node000005"><a xlink:title=" ">
<polygon fill="#e0e0e0" stroke="#999999" points="241,-129 188,-129 188,-110 241,-110 241,-129"/>
<text text-anchor="middle" x="214.5" y="-117" font-family="Helvetica,sans-Serif" font-size="10.00">cstddef</text>
</a>
</g>
</g>
<!-- Node4&#45;&gt;Node5 -->
<g id="edge4_Node000004_Node000005" class="edge">
<title>Node4&#45;&gt;Node5</title>
<g id="a_edge4_Node000004_Node000005"><a xlink:title=" ">
<path fill="none" stroke="#63b8ff" d="M195.41,-274.81C195.33,-255.13 195.88,-205.68 202.5,-165 203.91,-156.31 206.33,-146.87 208.62,-138.94"/>
<polygon fill="#63b8ff" stroke="#63b8ff" points="212.01,-139.83 211.57,-129.25 205.31,-137.8 212.01,-139.83"/>
</a>
</g>
</g>
<!-- Node6 -->
<g id="Node000006" class="node">
<title>Node6</title>
<g id="a_Node000006"><a xlink:title=" ">
<polygon fill="#e0e0e0" stroke="#999999" points="79.5,-239 19.5,-239 19.5,-220 79.5,-220 79.5,-239"/>
<text text-anchor="middle" x="49.5" y="-227" font-family="Helvetica,sans-Serif" font-size="10.00">iostream</text>
</a>
</g>
</g>
<!-- Node4&#45;&gt;Node6 -->
<g id="edge5_Node000004_Node000006" class="edge">
<title>Node4&#45;&gt;Node6</title>
<g id="a_edge5_Node000004_Node000006"><a xlink:title=" ">
<path fill="none" stroke="#63b8ff" d="M172.04,-274.98C147.92,-266.23 110.13,-252.51 82.9,-242.62"/>
<polygon fill="#63b8ff" stroke="#63b8ff" points="83.98,-239.29 73.38,-239.17 81.59,-245.87 83.98,-239.29"/>
</a>
</g>
</g>
<!-- Node7 -->
<g id="Node000007" class="node">
<title>Node7</title>
<g id="a_Node000007"><a xlink:title=" ">
<polygon fill="#e0e0e0" stroke="#999999" points="155.5,-239 97.5,-239 97.5,-220 155.5,-220 155.5,-239"/>
<text text-anchor="middle" x="126.5" y="-227" font-family="Helvetica,sans-Serif" font-size="10.00">memory</text>
</a>
</g>
</g>
<!-- Node4&#45;&gt;Node7 -->
<g id="edge6_Node000004_Node000007" class="edge">
<title>Node4&#45;&gt;Node7</title>
<g id="a_edge6_Node000004_Node000007"><a xlink:title=" ">
<path fill="none" stroke="#63b8ff" d="M184.41,-274.98C174.01,-267 158.24,-254.88 145.78,-245.31"/>
<polygon fill="#63b8ff" stroke="#63b8ff" points="147.85,-242.49 137.79,-239.17 143.59,-248.04 147.85,-242.49"/>
</a>
</g>
</g>
<!-- Node8 -->
<g id="Node000008" class="node">
<title>Node8</title>
<g id="a_Node000008"><a xlink:href="allocator_8h.html" target="_top" xlink:title=" ">
<polygon fill="white" stroke="#666666" points="279.5,-184 211.5,-184 211.5,-165 279.5,-165 279.5,-184"/>
<text text-anchor="middle" x="245.5" y="-172" font-family="Helvetica,sans-Serif" font-size="10.00">allocator.h</text>
</a>
</g>
</g>
<!-- Node4&#45;&gt;Node8 -->
<g id="edge7_Node000004_Node000008" class="edge">
<title>Node4&#45;&gt;Node8</title>
<g id="a_edge7_Node000004_Node000008"><a xlink:title=" ">
<path fill="none" stroke="#63b8ff" d="M199.59,-274.66C207.8,-256.93 226.41,-216.73 237.25,-193.32"/>
<polygon fill="#63b8ff" stroke="#63b8ff" points="240.47,-194.7 241.49,-184.16 234.11,-191.76 240.47,-194.7"/>
</a>
</g>
</g>
<!-- Node14 -->
<g id="Node000014" class="node">
<title>Node14</title>
<g id="a_Node000014"><a xlink:href="pointer_8h.html" target="_top" xlink:title=" ">
<polygon fill="white" stroke="#666666" points="362,-239 303,-239 303,-220 362,-220 362,-239"/>
<text text-anchor="middle" x="332.5" y="-227" font-family="Helvetica,sans-Serif" font-size="10.00">pointer.h</text>
</a>
</g>
</g>
<!-- Node4&#45;&gt;Node14 -->
<g id="edge14_Node000004_Node000014" class="edge">
<title>Node4&#45;&gt;Node14</title>
<g id="a_edge14_Node000004_Node000014"><a xlink:title=" ">
<path fill="none" stroke="#63b8ff" d="M217.51,-274.98C239.95,-266.3 274.98,-252.75 300.49,-242.88"/>
<polygon fill="#63b8ff" stroke="#63b8ff" points="302.02,-246.04 310.09,-239.17 299.5,-239.51 302.02,-246.04"/>
</a>
</g>
</g>
<!-- Node8&#45;&gt;Node5 -->
<g id="edge8_Node000008_Node000005" class="edge">
<title>Node8&#45;&gt;Node5</title>
<g id="a_edge8_Node000008_Node000005"><a xlink:title=" ">
<path fill="none" stroke="#63b8ff" d="M240.38,-164.75C236.14,-157.49 229.97,-146.95 224.72,-137.98"/>
<polygon fill="#63b8ff" stroke="#63b8ff" points="227.59,-135.95 219.52,-129.09 221.55,-139.49 227.59,-135.95"/>
</a>
</g>
</g>
<!-- Node9 -->
<g id="Node000009" class="node">
<title>Node9</title>
<g id="a_Node000009"><a xlink:href="acc-comm_2acm_2detail_2errchk_8h.html" target="_top" xlink:title=" ">
<polygon fill="white" stroke="#666666" points="489.5,-129 433.5,-129 433.5,-110 489.5,-110 489.5,-129"/>
<text text-anchor="middle" x="461.5" y="-117" font-family="Helvetica,sans-Serif" font-size="10.00">errchk.h</text>
</a>
</g>
</g>
<!-- Node8&#45;&gt;Node9 -->
<g id="edge9_Node000008_Node000009" class="edge">
<title>Node8&#45;&gt;Node9</title>
<g id="a_edge9_Node000008_Node000009"><a xlink:title=" ">
<path fill="none" stroke="#63b8ff" d="M279.73,-165.1C318.88,-155.5 382.8,-139.81 423.47,-129.83"/>
<polygon fill="#63b8ff" stroke="#63b8ff" points="424.41,-133.21 433.29,-127.42 422.74,-126.41 424.41,-133.21"/>
</a>
</g>
</g>
<!-- Node10 -->
<g id="Node000010" class="node">
<title>Node10</title>
<g id="a_Node000010"><a xlink:title=" ">
<polygon fill="#e0e0e0" stroke="#999999" points="401,-74 336,-74 336,-55 401,-55 401,-74"/>
<text text-anchor="middle" x="368.5" y="-62" font-family="Helvetica,sans-Serif" font-size="10.00">stdexcept</text>
</a>
</g>
</g>
<!-- Node9&#45;&gt;Node10 -->
<g id="edge10_Node000009_Node000010" class="edge">
<title>Node9&#45;&gt;Node10</title>
<g id="a_edge10_Node000009_Node000010"><a xlink:title=" ">
<path fill="none" stroke="#63b8ff" d="M446.56,-109.98C432,-101.69 409.63,-88.94 392.57,-79.22"/>
<polygon fill="#63b8ff" stroke="#63b8ff" points="394.14,-76.08 383.71,-74.17 390.67,-82.16 394.14,-76.08"/>
</a>
</g>
</g>
<!-- Node11 -->
<g id="Node000011" class="node">
<title>Node11</title>
<g id="a_Node000011"><a xlink:href="errchk__print_8h.html" target="_top" xlink:title=" ">
<polygon fill="white" stroke="#666666" points="503.5,-74 419.5,-74 419.5,-55 503.5,-55 503.5,-74"/>
<text text-anchor="middle" x="461.5" y="-62" font-family="Helvetica,sans-Serif" font-size="10.00">errchk_print.h</text>
</a>
</g>
</g>
<!-- Node9&#45;&gt;Node11 -->
<g id="edge11_Node000009_Node000011" class="edge">
<title>Node9&#45;&gt;Node11</title>
<g id="a_edge11_Node000009_Node000011"><a xlink:title=" ">
<path fill="none" stroke="#63b8ff" d="M461.5,-109.75C461.5,-102.8 461.5,-92.85 461.5,-84.13"/>
<polygon fill="#63b8ff" stroke="#63b8ff" points="465,-84.09 461.5,-74.09 458,-84.09 465,-84.09"/>
</a>
</g>
</g>
<!-- Node13 -->
<g id="Node000013" class="node">
<title>Node13</title>
<g id="a_Node000013"><a xlink:title=" ">
<polygon fill="#e0e0e0" stroke="#999999" points="571.5,-74 521.5,-74 521.5,-55 571.5,-55 571.5,-74"/>
<text text-anchor="middle" x="546.5" y="-62" font-family="Helvetica,sans-Serif" font-size="10.00">chrono</text>
</a>
</g>
</g>
<!-- Node9&#45;&gt;Node13 -->
<g id="edge13_Node000009_Node000013" class="edge">
<title>Node9&#45;&gt;Node13</title>
<g id="a_edge13_Node000009_Node000013"><a xlink:title=" ">
<path fill="none" stroke="#63b8ff" d="M475.16,-109.98C488.34,-101.77 508.53,-89.18 524.07,-79.49"/>
<polygon fill="#63b8ff" stroke="#63b8ff" points="525.96,-82.43 532.59,-74.17 522.26,-76.49 525.96,-82.43"/>
</a>
</g>
</g>
<!-- Node12 -->
<g id="Node000012" class="node">
<title>Node12</title>
<g id="a_Node000012"><a xlink:title=" ">
<polygon fill="#e0e0e0" stroke="#999999" points="489.5,-19 433.5,-19 433.5,0 489.5,0 489.5,-19"/>
<text text-anchor="middle" x="461.5" y="-7" font-family="Helvetica,sans-Serif" font-size="10.00">stdarg.h</text>
</a>
</g>
</g>
<!-- Node11&#45;&gt;Node12 -->
<g id="edge12_Node000011_Node000012" class="edge">
<title>Node11&#45;&gt;Node12</title>
<g id="a_edge12_Node000011_Node000012"><a xlink:title=" ">
<path fill="none" stroke="#63b8ff" d="M461.5,-54.75C461.5,-47.8 461.5,-37.85 461.5,-29.13"/>
<polygon fill="#63b8ff" stroke="#63b8ff" points="465,-29.09 461.5,-19.09 458,-29.09 465,-29.09"/>
</a>
</g>
</g>
<!-- Node14&#45;&gt;Node8 -->
<g id="edge17_Node000014_Node000008" class="edge">
<title>Node14&#45;&gt;Node8</title>
<g id="a_edge17_Node000014_Node000008"><a xlink:title=" ">
<path fill="none" stroke="#63b8ff" d="M318.52,-219.98C305.03,-211.77 284.37,-199.18 268.46,-189.49"/>
<polygon fill="#63b8ff" stroke="#63b8ff" points="270.09,-186.38 259.73,-184.17 266.45,-192.36 270.09,-186.38"/>
</a>
</g>
</g>
<!-- Node15 -->
<g id="Node000015" class="node">
<title>Node15</title>
<g id="a_Node000015"><a xlink:title=" ">
<polygon fill="#e0e0e0" stroke="#999999" points="542.5,-184 478.5,-184 478.5,-165 542.5,-165 542.5,-184"/>
<text text-anchor="middle" x="510.5" y="-172" font-family="Helvetica,sans-Serif" font-size="10.00">algorithm</text>
</a>
</g>
</g>
<!-- Node14&#45;&gt;Node15 -->
<g id="edge15_Node000014_Node000015" class="edge">
<title>Node14&#45;&gt;Node15</title>
<g id="a_edge15_Node000014_Node000015"><a xlink:title=" ">
<path fill="none" stroke="#63b8ff" d="M361.1,-219.98C391.11,-211.05 438.48,-196.94 471.82,-187.02"/>
<polygon fill="#63b8ff" stroke="#63b8ff" points="473.09,-190.29 481.68,-184.08 471.09,-183.58 473.09,-190.29"/>
</a>
</g>
</g>
<!-- Node16 -->
<g id="Node000016" class="node">
<title>Node16</title>
<g id="a_Node000016"><a xlink:title=" ">
<polygon fill="#e0e0e0" stroke="#999999" points="367,-184 298,-184 298,-165 367,-165 367,-184"/>
<text text-anchor="middle" x="332.5" y="-172" font-family="Helvetica,sans-Serif" font-size="10.00">type_traits</text>
</a>
</g>
</g>
<!-- Node14&#45;&gt;Node16 -->
<g id="edge16_Node000014_Node000016" class="edge">
<title>Node14&#45;&gt;Node16</title>
<g id="a_edge16_Node000014_Node000016"><a xlink:title=" ">
<path fill="none" stroke="#63b8ff" d="M332.5,-219.75C332.5,-212.8 332.5,-202.85 332.5,-194.13"/>
<polygon fill="#63b8ff" stroke="#63b8ff" points="336,-194.09 332.5,-184.09 329,-194.09 336,-194.09"/>
</a>
</g>
</g>
<!-- Node17 -->
<g id="Node000017" class="node">
<title>Node17</title>
<g id="a_Node000017"><a xlink:href="cuda__utils_8h.html" target="_top" xlink:title=" ">
<polygon fill="white" stroke="#666666" points="460,-184 385,-184 385,-165 460,-165 460,-184"/>
<text text-anchor="middle" x="422.5" y="-172" font-family="Helvetica,sans-Serif" font-size="10.00">cuda_utils.h</text>
</a>
</g>
</g>
<!-- Node14&#45;&gt;Node17 -->
<g id="edge18_Node000014_Node000017" class="edge">
<title>Node14&#45;&gt;Node17</title>
<g id="a_edge18_Node000014_Node000017"><a xlink:title=" ">
<path fill="none" stroke="#63b8ff" d="M346.96,-219.98C360.92,-211.77 382.29,-199.18 398.75,-189.49"/>
<polygon fill="#63b8ff" stroke="#63b8ff" points="400.94,-192.26 407.78,-184.17 397.38,-186.23 400.94,-192.26"/>
</a>
</g>
</g>
<!-- Node18&#45;&gt;Node14 -->
<g id="edge27_Node000018_Node000014" class="edge">
<title>Node18&#45;&gt;Node14</title>
<g id="a_edge27_Node000018_Node000014"><a xlink:title=" ">
<path fill="none" stroke="#63b8ff" d="M332.5,-274.75C332.5,-267.8 332.5,-257.85 332.5,-249.13"/>
<polygon fill="#63b8ff" stroke="#63b8ff" points="336,-249.09 332.5,-239.09 329,-249.09 336,-249.09"/>
</a>
</g>
</g>
<!-- Node19 -->
<g id="Node000019" class="node">
<title>Node19</title>
<g id="a_Node000019"><a xlink:href="ntuple_8h.html" target="_top" xlink:title=" ">
<polygon fill="white" stroke="#666666" points="612.5,-239 556.5,-239 556.5,-220 612.5,-220 612.5,-239"/>
<text text-anchor="middle" x="584.5" y="-227" font-family="Helvetica,sans-Serif" font-size="10.00">ntuple.h</text>
</a>
</g>
</g>
<!-- Node18&#45;&gt;Node19 -->
<g id="edge20_Node000018_Node000019" class="edge">
<title>Node18&#45;&gt;Node19</title>
<g id="a_edge20_Node000018_Node000019"><a xlink:title=" ">
<path fill="none" stroke="#63b8ff" d="M372.99,-274.98C420.72,-264.95 499.44,-248.39 546.2,-238.56"/>
<polygon fill="#63b8ff" stroke="#63b8ff" points="547.17,-241.93 556.23,-236.45 545.73,-235.08 547.17,-241.93"/>
</a>
</g>
</g>
<!-- Node19&#45;&gt;Node9 -->
<g id="edge26_Node000019_Node000009" class="edge">
<title>Node19&#45;&gt;Node9</title>
<g id="a_edge26_Node000019_Node000009"><a xlink:title=" ">
<path fill="none" stroke="#63b8ff" d="M595.06,-219.75C609.18,-206.99 630.97,-182.85 617.5,-165 603.31,-146.19 541.03,-132.96 499.58,-126.05"/>
<polygon fill="#63b8ff" stroke="#63b8ff" points="499.96,-122.57 489.53,-124.43 498.85,-129.48 499.96,-122.57"/>
</a>
</g>
</g>
<!-- Node19&#45;&gt;Node15 -->
<g id="edge21_Node000019_Node000015" class="edge">
<title>Node19&#45;&gt;Node15</title>
<g id="a_edge21_Node000019_Node000015"><a xlink:title=" ">
<path fill="none" stroke="#63b8ff" d="M572.61,-219.98C561.35,-211.92 544.21,-199.65 530.79,-190.03"/>
<polygon fill="#63b8ff" stroke="#63b8ff" points="532.77,-187.15 522.61,-184.17 528.7,-192.84 532.77,-187.15"/>
</a>
</g>
</g>
<!-- Node19&#45;&gt;Node17 -->
<g id="edge25_Node000019_Node000017" class="edge">
<title>Node19&#45;&gt;Node17</title>
<g id="a_edge25_Node000019_Node000017"><a xlink:title=" ">
<path fill="none" stroke="#63b8ff" d="M558.47,-219.98C531.39,-211.13 488.79,-197.19 458.49,-187.28"/>
<polygon fill="#63b8ff" stroke="#63b8ff" points="459.32,-183.87 448.73,-184.08 457.15,-190.52 459.32,-183.87"/>
</a>
</g>
</g>
<!-- Node20 -->
<g id="Node000020" class="node">
<title>Node20</title>
<g id="a_Node000020"><a xlink:title=" ">
<polygon fill="#e0e0e0" stroke="#999999" points="712,-184 665,-184 665,-165 712,-165 712,-184"/>
<text text-anchor="middle" x="688.5" y="-172" font-family="Helvetica,sans-Serif" font-size="10.00">cmath</text>
</a>
</g>
</g>
<!-- Node19&#45;&gt;Node20 -->
<g id="edge22_Node000019_Node000020" class="edge">
<title>Node19&#45;&gt;Node20</title>
<g id="a_edge22_Node000019_Node000020"><a xlink:title=" ">
<path fill="none" stroke="#63b8ff" d="M601.21,-219.98C617.71,-211.57 643.2,-198.59 662.38,-188.81"/>
<polygon fill="#63b8ff" stroke="#63b8ff" points="664.17,-191.83 671.49,-184.17 660.99,-185.59 664.17,-191.83"/>
</a>
</g>
</g>
<!-- Node21 -->
<g id="Node000021" class="node">
<title>Node21</title>
<g id="a_Node000021"><a xlink:title=" ">
<polygon fill="#e0e0e0" stroke="#999999" points="787,-184 730,-184 730,-165 787,-165 787,-184"/>
<text text-anchor="middle" x="758.5" y="-172" font-family="Helvetica,sans-Serif" font-size="10.00">ostream</text>
</a>
</g>
</g>
<!-- Node19&#45;&gt;Node21 -->
<g id="edge23_Node000019_Node000021" class="edge">
<title>Node19&#45;&gt;Node21</title>
<g id="a_edge23_Node000019_Node000021"><a xlink:title=" ">
<path fill="none" stroke="#63b8ff" d="M612.46,-219.98C641.8,-211.05 688.1,-196.94 720.69,-187.02"/>
<polygon fill="#63b8ff" stroke="#63b8ff" points="721.78,-190.34 730.32,-184.08 719.74,-183.65 721.78,-190.34"/>
</a>
</g>
</g>
<!-- Node22 -->
<g id="Node000022" class="node">
<title>Node22</title>
<g id="a_Node000022"><a xlink:title=" ">
<polygon fill="#e0e0e0" stroke="#999999" points="608,-184 561,-184 561,-165 608,-165 608,-184"/>
<text text-anchor="middle" x="584.5" y="-172" font-family="Helvetica,sans-Serif" font-size="10.00">vector</text>
</a>
</g>
</g>
<!-- Node19&#45;&gt;Node22 -->
<g id="edge24_Node000019_Node000022" class="edge">
<title>Node19&#45;&gt;Node22</title>
<g id="a_edge24_Node000019_Node000022"><a xlink:title=" ">
<path fill="none" stroke="#63b8ff" d="M584.5,-219.75C584.5,-212.8 584.5,-202.85 584.5,-194.13"/>
<polygon fill="#63b8ff" stroke="#63b8ff" points="588,-194.09 584.5,-184.09 581,-194.09 588,-194.09"/>
</a>
</g>
</g>
</g>
</svg>
