<?xml version="1.0" encoding="UTF-8" standalone="no"?>
<!DOCTYPE svg PUBLIC "-//W3C//DTD SVG 1.1//EN"
 "http://www.w3.org/Graphics/SVG/1.1/DTD/svg11.dtd">
<!-- Generated by graphviz version 2.43.0 (0)
 -->
<!-- Title: acc&#45;comm/tests/acm/detail/test_partition.cc Pages: 1 -->
<svg width="875pt" height="423pt"
 viewBox="0.00 0.00 874.50 423.00" xmlns="http://www.w3.org/2000/svg" xmlns:xlink="http://www.w3.org/1999/xlink">
<g id="graph0" class="graph" transform="scale(1 1) rotate(0) translate(4 419)">
<title>acc&#45;comm/tests/acm/detail/test_partition.cc</title>
<!-- Node1 -->
<g id="Node000001" class="node">
<title>Node1</title>
<g id="a_Node000001"><a xlink:title=" ">
<polygon fill="#999999" stroke="#666666" points="141,-415 12,-415 12,-385 141,-385 141,-415"/>
<text text-anchor="start" x="20" y="-403" font-family="Helvetica,sans-Serif" font-size="10.00">acc&#45;comm/tests/acm</text>
<text text-anchor="middle" x="76.5" y="-392" font-family="Helvetica,sans-Serif" font-size="10.00">/detail/test_partition.cc</text>
</a>
</g>
</g>
<!-- Node2 -->
<g id="Node000002" class="node">
<title>Node2</title>
<g id="a_Node000002"><a xlink:title=" ">
<polygon fill="#e0e0e0" stroke="#999999" points="49,-349 0,-349 0,-330 49,-330 49,-349"/>
<text text-anchor="middle" x="24.5" y="-337" font-family="Helvetica,sans-Serif" font-size="10.00">cstdlib</text>
</a>
</g>
</g>
<!-- Node1&#45;&gt;Node2 -->
<g id="edge1_Node000001_Node000002" class="edge">
<title>Node1&#45;&gt;Node2</title>
<g id="a_edge1_Node000001_Node000002"><a xlink:title=" ">
<path fill="none" stroke="#63b8ff" d="M63.91,-384.84C56.44,-376.43 46.94,-365.74 39.13,-356.96"/>
<polygon fill="#63b8ff" stroke="#63b8ff" points="41.55,-354.41 32.29,-349.27 36.32,-359.07 41.55,-354.41"/>
</a>
</g>
</g>
<!-- Node3 -->
<g id="Node000003" class="node">
<title>Node3</title>
<g id="a_Node000003"><a xlink:href="partition_8h.html" target="_top" xlink:title=" ">
<polygon fill="white" stroke="#666666" points="189.5,-349 67.5,-349 67.5,-330 189.5,-330 189.5,-349"/>
<text text-anchor="middle" x="128.5" y="-337" font-family="Helvetica,sans-Serif" font-size="10.00">acm/detail/partition.h</text>
</a>
</g>
</g>
<!-- Node1&#45;&gt;Node3 -->
<g id="edge2_Node000001_Node000003" class="edge">
<title>Node1&#45;&gt;Node3</title>
<g id="a_edge2_Node000001_Node000003"><a xlink:title=" ">
<path fill="none" stroke="#63b8ff" d="M89.09,-384.84C96.56,-376.43 106.06,-365.74 113.87,-356.96"/>
<polygon fill="#63b8ff" stroke="#63b8ff" points="116.68,-359.07 120.71,-349.27 111.45,-354.41 116.68,-359.07"/>
</a>
</g>
</g>
<!-- Node4 -->
<g id="Node000004" class="node">
<title>Node4</title>
<g id="a_Node000004"><a xlink:title=" ">
<polygon fill="#e0e0e0" stroke="#999999" points="287,-129 240,-129 240,-110 287,-110 287,-129"/>
<text text-anchor="middle" x="263.5" y="-117" font-family="Helvetica,sans-Serif" font-size="10.00">vector</text>
</a>
</g>
</g>
<!-- Node3&#45;&gt;Node4 -->
<g id="edge3_Node000003_Node000004" class="edge">
<title>Node3&#45;&gt;Node4</title>
<g id="a_edge3_Node000003_Node000004"><a xlink:title=" ">
<path fill="none" stroke="#63b8ff" d="M121.33,-329.89C99.57,-302.71 38.27,-217.39 79.5,-165 97.83,-141.71 181.66,-129.15 229.6,-123.76"/>
<polygon fill="#63b8ff" stroke="#63b8ff" points="230.25,-127.21 239.82,-122.66 229.5,-120.25 230.25,-127.21"/>
</a>
</g>
</g>
<!-- Node5 -->
<g id="Node000005" class="node">
<title>Node5</title>
<g id="a_Node000005"><a xlink:href="segment_8h.html" target="_top" xlink:title=" ">
<polygon fill="white" stroke="#666666" points="231.5,-294 163.5,-294 163.5,-275 231.5,-275 231.5,-294"/>
<text text-anchor="middle" x="197.5" y="-282" font-family="Helvetica,sans-Serif" font-size="10.00">segment.h</text>
</a>
</g>
</g>
<!-- Node3&#45;&gt;Node5 -->
<g id="edge4_Node000003_Node000005" class="edge">
<title>Node3&#45;&gt;Node5</title>
<g id="a_edge4_Node000003_Node000005"><a xlink:title=" ">
<path fill="none" stroke="#63b8ff" d="M139.59,-329.98C149.99,-322 165.76,-309.88 178.22,-300.31"/>
<polygon fill="#63b8ff" stroke="#63b8ff" points="180.41,-303.04 186.21,-294.17 176.15,-297.49 180.41,-303.04"/>
</a>
</g>
</g>
<!-- Node6 -->
<g id="Node000006" class="node">
<title>Node6</title>
<g id="a_Node000006"><a xlink:title=" ">
<polygon fill="#e0e0e0" stroke="#999999" points="227.5,-239 167.5,-239 167.5,-220 227.5,-220 227.5,-239"/>
<text text-anchor="middle" x="197.5" y="-227" font-family="Helvetica,sans-Serif" font-size="10.00">iostream</text>
</a>
</g>
</g>
<!-- Node5&#45;&gt;Node6 -->
<g id="edge5_Node000005_Node000006" class="edge">
<title>Node5&#45;&gt;Node6</title>
<g id="a_edge5_Node000005_Node000006"><a xlink:title=" ">
<path fill="none" stroke="#63b8ff" d="M197.5,-274.75C197.5,-267.8 197.5,-257.85 197.5,-249.13"/>
<polygon fill="#63b8ff" stroke="#63b8ff" points="201,-249.09 197.5,-239.09 194,-249.09 201,-249.09"/>
</a>
</g>
</g>
<!-- Node7 -->
<g id="Node000007" class="node">
<title>Node7</title>
<g id="a_Node000007"><a xlink:href="ntuple_8h.html" target="_top" xlink:title=" ">
<polygon fill="white" stroke="#666666" points="376.5,-239 320.5,-239 320.5,-220 376.5,-220 376.5,-239"/>
<text text-anchor="middle" x="348.5" y="-227" font-family="Helvetica,sans-Serif" font-size="10.00">ntuple.h</text>
</a>
</g>
</g>
<!-- Node5&#45;&gt;Node7 -->
<g id="edge6_Node000005_Node000007" class="edge">
<title>Node5&#45;&gt;Node7</title>
<g id="a_edge6_Node000005_Node000007"><a xlink:title=" ">
<path fill="none" stroke="#63b8ff" d="M221.76,-274.98C246.82,-266.19 286.13,-252.39 314.33,-242.49"/>
<polygon fill="#63b8ff" stroke="#63b8ff" points="315.52,-245.78 323.8,-239.17 313.2,-239.18 315.52,-245.78"/>
</a>
</g>
</g>
<!-- Node7&#45;&gt;Node4 -->
<g id="edge10_Node000007_Node000004" class="edge">
<title>Node7&#45;&gt;Node4</title>
<g id="a_edge10_Node000007_Node000004"><a xlink:title=" ">
<path fill="none" stroke="#63b8ff" d="M362.9,-219.93C381.46,-207.78 409.74,-184.83 395.5,-165 389.55,-156.72 334.16,-140.04 297.04,-129.62"/>
<polygon fill="#63b8ff" stroke="#63b8ff" points="297.69,-126.16 287.12,-126.85 295.81,-132.91 297.69,-126.16"/>
</a>
</g>
</g>
<!-- Node8 -->
<g id="Node000008" class="node">
<title>Node8</title>
<g id="a_Node000008"><a xlink:title=" ">
<polygon fill="#e0e0e0" stroke="#999999" points="152.5,-184 88.5,-184 88.5,-165 152.5,-165 152.5,-184"/>
<text text-anchor="middle" x="120.5" y="-172" font-family="Helvetica,sans-Serif" font-size="10.00">algorithm</text>
</a>
</g>
</g>
<!-- Node7&#45;&gt;Node8 -->
<g id="edge7_Node000007_Node000008" class="edge">
<title>Node7&#45;&gt;Node8</title>
<g id="a_edge7_Node000007_Node000008"><a xlink:title=" ">
<path fill="none" stroke="#63b8ff" d="M320.08,-221.89C280.46,-212.68 208.34,-195.92 162.51,-185.26"/>
<polygon fill="#63b8ff" stroke="#63b8ff" points="163.12,-181.81 152.58,-182.96 161.53,-188.63 163.12,-181.81"/>
</a>
</g>
</g>
<!-- Node9 -->
<g id="Node000009" class="node">
<title>Node9</title>
<g id="a_Node000009"><a xlink:title=" ">
<polygon fill="#e0e0e0" stroke="#999999" points="218,-184 171,-184 171,-165 218,-165 218,-184"/>
<text text-anchor="middle" x="194.5" y="-172" font-family="Helvetica,sans-Serif" font-size="10.00">cmath</text>
</a>
</g>
</g>
<!-- Node7&#45;&gt;Node9 -->
<g id="edge8_Node000007_Node000009" class="edge">
<title>Node7&#45;&gt;Node9</title>
<g id="a_edge8_Node000007_Node000009"><a xlink:title=" ">
<path fill="none" stroke="#63b8ff" d="M323.76,-219.98C297.75,-211.03 256.67,-196.9 227.82,-186.97"/>
<polygon fill="#63b8ff" stroke="#63b8ff" points="228.76,-183.59 218.17,-183.65 226.49,-190.21 228.76,-183.59"/>
</a>
</g>
</g>
<!-- Node10 -->
<g id="Node000010" class="node">
<title>Node10</title>
<g id="a_Node000010"><a xlink:title=" ">
<polygon fill="#e0e0e0" stroke="#999999" points="293,-184 236,-184 236,-165 293,-165 293,-184"/>
<text text-anchor="middle" x="264.5" y="-172" font-family="Helvetica,sans-Serif" font-size="10.00">ostream</text>
</a>
</g>
</g>
<!-- Node7&#45;&gt;Node10 -->
<g id="edge9_Node000007_Node000010" class="edge">
<title>Node7&#45;&gt;Node10</title>
<g id="a_edge9_Node000007_Node000010"><a xlink:title=" ">
<path fill="none" stroke="#63b8ff" d="M335,-219.98C322.1,-211.84 302.4,-199.41 287.1,-189.76"/>
<polygon fill="#63b8ff" stroke="#63b8ff" points="288.57,-186.55 278.24,-184.17 284.83,-192.47 288.57,-186.55"/>
</a>
</g>
</g>
<!-- Node11 -->
<g id="Node000011" class="node">
<title>Node11</title>
<g id="a_Node000011"><a xlink:href="cuda__utils_8h.html" target="_top" xlink:title=" ">
<polygon fill="white" stroke="#666666" points="386,-184 311,-184 311,-165 386,-165 386,-184"/>
<text text-anchor="middle" x="348.5" y="-172" font-family="Helvetica,sans-Serif" font-size="10.00">cuda_utils.h</text>
</a>
</g>
</g>
<!-- Node7&#45;&gt;Node11 -->
<g id="edge11_Node000007_Node000011" class="edge">
<title>Node7&#45;&gt;Node11</title>
<g id="a_edge11_Node000007_Node000011"><a xlink:title=" ">
<path fill="none" stroke="#63b8ff" d="M348.5,-219.75C348.5,-212.8 348.5,-202.85 348.5,-194.13"/>
<polygon fill="#63b8ff" stroke="#63b8ff" points="352,-194.09 348.5,-184.09 345,-194.09 352,-194.09"/>
</a>
</g>
</g>
<!-- Node12 -->
<g id="Node000012" class="node">
<title>Node12</title>
<g id="a_Node000012"><a xlink:href="acc-comm_2acm_2detail_2errchk_8h.html" target="_top" xlink:title=" ">
<polygon fill="white" stroke="#666666" points="784.5,-129 728.5,-129 728.5,-110 784.5,-110 784.5,-129"/>
<text text-anchor="middle" x="756.5" y="-117" font-family="Helvetica,sans-Serif" font-size="10.00">errchk.h</text>
</a>
</g>
</g>
<!-- Node7&#45;&gt;Node12 -->
<g id="edge12_Node000007_Node000012" class="edge">
<title>Node7&#45;&gt;Node12</title>
<g id="a_edge12_Node000007_Node000012"><a xlink:title=" ">
<path fill="none" stroke="#63b8ff" d="M376.85,-228.69C433.23,-228.17 562.56,-222.47 662.5,-184 691.88,-172.69 721.22,-150.75 739.11,-135.86"/>
<polygon fill="#63b8ff" stroke="#63b8ff" points="741.59,-138.35 746.93,-129.2 737.05,-133.02 741.59,-138.35"/>
</a>
</g>
</g>
<!-- Node17 -->
<g id="Node000017" class="node">
<title>Node17</title>
<g id="a_Node000017"><a xlink:href="acc-comm_2acm_2detail_2math__utils_8h.html" target="_top" xlink:title=" ">
<polygon fill="white" stroke="#666666" points="520,-184 443,-184 443,-165 520,-165 520,-184"/>
<text text-anchor="middle" x="481.5" y="-172" font-family="Helvetica,sans-Serif" font-size="10.00">math_utils.h</text>
</a>
</g>
</g>
<!-- Node7&#45;&gt;Node17 -->
<g id="edge17_Node000007_Node000017" class="edge">
<title>Node7&#45;&gt;Node17</title>
<g id="a_edge17_Node000007_Node000017"><a xlink:title=" ">
<path fill="none" stroke="#63b8ff" d="M369.87,-219.98C391.65,-211.3 425.66,-197.75 450.42,-187.88"/>
<polygon fill="#63b8ff" stroke="#63b8ff" points="451.75,-191.12 459.74,-184.17 449.16,-184.62 451.75,-191.12"/>
</a>
</g>
</g>
<!-- Node23 -->
<g id="Node000023" class="node">
<title>Node23</title>
<g id="a_Node000023"><a xlink:href="type__conversion_8h.html" target="_top" xlink:title=" ">
<polygon fill="white" stroke="#666666" points="653.5,-184 547.5,-184 547.5,-165 653.5,-165 653.5,-184"/>
<text text-anchor="middle" x="600.5" y="-172" font-family="Helvetica,sans-Serif" font-size="10.00">type_conversion.h</text>
</a>
</g>
</g>
<!-- Node7&#45;&gt;Node23 -->
<g id="edge24_Node000007_Node000023" class="edge">
<title>Node7&#45;&gt;Node23</title>
<g id="a_edge24_Node000007_Node000023"><a xlink:title=" ">
<path fill="none" stroke="#63b8ff" d="M376.92,-222.52C418.79,-213.72 497.72,-197.12 549.7,-186.18"/>
<polygon fill="#63b8ff" stroke="#63b8ff" points="550.66,-189.56 559.72,-184.08 549.22,-182.71 550.66,-189.56"/>
</a>
</g>
</g>
<!-- Node13 -->
<g id="Node000013" class="node">
<title>Node13</title>
<g id="a_Node000013"><a xlink:title=" ">
<polygon fill="#e0e0e0" stroke="#999999" points="696,-74 631,-74 631,-55 696,-55 696,-74"/>
<text text-anchor="middle" x="663.5" y="-62" font-family="Helvetica,sans-Serif" font-size="10.00">stdexcept</text>
</a>
</g>
</g>
<!-- Node12&#45;&gt;Node13 -->
<g id="edge13_Node000012_Node000013" class="edge">
<title>Node12&#45;&gt;Node13</title>
<g id="a_edge13_Node000012_Node000013"><a xlink:title=" ">
<path fill="none" stroke="#63b8ff" d="M741.56,-109.98C727,-101.69 704.63,-88.94 687.57,-79.22"/>
<polygon fill="#63b8ff" stroke="#63b8ff" points="689.14,-76.08 678.71,-74.17 685.67,-82.16 689.14,-76.08"/>
</a>
</g>
</g>
<!-- Node14 -->
<g id="Node000014" class="node">
<title>Node14</title>
<g id="a_Node000014"><a xlink:href="errchk__print_8h.html" target="_top" xlink:title=" ">
<polygon fill="white" stroke="#666666" points="798.5,-74 714.5,-74 714.5,-55 798.5,-55 798.5,-74"/>
<text text-anchor="middle" x="756.5" y="-62" font-family="Helvetica,sans-Serif" font-size="10.00">errchk_print.h</text>
</a>
</g>
</g>
<!-- Node12&#45;&gt;Node14 -->
<g id="edge14_Node000012_Node000014" class="edge">
<title>Node12&#45;&gt;Node14</title>
<g id="a_edge14_Node000012_Node000014"><a xlink:title=" ">
<path fill="none" stroke="#63b8ff" d="M756.5,-109.75C756.5,-102.8 756.5,-92.85 756.5,-84.13"/>
<polygon fill="#63b8ff" stroke="#63b8ff" points="760,-84.09 756.5,-74.09 753,-84.09 760,-84.09"/>
</a>
</g>
</g>
<!-- Node16 -->
<g id="Node000016" class="node">
<title>Node16</title>
<g id="a_Node000016"><a xlink:title=" ">
<polygon fill="#e0e0e0" stroke="#999999" points="866.5,-74 816.5,-74 816.5,-55 866.5,-55 866.5,-74"/>
<text text-anchor="middle" x="841.5" y="-62" font-family="Helvetica,sans-Serif" font-size="10.00">chrono</text>
</a>
</g>
</g>
<!-- Node12&#45;&gt;Node16 -->
<g id="edge16_Node000012_Node000016" class="edge">
<title>Node12&#45;&gt;Node16</title>
<g id="a_edge16_Node000012_Node000016"><a xlink:title=" ">
<path fill="none" stroke="#63b8ff" d="M770.16,-109.98C783.34,-101.77 803.53,-89.18 819.07,-79.49"/>
<polygon fill="#63b8ff" stroke="#63b8ff" points="820.96,-82.43 827.59,-74.17 817.26,-76.49 820.96,-82.43"/>
</a>
</g>
</g>
<!-- Node15 -->
<g id="Node000015" class="node">
<title>Node15</title>
<g id="a_Node000015"><a xlink:title=" ">
<polygon fill="#e0e0e0" stroke="#999999" points="784.5,-19 728.5,-19 728.5,0 784.5,0 784.5,-19"/>
<text text-anchor="middle" x="756.5" y="-7" font-family="Helvetica,sans-Serif" font-size="10.00">stdarg.h</text>
</a>
</g>
</g>
<!-- Node14&#45;&gt;Node15 -->
<g id="edge15_Node000014_Node000015" class="edge">
<title>Node14&#45;&gt;Node15</title>
<g id="a_edge15_Node000014_Node000015"><a xlink:title=" ">
<path fill="none" stroke="#63b8ff" d="M756.5,-54.75C756.5,-47.8 756.5,-37.85 756.5,-29.13"/>
<polygon fill="#63b8ff" stroke="#63b8ff" points="760,-29.09 756.5,-19.09 753,-29.09 760,-29.09"/>
</a>
</g>
</g>
<!-- Node17&#45;&gt;Node4 -->
<g id="edge23_Node000017_Node000004" class="edge">
<title>Node17&#45;&gt;Node4</title>
<g id="a_edge23_Node000017_Node000004"><a xlink:title=" ">
<path fill="none" stroke="#63b8ff" d="M445.3,-164.97C410.02,-156.62 354.59,-143.4 297.25,-129.16"/>
<polygon fill="#63b8ff" stroke="#63b8ff" points="297.83,-125.69 287.28,-126.67 296.14,-132.49 297.83,-125.69"/>
</a>
</g>
</g>
<!-- Node18 -->
<g id="Node000018" class="node">
<title>Node18</title>
<g id="a_Node000018"><a xlink:title=" ">
<polygon fill="#e0e0e0" stroke="#999999" points="358,-129 305,-129 305,-110 358,-110 358,-129"/>
<text text-anchor="middle" x="331.5" y="-117" font-family="Helvetica,sans-Serif" font-size="10.00">cstddef</text>
</a>
</g>
</g>
<!-- Node17&#45;&gt;Node18 -->
<g id="edge18_Node000017_Node000018" class="edge">
<title>Node17&#45;&gt;Node18</title>
<g id="a_edge18_Node000017_Node000018"><a xlink:title=" ">
<path fill="none" stroke="#63b8ff" d="M457.4,-164.98C432.62,-156.23 393.8,-142.51 365.81,-132.62"/>
<polygon fill="#63b8ff" stroke="#63b8ff" points="366.63,-129.2 356.04,-129.17 364.3,-135.8 366.63,-129.2"/>
</a>
</g>
</g>
<!-- Node19 -->
<g id="Node000019" class="node">
<title>Node19</title>
<g id="a_Node000019"><a xlink:title=" ">
<polygon fill="#e0e0e0" stroke="#999999" points="560.5,-129 510.5,-129 510.5,-110 560.5,-110 560.5,-129"/>
<text text-anchor="middle" x="535.5" y="-117" font-family="Helvetica,sans-Serif" font-size="10.00">cstdint</text>
</a>
</g>
</g>
<!-- Node17&#45;&gt;Node19 -->
<g id="edge19_Node000017_Node000019" class="edge">
<title>Node17&#45;&gt;Node19</title>
<g id="a_edge19_Node000017_Node000019"><a xlink:title=" ">
<path fill="none" stroke="#63b8ff" d="M490.42,-164.75C498.28,-157.03 509.93,-145.6 519.42,-136.28"/>
<polygon fill="#63b8ff" stroke="#63b8ff" points="522.06,-138.59 526.75,-129.09 517.16,-133.6 522.06,-138.59"/>
</a>
</g>
</g>
<!-- Node20 -->
<g id="Node000020" class="node">
<title>Node20</title>
<g id="a_Node000020"><a xlink:title=" ">
<polygon fill="#e0e0e0" stroke="#999999" points="622.5,-129 578.5,-129 578.5,-110 622.5,-110 622.5,-129"/>
<text text-anchor="middle" x="600.5" y="-117" font-family="Helvetica,sans-Serif" font-size="10.00">limits</text>
</a>
</g>
</g>
<!-- Node17&#45;&gt;Node20 -->
<g id="edge20_Node000017_Node000020" class="edge">
<title>Node17&#45;&gt;Node20</title>
<g id="a_edge20_Node000017_Node000020"><a xlink:title=" ">
<path fill="none" stroke="#63b8ff" d="M500.62,-164.98C519.85,-156.42 549.73,-143.11 571.81,-133.28"/>
<polygon fill="#63b8ff" stroke="#63b8ff" points="573.32,-136.44 581.03,-129.17 570.47,-130.04 573.32,-136.44"/>
</a>
</g>
</g>
<!-- Node21 -->
<g id="Node000021" class="node">
<title>Node21</title>
<g id="a_Node000021"><a xlink:title=" ">
<polygon fill="#e0e0e0" stroke="#999999" points="432.5,-129 376.5,-129 376.5,-110 432.5,-110 432.5,-129"/>
<text text-anchor="middle" x="404.5" y="-117" font-family="Helvetica,sans-Serif" font-size="10.00">numeric</text>
</a>
</g>
</g>
<!-- Node17&#45;&gt;Node21 -->
<g id="edge21_Node000017_Node000021" class="edge">
<title>Node17&#45;&gt;Node21</title>
<g id="a_edge21_Node000017_Node000021"><a xlink:title=" ">
<path fill="none" stroke="#63b8ff" d="M469.13,-164.98C457.41,-156.92 439.58,-144.65 425.61,-135.03"/>
<polygon fill="#63b8ff" stroke="#63b8ff" points="427.32,-131.96 417.1,-129.17 423.35,-137.72 427.32,-131.96"/>
</a>
</g>
</g>
<!-- Node22 -->
<g id="Node000022" class="node">
<title>Node22</title>
<g id="a_Node000022"><a xlink:title=" ">
<polygon fill="#e0e0e0" stroke="#999999" points="492,-129 451,-129 451,-110 492,-110 492,-129"/>
<text text-anchor="middle" x="471.5" y="-117" font-family="Helvetica,sans-Serif" font-size="10.00">tuple</text>
</a>
</g>
</g>
<!-- Node17&#45;&gt;Node22 -->
<g id="edge22_Node000017_Node000022" class="edge">
<title>Node17&#45;&gt;Node22</title>
<g id="a_edge22_Node000017_Node000022"><a xlink:title=" ">
<path fill="none" stroke="#63b8ff" d="M479.85,-164.75C478.54,-157.8 476.66,-147.85 475.02,-139.13"/>
<polygon fill="#63b8ff" stroke="#63b8ff" points="478.41,-138.27 473.12,-129.09 471.54,-139.56 478.41,-138.27"/>
</a>
</g>
</g>
<!-- Node23&#45;&gt;Node12 -->
<g id="edge28_Node000023_Node000012" class="edge">
<title>Node23&#45;&gt;Node12</title>
<g id="a_edge28_Node000023_Node000012"><a xlink:title=" ">
<path fill="none" stroke="#63b8ff" d="M625.56,-164.98C651.53,-156.16 692.31,-142.31 721.46,-132.41"/>
<polygon fill="#63b8ff" stroke="#63b8ff" points="722.9,-135.61 731.24,-129.08 720.65,-128.99 722.9,-135.61"/>
</a>
</g>
</g>
<!-- Node23&#45;&gt;Node19 -->
<g id="edge25_Node000023_Node000019" class="edge">
<title>Node23&#45;&gt;Node19</title>
<g id="a_edge25_Node000023_Node000019"><a xlink:title=" ">
<path fill="none" stroke="#63b8ff" d="M590.06,-164.98C580.35,-157.07 565.68,-145.11 554,-135.58"/>
<polygon fill="#63b8ff" stroke="#63b8ff" points="556.1,-132.78 546.13,-129.17 551.67,-138.2 556.1,-132.78"/>
</a>
</g>
</g>
<!-- Node23&#45;&gt;Node20 -->
<g id="edge26_Node000023_Node000020" class="edge">
<title>Node23&#45;&gt;Node20</title>
<g id="a_edge26_Node000023_Node000020"><a xlink:title=" ">
<path fill="none" stroke="#63b8ff" d="M600.5,-164.75C600.5,-157.8 600.5,-147.85 600.5,-139.13"/>
<polygon fill="#63b8ff" stroke="#63b8ff" points="604,-139.09 600.5,-129.09 597,-139.09 604,-139.09"/>
</a>
</g>
</g>
<!-- Node24 -->
<g id="Node000024" class="node">
<title>Node24</title>
<g id="a_Node000024"><a xlink:title=" ">
<polygon fill="#e0e0e0" stroke="#999999" points="710,-129 641,-129 641,-110 710,-110 710,-129"/>
<text text-anchor="middle" x="675.5" y="-117" font-family="Helvetica,sans-Serif" font-size="10.00">type_traits</text>
</a>
</g>
</g>
<!-- Node23&#45;&gt;Node24 -->
<g id="edge27_Node000023_Node000024" class="edge">
<title>Node23&#45;&gt;Node24</title>
<g id="a_edge27_Node000023_Node000024"><a xlink:title=" ">
<path fill="none" stroke="#63b8ff" d="M612.55,-164.98C623.96,-156.92 641.33,-144.65 654.93,-135.03"/>
<polygon fill="#63b8ff" stroke="#63b8ff" points="657.08,-137.8 663.23,-129.17 653.04,-132.08 657.08,-137.8"/>
</a>
</g>
</g>
</g>
</svg>
