<?xml version="1.0" encoding="UTF-8" standalone="no"?>
<!DOCTYPE svg PUBLIC "-//W3C//DTD SVG 1.1//EN"
 "http://www.w3.org/Graphics/SVG/1.1/DTD/svg11.dtd">
<!-- Generated by graphviz version 2.43.0 (0)
 -->
<!-- Title: acc&#45;comm/tests/acm/detail/test_buffer_exchange.cc Pages: 1 -->
<svg width="417pt" height="434pt"
 viewBox="0.00 0.00 416.64 434.00" xmlns="http://www.w3.org/2000/svg" xmlns:xlink="http://www.w3.org/1999/xlink">
<g id="graph0" class="graph" transform="scale(1 1) rotate(0) translate(4 430)">
<title>acc&#45;comm/tests/acm/detail/test_buffer_exchange.cc</title>
<!-- Node1 -->
<g id="Node000001" class="node">
<title>Node1</title>
<g id="a_Node000001"><a xlink:title=" ">
<polygon fill="#999999" stroke="#666666" points="226,-426 107,-426 107,-385 226,-385 226,-426"/>
<text text-anchor="start" x="115" y="-414" font-family="Helvetica,sans-Serif" font-size="10.00">acc&#45;comm/tests/acm</text>
<text text-anchor="start" x="115" y="-403" font-family="Helvetica,sans-Serif" font-size="10.00">/detail/test_buffer</text>
<text text-anchor="middle" x="166.5" y="-392" font-family="Helvetica,sans-Serif" font-size="10.00">_exchange.cc</text>
</a>
</g>
</g>
<!-- Node2 -->
<g id="Node000002" class="node">
<title>Node2</title>
<g id="a_Node000002"><a xlink:title=" ">
<polygon fill="#e0e0e0" stroke="#999999" points="120,-349 71,-349 71,-330 120,-330 120,-349"/>
<text text-anchor="middle" x="95.5" y="-337" font-family="Helvetica,sans-Serif" font-size="10.00">cstdlib</text>
</a>
</g>
</g>
<!-- Node1&#45;&gt;Node2 -->
<g id="edge1_Node000001_Node000002" class="edge">
<title>Node1&#45;&gt;Node2</title>
<g id="a_edge1_Node000001_Node000002"><a xlink:title=" ">
<path fill="none" stroke="#63b8ff" d="M144.81,-384.95C134.49,-375.65 122.32,-364.68 112.65,-355.96"/>
<polygon fill="#63b8ff" stroke="#63b8ff" points="114.99,-353.36 105.22,-349.26 110.3,-358.56 114.99,-353.36"/>
</a>
</g>
</g>
<!-- Node3 -->
<g id="Node000003" class="node">
<title>Node3</title>
<g id="a_Node000003"><a xlink:title=" ">
<polygon fill="#e0e0e0" stroke="#999999" points="194.5,-349 138.5,-349 138.5,-330 194.5,-330 194.5,-349"/>
<text text-anchor="middle" x="166.5" y="-337" font-family="Helvetica,sans-Serif" font-size="10.00">numeric</text>
</a>
</g>
</g>
<!-- Node1&#45;&gt;Node3 -->
<g id="edge2_Node000001_Node000003" class="edge">
<title>Node1&#45;&gt;Node3</title>
<g id="a_edge2_Node000001_Node000003"><a xlink:title=" ">
<path fill="none" stroke="#63b8ff" d="M166.5,-384.95C166.5,-376.85 166.5,-367.5 166.5,-359.47"/>
<polygon fill="#63b8ff" stroke="#63b8ff" points="170,-359.26 166.5,-349.26 163,-359.26 170,-359.26"/>
</a>
</g>
</g>
<!-- Node4 -->
<g id="Node000004" class="node">
<title>Node4</title>
<g id="a_Node000004"><a xlink:href="buffer__exchange_8h.html" target="_top" xlink:title=" ">
<polygon fill="white" stroke="#666666" points="374,-349 213,-349 213,-330 374,-330 374,-349"/>
<text text-anchor="middle" x="293.5" y="-337" font-family="Helvetica,sans-Serif" font-size="10.00">acm/detail/buffer_exchange.h</text>
</a>
</g>
</g>
<!-- Node1&#45;&gt;Node4 -->
<g id="edge3_Node000001_Node000004" class="edge">
<title>Node1&#45;&gt;Node4</title>
<g id="a_edge3_Node000001_Node000004"><a xlink:title=" ">
<path fill="none" stroke="#63b8ff" d="M205.29,-384.95C225.36,-374.84 249.32,-362.76 267.2,-353.75"/>
<polygon fill="#63b8ff" stroke="#63b8ff" points="269.1,-356.72 276.45,-349.09 265.95,-350.47 269.1,-356.72"/>
</a>
</g>
</g>
<!-- Node5 -->
<g id="Node000005" class="node">
<title>Node5</title>
<g id="a_Node000005"><a xlink:href="buffer_8h.html" target="_top" xlink:title=" ">
<polygon fill="white" stroke="#666666" points="199,-294 146,-294 146,-275 199,-275 199,-294"/>
<text text-anchor="middle" x="172.5" y="-282" font-family="Helvetica,sans-Serif" font-size="10.00">buffer.h</text>
</a>
</g>
</g>
<!-- Node4&#45;&gt;Node5 -->
<g id="edge4_Node000004_Node000005" class="edge">
<title>Node4&#45;&gt;Node5</title>
<g id="a_edge4_Node000004_Node000005"><a xlink:title=" ">
<path fill="none" stroke="#63b8ff" d="M274.06,-329.98C254.51,-321.42 224.12,-308.11 201.68,-298.28"/>
<polygon fill="#63b8ff" stroke="#63b8ff" points="202.86,-294.98 192.29,-294.17 200.05,-301.39 202.86,-294.98"/>
</a>
</g>
</g>
<!-- Node10 -->
<g id="Node000010" class="node">
<title>Node10</title>
<g id="a_Node000010"><a xlink:href="acc-comm_2acm_2detail_2errchk_8h.html" target="_top" xlink:title=" ">
<polygon fill="white" stroke="#666666" points="153.5,-129 97.5,-129 97.5,-110 153.5,-110 153.5,-129"/>
<text text-anchor="middle" x="125.5" y="-117" font-family="Helvetica,sans-Serif" font-size="10.00">errchk.h</text>
</a>
</g>
</g>
<!-- Node4&#45;&gt;Node10 -->
<g id="edge20_Node000004_Node000010" class="edge">
<title>Node4&#45;&gt;Node10</title>
<g id="a_edge20_Node000004_Node000010"><a xlink:title=" ">
<path fill="none" stroke="#63b8ff" d="M305.75,-329.89C342.03,-303.4 443.43,-221.48 395.5,-165 366.25,-130.53 231.26,-122.72 163.92,-120.98"/>
<polygon fill="#63b8ff" stroke="#63b8ff" points="163.8,-117.47 153.72,-120.75 163.64,-124.47 163.8,-117.47"/>
</a>
</g>
</g>
<!-- Node6 -->
<g id="Node000006" class="node">
<title>Node6</title>
<g id="a_Node000006"><a xlink:title=" ">
<polygon fill="#e0e0e0" stroke="#999999" points="57,-129 4,-129 4,-110 57,-110 57,-129"/>
<text text-anchor="middle" x="30.5" y="-117" font-family="Helvetica,sans-Serif" font-size="10.00">cstddef</text>
</a>
</g>
</g>
<!-- Node5&#45;&gt;Node6 -->
<g id="edge5_Node000005_Node000006" class="edge">
<title>Node5&#45;&gt;Node6</title>
<g id="a_edge5_Node000005_Node000006"><a xlink:title=" ">
<path fill="none" stroke="#63b8ff" d="M145.78,-284.07C111.93,-283.16 54.73,-275.85 27.5,-239 5.76,-209.59 15.65,-163.91 23.73,-138.72"/>
<polygon fill="#63b8ff" stroke="#63b8ff" points="27.13,-139.6 27.09,-129 20.51,-137.31 27.13,-139.6"/>
</a>
</g>
</g>
<!-- Node7 -->
<g id="Node000007" class="node">
<title>Node7</title>
<g id="a_Node000007"><a xlink:title=" ">
<polygon fill="#e0e0e0" stroke="#999999" points="96.5,-239 36.5,-239 36.5,-220 96.5,-220 96.5,-239"/>
<text text-anchor="middle" x="66.5" y="-227" font-family="Helvetica,sans-Serif" font-size="10.00">iostream</text>
</a>
</g>
</g>
<!-- Node5&#45;&gt;Node7 -->
<g id="edge6_Node000005_Node000007" class="edge">
<title>Node5&#45;&gt;Node7</title>
<g id="a_edge6_Node000005_Node000007"><a xlink:title=" ">
<path fill="none" stroke="#63b8ff" d="M155.47,-274.98C138.57,-266.54 112.44,-253.47 92.86,-243.68"/>
<polygon fill="#63b8ff" stroke="#63b8ff" points="94.35,-240.51 83.84,-239.17 91.22,-246.77 94.35,-240.51"/>
</a>
</g>
</g>
<!-- Node8 -->
<g id="Node000008" class="node">
<title>Node8</title>
<g id="a_Node000008"><a xlink:title=" ">
<polygon fill="#e0e0e0" stroke="#999999" points="172.5,-239 114.5,-239 114.5,-220 172.5,-220 172.5,-239"/>
<text text-anchor="middle" x="143.5" y="-227" font-family="Helvetica,sans-Serif" font-size="10.00">memory</text>
</a>
</g>
</g>
<!-- Node5&#45;&gt;Node8 -->
<g id="edge7_Node000005_Node000008" class="edge">
<title>Node5&#45;&gt;Node8</title>
<g id="a_edge7_Node000005_Node000008"><a xlink:title=" ">
<path fill="none" stroke="#63b8ff" d="M167.71,-274.75C163.74,-267.49 157.97,-256.95 153.07,-247.98"/>
<polygon fill="#63b8ff" stroke="#63b8ff" points="156.07,-246.18 148.2,-239.09 149.93,-249.54 156.07,-246.18"/>
</a>
</g>
</g>
<!-- Node9 -->
<g id="Node000009" class="node">
<title>Node9</title>
<g id="a_Node000009"><a xlink:href="allocator_8h.html" target="_top" xlink:title=" ">
<polygon fill="white" stroke="#666666" points="123.5,-184 55.5,-184 55.5,-165 123.5,-165 123.5,-184"/>
<text text-anchor="middle" x="89.5" y="-172" font-family="Helvetica,sans-Serif" font-size="10.00">allocator.h</text>
</a>
</g>
</g>
<!-- Node5&#45;&gt;Node9 -->
<g id="edge8_Node000005_Node000009" class="edge">
<title>Node5&#45;&gt;Node9</title>
<g id="a_edge8_Node000005_Node000009"><a xlink:title=" ">
<path fill="none" stroke="#63b8ff" d="M177.02,-274.95C183.18,-262.02 192.27,-237.17 181.5,-220 170.79,-202.93 151.48,-192.24 133.3,-185.64"/>
<polygon fill="#63b8ff" stroke="#63b8ff" points="134.25,-182.27 123.66,-182.46 132.06,-188.92 134.25,-182.27"/>
</a>
</g>
</g>
<!-- Node15 -->
<g id="Node000015" class="node">
<title>Node15</title>
<g id="a_Node000015"><a xlink:href="pointer_8h.html" target="_top" xlink:title=" ">
<polygon fill="white" stroke="#666666" points="288,-239 229,-239 229,-220 288,-220 288,-239"/>
<text text-anchor="middle" x="258.5" y="-227" font-family="Helvetica,sans-Serif" font-size="10.00">pointer.h</text>
</a>
</g>
</g>
<!-- Node5&#45;&gt;Node15 -->
<g id="edge15_Node000005_Node000015" class="edge">
<title>Node5&#45;&gt;Node15</title>
<g id="a_edge15_Node000005_Node000015"><a xlink:title=" ">
<path fill="none" stroke="#63b8ff" d="M186.32,-274.98C199.65,-266.77 220.08,-254.18 235.81,-244.49"/>
<polygon fill="#63b8ff" stroke="#63b8ff" points="237.75,-247.4 244.43,-239.17 234.08,-241.44 237.75,-247.4"/>
</a>
</g>
</g>
<!-- Node9&#45;&gt;Node6 -->
<g id="edge9_Node000009_Node000006" class="edge">
<title>Node9&#45;&gt;Node6</title>
<g id="a_edge9_Node000009_Node000006"><a xlink:title=" ">
<path fill="none" stroke="#63b8ff" d="M80.02,-164.98C71.3,-157.15 58.16,-145.34 47.6,-135.86"/>
<polygon fill="#63b8ff" stroke="#63b8ff" points="49.93,-133.25 40.15,-129.17 45.25,-138.46 49.93,-133.25"/>
</a>
</g>
</g>
<!-- Node9&#45;&gt;Node10 -->
<g id="edge10_Node000009_Node000010" class="edge">
<title>Node9&#45;&gt;Node10</title>
<g id="a_edge10_Node000009_Node000010"><a xlink:title=" ">
<path fill="none" stroke="#63b8ff" d="M95.44,-164.75C100.48,-157.34 107.84,-146.5 114.01,-137.41"/>
<polygon fill="#63b8ff" stroke="#63b8ff" points="116.94,-139.33 119.67,-129.09 111.15,-135.39 116.94,-139.33"/>
</a>
</g>
</g>
<!-- Node11 -->
<g id="Node000011" class="node">
<title>Node11</title>
<g id="a_Node000011"><a xlink:title=" ">
<polygon fill="#e0e0e0" stroke="#999999" points="65,-74 0,-74 0,-55 65,-55 65,-74"/>
<text text-anchor="middle" x="32.5" y="-62" font-family="Helvetica,sans-Serif" font-size="10.00">stdexcept</text>
</a>
</g>
</g>
<!-- Node10&#45;&gt;Node11 -->
<g id="edge11_Node000010_Node000011" class="edge">
<title>Node10&#45;&gt;Node11</title>
<g id="a_edge11_Node000010_Node000011"><a xlink:title=" ">
<path fill="none" stroke="#63b8ff" d="M110.56,-109.98C96,-101.69 73.63,-88.94 56.57,-79.22"/>
<polygon fill="#63b8ff" stroke="#63b8ff" points="58.14,-76.08 47.71,-74.17 54.67,-82.16 58.14,-76.08"/>
</a>
</g>
</g>
<!-- Node12 -->
<g id="Node000012" class="node">
<title>Node12</title>
<g id="a_Node000012"><a xlink:href="errchk__print_8h.html" target="_top" xlink:title=" ">
<polygon fill="white" stroke="#666666" points="167.5,-74 83.5,-74 83.5,-55 167.5,-55 167.5,-74"/>
<text text-anchor="middle" x="125.5" y="-62" font-family="Helvetica,sans-Serif" font-size="10.00">errchk_print.h</text>
</a>
</g>
</g>
<!-- Node10&#45;&gt;Node12 -->
<g id="edge12_Node000010_Node000012" class="edge">
<title>Node10&#45;&gt;Node12</title>
<g id="a_edge12_Node000010_Node000012"><a xlink:title=" ">
<path fill="none" stroke="#63b8ff" d="M125.5,-109.75C125.5,-102.8 125.5,-92.85 125.5,-84.13"/>
<polygon fill="#63b8ff" stroke="#63b8ff" points="129,-84.09 125.5,-74.09 122,-84.09 129,-84.09"/>
</a>
</g>
</g>
<!-- Node14 -->
<g id="Node000014" class="node">
<title>Node14</title>
<g id="a_Node000014"><a xlink:title=" ">
<polygon fill="#e0e0e0" stroke="#999999" points="235.5,-74 185.5,-74 185.5,-55 235.5,-55 235.5,-74"/>
<text text-anchor="middle" x="210.5" y="-62" font-family="Helvetica,sans-Serif" font-size="10.00">chrono</text>
</a>
</g>
</g>
<!-- Node10&#45;&gt;Node14 -->
<g id="edge14_Node000010_Node000014" class="edge">
<title>Node10&#45;&gt;Node14</title>
<g id="a_edge14_Node000010_Node000014"><a xlink:title=" ">
<path fill="none" stroke="#63b8ff" d="M139.16,-109.98C152.34,-101.77 172.53,-89.18 188.07,-79.49"/>
<polygon fill="#63b8ff" stroke="#63b8ff" points="189.96,-82.43 196.59,-74.17 186.26,-76.49 189.96,-82.43"/>
</a>
</g>
</g>
<!-- Node13 -->
<g id="Node000013" class="node">
<title>Node13</title>
<g id="a_Node000013"><a xlink:title=" ">
<polygon fill="#e0e0e0" stroke="#999999" points="153.5,-19 97.5,-19 97.5,0 153.5,0 153.5,-19"/>
<text text-anchor="middle" x="125.5" y="-7" font-family="Helvetica,sans-Serif" font-size="10.00">stdarg.h</text>
</a>
</g>
</g>
<!-- Node12&#45;&gt;Node13 -->
<g id="edge13_Node000012_Node000013" class="edge">
<title>Node12&#45;&gt;Node13</title>
<g id="a_edge13_Node000012_Node000013"><a xlink:title=" ">
<path fill="none" stroke="#63b8ff" d="M125.5,-54.75C125.5,-47.8 125.5,-37.85 125.5,-29.13"/>
<polygon fill="#63b8ff" stroke="#63b8ff" points="129,-29.09 125.5,-19.09 122,-29.09 129,-29.09"/>
</a>
</g>
</g>
<!-- Node15&#45;&gt;Node9 -->
<g id="edge18_Node000015_Node000009" class="edge">
<title>Node15&#45;&gt;Node9</title>
<g id="a_edge18_Node000015_Node000009"><a xlink:title=" ">
<path fill="none" stroke="#63b8ff" d="M231.35,-219.98C202.97,-211.09 158.27,-197.07 126.64,-187.15"/>
<polygon fill="#63b8ff" stroke="#63b8ff" points="127.45,-183.73 116.87,-184.08 125.36,-190.41 127.45,-183.73"/>
</a>
</g>
</g>
<!-- Node16 -->
<g id="Node000016" class="node">
<title>Node16</title>
<g id="a_Node000016"><a xlink:title=" ">
<polygon fill="#e0e0e0" stroke="#999999" points="205.5,-184 141.5,-184 141.5,-165 205.5,-165 205.5,-184"/>
<text text-anchor="middle" x="173.5" y="-172" font-family="Helvetica,sans-Serif" font-size="10.00">algorithm</text>
</a>
</g>
</g>
<!-- Node15&#45;&gt;Node16 -->
<g id="edge16_Node000015_Node000016" class="edge">
<title>Node15&#45;&gt;Node16</title>
<g id="a_edge16_Node000015_Node000016"><a xlink:title=" ">
<path fill="none" stroke="#63b8ff" d="M244.84,-219.98C231.66,-211.77 211.47,-199.18 195.93,-189.49"/>
<polygon fill="#63b8ff" stroke="#63b8ff" points="197.74,-186.49 187.41,-184.17 194.04,-192.43 197.74,-186.49"/>
</a>
</g>
</g>
<!-- Node17 -->
<g id="Node000017" class="node">
<title>Node17</title>
<g id="a_Node000017"><a xlink:title=" ">
<polygon fill="#e0e0e0" stroke="#999999" points="293,-184 224,-184 224,-165 293,-165 293,-184"/>
<text text-anchor="middle" x="258.5" y="-172" font-family="Helvetica,sans-Serif" font-size="10.00">type_traits</text>
</a>
</g>
</g>
<!-- Node15&#45;&gt;Node17 -->
<g id="edge17_Node000015_Node000017" class="edge">
<title>Node15&#45;&gt;Node17</title>
<g id="a_edge17_Node000015_Node000017"><a xlink:title=" ">
<path fill="none" stroke="#63b8ff" d="M258.5,-219.75C258.5,-212.8 258.5,-202.85 258.5,-194.13"/>
<polygon fill="#63b8ff" stroke="#63b8ff" points="262,-194.09 258.5,-184.09 255,-194.09 262,-194.09"/>
</a>
</g>
</g>
<!-- Node18 -->
<g id="Node000018" class="node">
<title>Node18</title>
<g id="a_Node000018"><a xlink:href="cuda__utils_8h.html" target="_top" xlink:title=" ">
<polygon fill="white" stroke="#666666" points="386,-184 311,-184 311,-165 386,-165 386,-184"/>
<text text-anchor="middle" x="348.5" y="-172" font-family="Helvetica,sans-Serif" font-size="10.00">cuda_utils.h</text>
</a>
</g>
</g>
<!-- Node15&#45;&gt;Node18 -->
<g id="edge19_Node000015_Node000018" class="edge">
<title>Node15&#45;&gt;Node18</title>
<g id="a_edge19_Node000015_Node000018"><a xlink:title=" ">
<path fill="none" stroke="#63b8ff" d="M272.96,-219.98C286.92,-211.77 308.29,-199.18 324.75,-189.49"/>
<polygon fill="#63b8ff" stroke="#63b8ff" points="326.94,-192.26 333.78,-184.17 323.38,-186.23 326.94,-192.26"/>
</a>
</g>
</g>
</g>
</svg>
